{
.appVersion = "3506";
DisplayStrings = (
a
);
classes = (
{
automatic = 1;

glyphs = (
{
glyphname = A;
layers = (
{
anchors = (
{
name = bottom;
position = "{273, 0}";
},
{
name = ogonek;
position = "{500, 0}";
},
{
name = top;
position = "{296, 597}";
}
);
layerId = "3A4136D0-3900-4A7F-B896-13EBFCDD931C";
paths = (
{
closed = 1;
nodes = (
"-20 0 LINE",
"153 0 LINE",
"153 29 LINE",
"105 26 LINE SMOOTH",
"90.333 25.333 OFFCURVE",
"83 32 OFFCURVE",
"83 46 CURVE SMOOTH",
"83 58.667 OFFCURVE",
"87.667 75.333 OFFCURVE",
"97 96 CURVE SMOOTH",
"143 208 LINE",
"376 208 LINE",
"425 90 LINE SMOOTH",
"431.667 75.333 OFFCURVE",
"435 62.333 OFFCURVE",
"435 51 CURVE SMOOTH",
"435 33 OFFCURVE",
"425 25 OFFCURVE",
"405 27 CURVE SMOOTH",
"356 29 LINE",
"356 0 LINE",
"621 0 LINE",
"621 29 LINE",
"588 27 LINE",
"583 27 LINE SMOOTH",
"569 27 OFFCURVE",
"557.333 33 OFFCURVE",
"548 45 CURVE SMOOTH",
"538 59 OFFCURVE",
"528.333 78 OFFCURVE",
"519 102 CURVE SMOOTH",
"308 607 LINE",
"282 607 LINE",
"73 104 LINE SMOOTH",
"63 80 OFFCURVE",
"53 60.667 OFFCURVE",
"43 46 CURVE SMOOTH",
"34.333 33.333 OFFCURVE",
"23.333 27 OFFCURVE",
"10 27 CURVE SMOOTH",
"6 27 LINE",
"-20 29 LINE",
"-20 0 LINE"
);
},
{
closed = 1;
nodes = (
"155 236 LINE",
"259 488 LINE",
"364 236 LINE",
"155 236 LINE"
);
}
);
userData = {
assembly = "NPUSHB[ ]	/* 57 values pushed */
36 1 8 6 19 1 1 2 2 74 0 8 0 2 1 8 2 101 0 6 6 17 75 9 7 5 3 4 1 1 0 93 4 1 0 0 21 0 76 0 0 35 34 0 33 0 31 20 34 17 36 21 17 17 10 7 27 
CALL[ ]	/* CallFunction */";
};
width = 601;
},
{
anchors = (
{
name = bottom;
position = "{271, 0}";
},
{
name = ogonek;
position = "{492, 0}";
},
{
name = top;
position = "{306, 597}";
}
);
layerId = "A0AC7266-FF1C-4B13-9E61-C3CFB2289D5A";
paths = (
{
closed = 1;
nodes = (
"-20 0 LINE",
"161 0 LINE",
"161 37 LINE",
"116 34 LINE SMOOTH",
"101.333 33.333 OFFCURVE",
"94 40 OFFCURVE",
"94 54 CURVE SMOOTH",
"94 66.667 OFFCURVE",
"98.667 83.333 OFFCURVE",
"108 104 CURVE SMOOTH",
"142 186 LINE",
"362 186 LINE",
"399 98 LINE SMOOTH",
"405.667 83.333 OFFCURVE",
"409 70.333 OFFCURVE",
"409 59 CURVE SMOOTH",
"409 41 OFFCURVE",
"399 33 OFFCURVE",
"379 35 CURVE SMOOTH",
"333 37 LINE",
"333 0 LINE",
"633 0 LINE",
"633 37 LINE",
"608 35 LINE",
"603 35 LINE SMOOTH",
"589 35 OFFCURVE",
"577.333 41 OFFCURVE",
"568 53 CURVE SMOOTH",
"558 67 OFFCURVE",
"548.333 86 OFFCURVE",
"539 110 CURVE SMOOTH",
"331 607 LINE",
"282 607 LINE",
"76 112 LINE SMOOTH",
"66 88 OFFCURVE",
"56 68.667 OFFCURVE",
"46 54 CURVE SMOOTH",
"37.333 41.333 OFFCURVE",
"26.333 35 OFFCURVE",
"13 35 CURVE SMOOTH",
"9 35 LINE",
"-20 37 LINE",
"-20 0 LINE"
);
},
{
closed = 1;
nodes = (
"156 221 LINE",
"251 451 LINE",
"348 221 LINE",
"156 221 LINE"
);
}
);
userData = {
assembly = "NPUSHB[ ]	/* 53 values pushed */
36 1 8 6 1 74 0 8 0 2 1 8 2 101 0 6 6 17 75 9 7 5 3 4 1 1 0 93 4 1 0 0 21 0 76 0 0 35 34 0 33 0 31 20 49 17 36 21 17 17 10 7 27 
CALL[ ]	/* CallFunction */";
};
width = 613;
},
{
anchors = (
{
name = bottom;
position = "{274, 0}";
},
{
name = ogonek;
position = "{504, 0}";
},
{
name = top;
position = "{292, 597}";
}
);
layerId = "8FAB7A87-DBD6-41A5-8B85-4E9492F941D1";
paths = (
{
closed = 1;
nodes = (
"-20 0 LINE",
"149 0 LINE",
"149 25 LINE",
"100 22 LINE SMOOTH",
"85.333 21.333 OFFCURVE",
"78 28 OFFCURVE",
"78 42 CURVE SMOOTH",
"78 54.667 OFFCURVE",
"82.667 71.333 OFFCURVE",
"92 92 CURVE SMOOTH",
"143 218 LINE",
"382 218 LINE",
"437 86 LINE SMOOTH",
"443.667 71.333 OFFCURVE",
"447 58.333 OFFCURVE",
"447 47 CURVE SMOOTH",
"447 29 OFFCURVE",
"437 21 OFFCURVE",
"417 23 CURVE SMOOTH",
"366 25 LINE",
"366 0 LINE",
"616 0 LINE",
"616 25 LINE",
"579 23 LINE",
"574 23 LINE SMOOTH",
"560 23 OFFCURVE",
"548.333 29 OFFCURVE",
"539 41 CURVE SMOOTH",
"529 55 OFFCURVE",
"519.333 74 OFFCURVE",
"510 98 CURVE SMOOTH",
"298 607 LINE",
"282 607 LINE",
"72 100 LINE SMOOTH",
"62 76 OFFCURVE",
"52 56.667 OFFCURVE",
"42 42 CURVE SMOOTH",
"33.333 29.333 OFFCURVE",
"22.333 23 OFFCURVE",
"9 23 CURVE SMOOTH",
"5 23 LINE",
"-20 25 LINE",
"-20 0 LINE"
);
},
{
closed = 1;
nodes = (
"155 243 LINE",
"263 504 LINE",
"371 243 LINE",
"155 243 LINE"
);
}
);
userData = {
assembly = "NPUSHB[ ]	/* 57 values pushed */
36 1 8 6 19 1 1 2 2 74 0 8 0 2 1 8 2 101 0 6 6 17 75 9 7 5 3 4 1 1 0 93 4 1 0 0 21 0 76 0 0 35 34 0 33 0 31 20 34 17 36 21 17 17 10 7 27 
CALL[ ]	/* CallFunction */";
};
width = 596;
}
);
leftKerningGroup = A;
note = A;
rightKerningGroup = A;
unicode = 0041;
},
{
glyphname = AE;
layers = (
{
anchors = (
{
name = top;
position = "{467, 597}";
}
);
layerId = "3A4136D0-3900-4A7F-B896-13EBFCDD931C";
paths = (
{
closed = 1;
nodes = (
"803 171 LINE",
"776 171 LINE",
"776 75 OFFCURVE",
"729 27 OFFCURVE",
"635 27 CURVE SMOOTH",
"569 27 LINE SMOOTH",
"558.333 27 OFFCURVE",
"551.333 33.333 OFFCURVE",
"548 46 CURVE SMOOTH",
"500 297 LINE",
"579 297 LINE SMOOTH",
"623 297 OFFCURVE",
"655 255 OFFCURVE",
"655 195 CURVE",
"681 195 LINE",
"681 426 LINE",
"655 426 LINE",
"655 366 OFFCURVE",
"623 324 OFFCURVE",
"579 324 CURVE SMOOTH",
"496 324 LINE",
"451 569 LINE",
"615 569 LINE SMOOTH",
"712.333 569 OFFCURVE",
"757 529.667 OFFCURVE",
"757 443 CURVE",
"783 443 LINE",
"783 599 LINE",
"773.667 597.667 OFFCURVE",
"762.333 597 OFFCURVE",
"749 597 CURVE SMOOTH",
"284 597 LINE",
"284 565 LINE",
"335 567 LINE SMOOTH",
"344.333 567 OFFCURVE",
"352 560.333 OFFCURVE",
"352 551 CURVE SMOOTH",
"352 547.667 OFFCURVE",
"351.333 545 OFFCURVE",
"350 543 CURVE SMOOTH",
"71 86 LINE SMOOTH",
"56.333 62.667 OFFCURVE",
"44.833 46.667 OFFCURVE",
"36.5 38 CURVE SMOOTH",
"28.167 29.333 OFFCURVE",
"19.667 25.667 OFFCURVE",
"11 27 CURVE SMOOTH",
"-20 30 LINE",
"-20 0 LINE",
"155 0 LINE",
"155 30 LINE",
"104 27 LINE SMOOTH",
"90.667 26.333 OFFCURVE",
"84 31.333 OFFCURVE",
"84 42 CURVE SMOOTH",
"84 50 OFFCURVE",
"88.667 62.667 OFFCURVE",
"98 80 CURVE SMOOTH",
"174 208 LINE",
"420 208 LINE",
"449 52 LINE SMOOTH",
"451.667 38.667 OFFCURVE",
"443 25.667 OFFCURVE",
"427 27 CURVE SMOOTH",
"370 30 LINE",
"370 0 LINE",
"715 0 LINE SMOOTH",
"749.667 0 OFFCURVE",
"779 -1 OFFCURVE",
"803 -3 CURVE"
);
},
{
closed = 1;
nodes = (
"190 236 LINE",
"362 515 LINE",
"414 236 LINE",
"190 236 LINE"
);
}
);
userData = {
assembly = "NPUSHB[ ]	/* 14 values pushed */
44 1 6 7 1 74 59 1 14 72 25 1 8 71 
MPPEM[ ]	/* MeasurePixelPerEm */
PUSHB[ ]	/* 1 value pushed */
10 
LT[ ]	/* LessThan */
IF[ ]	/* If */
NPUSHB[ ]	/* 66 values pushed */
0 0 1 3 1 0 112 0 7 4 6 4 7 6 126 0 2 0 5 15 2 5 101 0 15 0 10 4 15 10 101 13 1 1 1 14 93 0 14 14 17 75 0 4 4 3 93 0 3 3 20 75 11 9 2 6 6 8 93 12 1 8 8 21 8 76 
ELSE[ ]	/* Else */
NPUSHB[ ]	/* 67 values pushed */
0 0 1 3 1 0 3 126 0 7 4 6 4 7 6 126 0 2 0 5 15 2 5 101 0 15 0 10 4 15 10 101 13 1 1 1 14 93 0 14 14 17 75 0 4 4 3 93 0 3 3 20 75 11 9 2 6 6 8 93 12 1 8 8 21 8 76 
EIF[ ]	/* EndIf */
NPUSHB[ ]	/* 26 values pushed */
62 61 58 56 55 53 43 42 41 39 35 34 30 29 34 17 50 34 17 18 33 34 16 16 7 29 
CALL[ ]	/* CallFunction */";
};
width = 847;
},
{
anchors = (
{
name = top;
position = "{477, 597}";
}
);
layerId = "A0AC7266-FF1C-4B13-9E61-C3CFB2289D5A";
paths = (
{
closed = 1;
nodes = (
"806 171 LINE",
"772 171 LINE",
"770.667 79.667 OFFCURVE",
"723.667 34 OFFCURVE",
"631 34 CURVE SMOOTH",
"587 34 LINE SMOOTH",
"576.333 34 OFFCURVE",
"569.333 40.333 OFFCURVE",
"566 53 CURVE SMOOTH",
"520 289 LINE",
"576 289 LINE SMOOTH",
"618.667 289 OFFCURVE",
"652 247 OFFCURVE",
"652 191 CURVE",
"686 191 LINE",
"686 426 LINE",
"651 426 LINE",
"651 366 OFFCURVE",
"619 324 OFFCURVE",
"575 324 CURVE SMOOTH",
"514 324 LINE",
"471 562 LINE",
"611 562 LINE SMOOTH",
"708.333 562 OFFCURVE",
"753 525.667 OFFCURVE",
"753 443 CURVE",
"786 443 LINE",
"786 599 LINE",
"775.333 597.667 OFFCURVE",
"761.667 597 OFFCURVE",
"745 597 CURVE SMOOTH",
"275 597 LINE",
"275 558 LINE",
"326 560 LINE SMOOTH",
"335.333 560 OFFCURVE",
"343 553.333 OFFCURVE",
"343 544 CURVE SMOOTH",
"343 540.667 OFFCURVE",
"342.333 538 OFFCURVE",
"341 536 CURVE SMOOTH",
"71 94 LINE SMOOTH",
"57 70.667 OFFCURVE",
"45.833 54.667 OFFCURVE",
"37.5 46 CURVE SMOOTH",
"29.167 37.333 OFFCURVE",
"20.333 33.667 OFFCURVE",
"11 35 CURVE SMOOTH",
"-20 38 LINE",
"-20 0 LINE",
"166 0 LINE",
"166 38 LINE",
"115 35 LINE SMOOTH",
"101.667 34.333 OFFCURVE",
"95 39 OFFCURVE",
"95 49 CURVE SMOOTH",
"95 57.667 OFFCURVE",
"99.667 70.667 OFFCURVE",
"109 88 CURVE SMOOTH",
"167 186 LINE",
"397 186 LINE",
"421 60 LINE SMOOTH",
"423.667 46.667 OFFCURVE",
"415 33.667 OFFCURVE",
"399 35 CURVE SMOOTH",
"342 38 LINE",
"342 0 LINE",
"711 0 LINE SMOOTH",
"748.333 0 OFFCURVE",
"780 -1 OFFCURVE",
"806 -3 CURVE"
);
},
{
closed = 1;
nodes = (
"189 221 LINE",
"343 473 LINE",
"390 221 LINE",
"189 221 LINE"
);
}
);
userData = {
assembly = "NPUSHB[ ]	/* 14 values pushed */
45 1 6 7 1 74 60 1 14 72 26 1 8 71 
MPPEM[ ]	/* MeasurePixelPerEm */
PUSHB[ ]	/* 1 value pushed */
10 
LT[ ]	/* LessThan */
IF[ ]	/* If */
NPUSHB[ ]	/* 65 values pushed */
0 0 1 3 1 0 112 0 7 4 6 4 7 6 126 0 2 0 5 15 2 5 103 0 15 4 4 15 85 13 1 1 1 14 93 0 14 14 17 75 10 1 4 4 3 93 0 3 3 20 75 11 9 2 6 6 8 93 12 1 8 8 21 8 76 
ELSE[ ]	/* Else */
MPPEM[ ]	/* MeasurePixelPerEm */
PUSHB[ ]	/* 1 value pushed */
12 
LT[ ]	/* LessThan */
IF[ ]	/* If */
NPUSHB[ ]	/* 67 values pushed */
0 0 1 3 1 0 3 126 0 7 10 6 10 7 6 126 0 2 0 5 15 2 5 103 0 15 0 10 7 15 10 101 13 1 1 1 14 93 0 14 14 17 75 0 4 4 3 93 0 3 3 20 75 11 9 2 6 6 8 93 12 1 8 8 21 8 76 
ELSE[ ]	/* Else */
MPPEM[ ]	/* MeasurePixelPerEm */
PUSHB[ ]	/* 1 value pushed */
45 
LT[ ]	/* LessThan */
IF[ ]	/* If */
NPUSHB[ ]	/* 66 values pushed */
0 0 1 3 1 0 3 126 0 7 4 6 4 7 6 126 0 2 0 5 15 2 5 103 0 15 4 4 15 85 13 1 1 1 14 93 0 14 14 17 75 10 1 4 4 3 93 0 3 3 20 75 11 9 2 6 6 8 93 12 1 8 8 21 8 76 
ELSE[ ]	/* Else */
NPUSHB[ ]	/* 67 values pushed */
0 0 1 3 1 0 3 126 0 7 10 6 10 7 6 126 0 2 0 5 15 2 5 103 0 15 0 10 7 15 10 101 13 1 1 1 14 93 0 14 14 17 75 0 4 4 3 93 0 3 3 20 75 11 9 2 6 6 8 93 12 1 8 8 21 8 76 
EIF[ ]	/* EndIf */
EIF[ ]	/* EndIf */
EIF[ ]	/* EndIf */
NPUSHB[ ]	/* 26 values pushed */
63 62 59 57 56 54 44 43 42 40 36 35 31 30 34 18 50 34 17 18 33 34 16 16 7 29 
CALL[ ]	/* CallFunction */";
};
width = 850;
},
{
anchors = (
{
name = top;
position = "{463, 597}";
}
);
layerId = "8FAB7A87-DBD6-41A5-8B85-4E9492F941D1";
paths = (
{
closed = 1;
nodes = (
"802 171 LINE",
"778 171 LINE",
"778.667 72.333 OFFCURVE",
"731.667 23.333 OFFCURVE",
"637 24 CURVE SMOOTH",
"561 24 LINE SMOOTH",
"550.333 24 OFFCURVE",
"543.333 30.333 OFFCURVE",
"540 43 CURVE SMOOTH",
"491 301 LINE",
"580 301 LINE SMOOTH",
"625.333 301 OFFCURVE",
"656 258.333 OFFCURVE",
"656 197 CURVE",
"679 197 LINE",
"679 426 LINE",
"657 426 LINE",
"657 366 OFFCURVE",
"625 324 OFFCURVE",
"581 324 CURVE SMOOTH",
"488 324 LINE",
"442 572 LINE",
"617 572 LINE SMOOTH",
"714.333 572 OFFCURVE",
"759 531 OFFCURVE",
"759 443 CURVE",
"782 443 LINE",
"782 599 LINE",
"773.333 597.667 OFFCURVE",
"763 597 OFFCURVE",
"751 597 CURVE SMOOTH",
"288 597 LINE",
"288 568 LINE",
"339 570 LINE SMOOTH",
"348.333 570 OFFCURVE",
"356 563.333 OFFCURVE",
"356 554 CURVE SMOOTH",
"356 550.667 OFFCURVE",
"355.333 548 OFFCURVE",
"354 546 CURVE SMOOTH",
"71 82 LINE SMOOTH",
"56.333 59.333 OFFCURVE",
"44.833 43.5 OFFCURVE",
"36.5 34.5 CURVE SMOOTH",
"28.167 25.5 OFFCURVE",
"19.667 21.667 OFFCURVE",
"11 23 CURVE SMOOTH",
"-20 26 LINE",
"-20 0 LINE",
"150 0 LINE",
"150 26 LINE",
"99 23 LINE SMOOTH",
"85.667 22.333 OFFCURVE",
"79 27.667 OFFCURVE",
"79 39 CURVE SMOOTH",
"79 46.333 OFFCURVE",
"83.667 58.667 OFFCURVE",
"93 76 CURVE SMOOTH",
"177 218 LINE",
"430 218 LINE",
"461 48 LINE SMOOTH",
"463.667 34.667 OFFCURVE",
"455 21.667 OFFCURVE",
"439 23 CURVE SMOOTH",
"382 26 LINE",
"382 0 LINE",
"717 0 LINE SMOOTH",
"750.333 0 OFFCURVE",
"778.667 -1 OFFCURVE",
"802 -3 CURVE"
);
},
{
closed = 1;
nodes = (
"190 243 LINE",
"370 534 LINE",
"425 243 LINE",
"190 243 LINE"
);
}
);
userData = {
assembly = "NPUSHB[ ]	/* 14 values pushed */
44 1 6 7 1 74 59 1 14 72 25 1 8 71 
MPPEM[ ]	/* MeasurePixelPerEm */
PUSHB[ ]	/* 1 value pushed */
10 
LT[ ]	/* LessThan */
IF[ ]	/* If */
NPUSHB[ ]	/* 66 values pushed */
0 0 1 3 1 0 112 0 7 4 6 4 7 6 126 0 2 0 5 15 2 5 101 0 15 0 10 4 15 10 101 13 1 1 1 14 93 0 14 14 17 75 0 4 4 3 93 0 3 3 20 75 11 9 2 6 6 8 93 12 1 8 8 21 8 76 
ELSE[ ]	/* Else */
NPUSHB[ ]	/* 67 values pushed */
0 0 1 3 1 0 3 126 0 7 4 6 4 7 6 126 0 2 0 5 15 2 5 101 0 15 0 10 4 15 10 101 13 1 1 1 14 93 0 14 14 17 75 0 4 4 3 93 0 3 3 20 75 11 9 2 6 6 8 93 12 1 8 8 21 8 76 
EIF[ ]	/* EndIf */
NPUSHB[ ]	/* 26 values pushed */
62 61 58 56 55 53 43 42 41 39 35 34 30 29 34 17 50 34 17 18 33 34 16 16 7 29 
CALL[ ]	/* CallFunction */";
};
width = 846;
}
);
leftKerningGroup = A;
note = AE;
unicode = 00C6;
},
{
glyphname = B;
layers = (
{
background = {
paths = (
{
closed = 1;
nodes = (
"50 597 LINE",
"50 567 LINE",
"101 569 LINE",
"109 569 OFFCURVE",
"118 556 OFFCURVE",
"118 549 QCURVE SMOOTH",
"118 49 LINE SMOOTH",
"118 27 OFFCURVE",
"100 27 QCURVE",
"50 29 LINE",
"50 0 LINE",
"312 0 LINE SMOOTH",
"533 0 OFFCURVE",
"533 162 QCURVE SMOOTH",
"533 206 OFFCURVE",
"487 277 OFFCURVE",
"409 317 OFFCURVE",
"362 317 QCURVE",
"425 328 OFFCURVE",
"500 401 OFFCURVE",
"500 454 QCURVE SMOOTH",
"500 525 OFFCURVE",
"412 597 OFFCURVE",
"327 597 QCURVE SMOOTH"
);
},
{
closed = 1;
nodes = (
"281 569 LINE SMOOTH",
"340 569 OFFCURVE",
"405 507 OFFCURVE",
"405 453 QCURVE SMOOTH",
"405 327 OFFCURVE",
"287 327 QCURVE SMOOTH",
"211 327 LINE",
"211 557 LINE",
"213 569 OFFCURVE",
"223 569 QCURVE SMOOTH"
);
},
{
closed = 1;
nodes = (
"314 299 LINE SMOOTH",
"436 299 OFFCURVE",
"436 162 QCURVE SMOOTH",
"436 100 OFFCURVE",
"359 28 OFFCURVE",
"295 28 QCURVE SMOOTH",
"225 28 LINE SMOOTH",
"211 28 OFFCURVE",
"211 41 QCURVE SMOOTH",
"211 299 LINE"
);
}
);
};
layerId = "3A4136D0-3900-4A7F-B896-13EBFCDD931C";
paths = (
{
closed = 1;
nodes = (
"50 0 LINE",
"312 0 LINE SMOOTH",
"459.333 0 OFFCURVE",
"533 54 OFFCURVE",
"533 162 CURVE SMOOTH",
"533 247.222 OFFCURVE",
"461.969 317 OFFCURVE",
"362 317 CURVE",
"446 331.667 OFFCURVE",
"500 383.333 OFFCURVE",
"500 454 CURVE SMOOTH",
"500 548.667 OFFCURVE",
"440.333 597 OFFCURVE",
"327 597 CURVE SMOOTH",
"50 597 LINE",
"50 567 LINE",
"101 569 LINE SMOOTH",
"111.667 569 OFFCURVE",
"118 558.333 OFFCURVE",
"118 549 CURVE SMOOTH",
"118 49 LINE SMOOTH",
"118 34.333 OFFCURVE",
"112 27 OFFCURVE",
"100 27 CURVE SMOOTH",
"50 29 LINE",
"50 0 LINE"
);
},
{
closed = 1;
nodes = (
"225 28 LINE",
"215.667 28 OFFCURVE",
"211 32.333 OFFCURVE",
"211 41 CURVE SMOOTH",
"211 299 LINE",
"314 299 LINE SMOOTH",
"395.333 299 OFFCURVE",
"436 253.333 OFFCURVE",
"436 162 CURVE SMOOTH",
"436 79.333 OFFCURVE",
"380.333 28 OFFCURVE",
"295 28 CURVE SMOOTH",
"225 28 LINE"
);
},
{
closed = 1;
nodes = (
"211 327 LINE",
"211 557 LINE",
"212.333 565 OFFCURVE",
"216.333 569 OFFCURVE",
"223 569 CURVE SMOOTH",
"281 569 LINE SMOOTH",
"361.667 569 OFFCURVE",
"403 530.333 OFFCURVE",
"405 453 CURVE SMOOTH",
"407 369 OFFCURVE",
"367.667 327 OFFCURVE",
"287 327 CURVE SMOOTH",
"211 327 LINE"
);
}
);
userData = {
assembly = "NPUSHB[ ]	/* 77 values pushed */
26 17 2 6 3 1 74 0 0 6 8 6 0 112 0 6 11 1 8 2 6 8 101 10 5 2 3 3 4 93 9 1 4 4 17 75 7 1 2 2 1 93 0 1 1 21 1 76 34 34 25 24 0 0 34 43 34 42 39 36 29 27 24 33 25 32 0 23 0 22 36 33 36 21 12 7 24 
CALL[ ]	/* CallFunction */";
};
width = 573;
},
{
background = {
paths = (
{
closed = 1;
nodes = (
"39 597 LINE",
"39 560 LINE",
"86 562 LINE",
"94 562 OFFCURVE",
"103 549 OFFCURVE",
"103 542 QCURVE SMOOTH",
"103 57 LINE SMOOTH",
"103 35 OFFCURVE",
"87 35 QCURVE",
"39 37 LINE",
"39 0 LINE",
"335 0 LINE SMOOTH",
"556 0 OFFCURVE",
"556 162 QCURVE SMOOTH",
"556 206 OFFCURVE",
"510 277 OFFCURVE",
"432 317 OFFCURVE",
"385 317 QCURVE",
"448 328 OFFCURVE",
"523 401 OFFCURVE",
"523 454 QCURVE SMOOTH",
"523 525 OFFCURVE",
"435 597 OFFCURVE",
"350 597 QCURVE SMOOTH"
);
},
{
closed = 1;
nodes = (
"291 562 LINE SMOOTH",
"383 562 OFFCURVE",
"383 449 QCURVE SMOOTH",
"383 386 OFFCURVE",
"339 329 OFFCURVE",
"293 329 QCURVE SMOOTH",
"241 329 LINE",
"241 550 LINE",
"243 562 OFFCURVE",
"253 562 QCURVE SMOOTH"
);
},
{
closed = 1;
nodes = (
"317 294 LINE SMOOTH",
"366 294 OFFCURVE",
"414 232 OFFCURVE",
"414 164 QCURVE SMOOTH",
"414 100 OFFCURVE",
"355 36 OFFCURVE",
"304 36 QCURVE SMOOTH",
"255 36 LINE SMOOTH",
"241 36 OFFCURVE",
"241 49 QCURVE SMOOTH",
"241 294 LINE"
);
}
);
};
layerId = "A0AC7266-FF1C-4B13-9E61-C3CFB2289D5A";
paths = (
{
closed = 1;
nodes = (
"39 0 LINE",
"335 0 LINE SMOOTH",
"482.333 0 OFFCURVE",
"556 54 OFFCURVE",
"556 162 CURVE SMOOTH",
"556 247.222 OFFCURVE",
"484.969 317 OFFCURVE",
"385 317 CURVE",
"469 331.667 OFFCURVE",
"523 383.333 OFFCURVE",
"523 454 CURVE SMOOTH",
"523 548.667 OFFCURVE",
"463.333 597 OFFCURVE",
"350 597 CURVE SMOOTH",
"39 597 LINE",
"39 560 LINE",
"86 562 LINE SMOOTH",
"96.667 562 OFFCURVE",
"103 551.333 OFFCURVE",
"103 542 CURVE SMOOTH",
"103 57 LINE SMOOTH",
"103 42.333 OFFCURVE",
"97.667 35 OFFCURVE",
"87 35 CURVE SMOOTH",
"39 37 LINE",
"39 0 LINE"
);
},
{
closed = 1;
nodes = (
"255 36 LINE",
"245.667 36 OFFCURVE",
"241 40.333 OFFCURVE",
"241 49 CURVE SMOOTH",
"241 294 LINE",
"317 294 LINE SMOOTH",
"381.667 294 OFFCURVE",
"414 250.667 OFFCURVE",
"414 164 CURVE SMOOTH",
"414 78.667 OFFCURVE",
"372 36 OFFCURVE",
"304 36 CURVE SMOOTH",
"255 36 LINE"
);
},
{
closed = 1;
nodes = (
"241 329 LINE",
"241 550 LINE",
"242.333 558 OFFCURVE",
"246.333 562 OFFCURVE",
"253 562 CURVE SMOOTH",
"291 562 LINE SMOOTH",
"352.333 562 OFFCURVE",
"383 524.333 OFFCURVE",
"383 449 CURVE SMOOTH",
"383 369 OFFCURVE",
"353 329 OFFCURVE",
"293 329 CURVE SMOOTH",
"241 329 LINE"
);
}
);
userData = {
assembly = "NPUSHB[ ]	/* 78 values pushed */
26 17 2 6 3 1 74 0 0 6 8 6 0 8 126 0 6 11 1 8 2 6 8 101 10 5 2 3 3 4 93 9 1 4 4 17 75 7 1 2 2 1 94 0 1 1 21 1 76 34 34 25 24 0 0 34 44 34 43 39 36 29 27 24 33 25 32 0 23 0 22 36 33 36 21 12 7 24 
CALL[ ]	/* CallFunction */";
};
width = 581;
},
{
layerId = "8FAB7A87-DBD6-41A5-8B85-4E9492F941D1";
paths = (
{
closed = 1;
nodes = (
"55 0 LINE",
"302 0 LINE SMOOTH",
"449.333 0 OFFCURVE",
"523 54 OFFCURVE",
"523 162 CURVE SMOOTH",
"523 247.246 OFFCURVE",
"451.579 317 OFFCURVE",
"352 317 CURVE",
"436 331.667 OFFCURVE",
"490 383.333 OFFCURVE",
"490 454 CURVE SMOOTH",
"490 548.667 OFFCURVE",
"430.333 597 OFFCURVE",
"317 597 CURVE SMOOTH",
"55 597 LINE",
"55 570 LINE",
"108 572 LINE SMOOTH",
"118.667 572 OFFCURVE",
"125 561.333 OFFCURVE",
"125 552 CURVE SMOOTH",
"125 45 LINE SMOOTH",
"125 30.333 OFFCURVE",
"118.667 23 OFFCURVE",
"106 23 CURVE SMOOTH",
"55 25 LINE",
"55 0 LINE"
);
},
{
closed = 1;
nodes = (
"212 24 LINE",
"202.667 24 OFFCURVE",
"198 28.333 OFFCURVE",
"198 37 CURVE SMOOTH",
"198 301 LINE",
"313 301 LINE SMOOTH",
"401.667 301 OFFCURVE",
"446 254.333 OFFCURVE",
"446 161 CURVE SMOOTH",
"446 79.667 OFFCURVE",
"384.333 24 OFFCURVE",
"291 24 CURVE SMOOTH",
"212 24 LINE"
);
},
{
closed = 1;
nodes = (
"198 326 LINE",
"198 560 LINE",
"199.333 568 OFFCURVE",
"203.333 572 OFFCURVE",
"210 572 CURVE SMOOTH",
"277 572 LINE SMOOTH",
"365.667 572 OFFCURVE",
"411.667 533 OFFCURVE",
"415 455 CURVE SMOOTH",
"417.667 369.667 OFFCURVE",
"374 326.667 OFFCURVE",
"284 326 CURVE SMOOTH",
"198 326 LINE"
);
}
);
userData = {
assembly = "NPUSHB[ ]	/* 77 values pushed */
26 17 2 6 3 1 74 0 0 6 8 6 0 112 0 6 11 1 8 2 6 8 101 10 5 2 3 3 4 93 9 1 4 4 17 75 7 1 2 2 1 93 0 1 1 21 1 76 34 34 25 24 0 0 34 43 34 42 39 36 29 27 24 33 25 32 0 23 0 22 36 33 36 21 12 7 24 
CALL[ ]	/* CallFunction */";
};
width = 569;
}
);
note = B;
rightKerningGroup = B;
unicode = 0042;
},
{
glyphname = C;
layers = (
{
anchors = (
{
name = bottom;
position = "{321, 0}";
},
{
name = top;
position = "{328, 597}";
}
);
background = {
paths = (
{
closed = 1;
nodes = (
"45 201 OFFCURVE",
"117 64 OFFCURVE",
"250 -10 OFFCURVE",
"340 -10 QCURVE SMOOTH",
"373 -10 OFFCURVE",
"435 4 OFFCURVE",
"473 17 QCURVE",
"478 18 OFFCURVE",
"501 26 OFFCURVE",
"539 35 OFFCURVE",
"553 35 QCURVE SMOOTH",
"559 35 LINE",
"556 53 OFFCURVE",
"556 82 QCURVE SMOOTH",
"556 120 OFFCURVE",
"562 167 QCURVE",
"534 167 LINE",
"520 102 OFFCURVE",
"414 17 OFFCURVE",
"345 17 QCURVE SMOOTH",
"286 17 OFFCURVE",
"196 87 OFFCURVE",
"147 214 OFFCURVE",
"147 295 QCURVE SMOOTH",
"147 381 OFFCURVE",
"194 511 OFFCURVE",
"281 582 OFFCURVE",
"340 582 QCURVE SMOOTH",
"384 582 OFFCURVE",
"464 542 OFFCURVE",
"520 474 OFFCURVE",
"529 433 QCURVE",
"553 433 LINE",
"551 435 OFFCURVE",
"549 468 OFFCURVE",
"549 489 QCURVE SMOOTH",
"549 533 OFFCURVE",
"553 564 QCURVE",
"529 564 OFFCURVE",
"492 574 OFFCURVE",
"467 583 QCURVE SMOOTH",
"431 595 OFFCURVE",
"382 607 OFFCURVE",
"345 607 QCURVE SMOOTH",
"204 607 OFFCURVE",
"45 442 OFFCURVE",
"45 295 QCURVE SMOOTH"
);
}
);
};
layerId = "3A4136D0-3900-4A7F-B896-13EBFCDD931C";
paths = (
{
closed = 1;
nodes = (
"384 -10 OFFCURVE",
"422.333 -0.333 OFFCURVE",
"473 17 CURVE SMOOTH",
"510.333 29 OFFCURVE",
"534.333 35 OFFCURVE",
"553 35 CURVE SMOOTH",
"559 35 LINE",
"557 47 OFFCURVE",
"556 62.667 OFFCURVE",
"556 82 CURVE SMOOTH",
"556 107.333 OFFCURVE",
"558 135.667 OFFCURVE",
"562 167 CURVE",
"534 167 LINE",
"515.333 80.333 OFFCURVE",
"437 17 OFFCURVE",
"345 17 CURVE SMOOTH",
"223.667 17 OFFCURVE",
"147 136.333 OFFCURVE",
"147 295 CURVE SMOOTH",
"147 467 OFFCURVE",
"221.333 582 OFFCURVE",
"340 582 CURVE SMOOTH",
"434.667 582 OFFCURVE",
"517 505 OFFCURVE",
"529 433 CURVE",
"553 433 LINE",
"551.667 434.333 OFFCURVE",
"550.667 440.5 OFFCURVE",
"550 451.5 CURVE SMOOTH",
"549.333 462.5 OFFCURVE",
"549 475 OFFCURVE",
"549 489 CURVE SMOOTH",
"549 518.333 OFFCURVE",
"550.333 543.333 OFFCURVE",
"553 564 CURVE",
"521 564 OFFCURVE",
"500.333 571 OFFCURVE",
"467 583 CURVE SMOOTH",
"419 599 OFFCURVE",
"394.333 607 OFFCURVE",
"345 607 CURVE SMOOTH",
"157 607 OFFCURVE",
"45 491 OFFCURVE",
"45 295 CURVE SMOOTH",
"45 102.609 OFFCURVE",
"162.414 -10 OFFCURVE",
"340 -10 CURVE SMOOTH"
);
}
);
userData = {
assembly = "NPUSHB[ ]	/* 47 values pushed */
0 1 2 4 2 1 4 126 0 4 0 5 3 4 5 103 0 2 2 0 95 0 0 0 25 75 0 3 3 6 95 0 6 6 26 6 76 37 36 18 38 41 20 33 7 7 27 
CALL[ ]	/* CallFunction */";
};
width = 607;
},
{
anchors = (
{
name = bottom;
position = "{324, 0}";
},
{
name = top;
position = "{331, 597}";
}
);
background = {
paths = (
{
closed = 1;
nodes = (
"30 201 OFFCURVE",
"104 64 OFFCURVE",
"242 -10 OFFCURVE",
"336 -10 QCURVE SMOOTH",
"369 -10 OFFCURVE",
"424 3 OFFCURVE",
"469 16 QCURVE SMOOTH",
"500 26 OFFCURVE",
"539 35 OFFCURVE",
"557 35 QCURVE SMOOTH",
"563 35 LINE",
"560 53 OFFCURVE",
"560 82 QCURVE SMOOTH",
"560 118 OFFCURVE",
"566 167 QCURVE",
"530 167 LINE",
"517 106 OFFCURVE",
"422 25 OFFCURVE",
"359 25 QCURVE SMOOTH",
"277 25 OFFCURVE",
"181 166 OFFCURVE",
"181 295 QCURVE SMOOTH",
"181 430 OFFCURVE",
"272 575 OFFCURVE",
"355 575 QCURVE SMOOTH",
"415 575 OFFCURVE",
"513 492 OFFCURVE",
"525 433 QCURVE",
"557 433 LINE",
"555 435 OFFCURVE",
"553 468 OFFCURVE",
"553 489 QCURVE SMOOTH",
"553 533 OFFCURVE",
"557 564 QCURVE",
"534 564 OFFCURVE",
"496 573 OFFCURVE",
"470 583 QCURVE",
"433 595 OFFCURVE",
"381 607 OFFCURVE",
"341 607 QCURVE SMOOTH",
"195 607 OFFCURVE",
"30 443 OFFCURVE",
"30 295 QCURVE SMOOTH"
);
}
);
};
layerId = "A0AC7266-FF1C-4B13-9E61-C3CFB2289D5A";
paths = (
{
closed = 1;
nodes = (
"380 -10 OFFCURVE",
"409 -1.333 OFFCURVE",
"469 16 CURVE SMOOTH",
"510.333 29.333 OFFCURVE",
"533 35 OFFCURVE",
"557 35 CURVE SMOOTH",
"563 35 LINE",
"561 47 OFFCURVE",
"560 62.667 OFFCURVE",
"560 82 CURVE SMOOTH",
"560 106 OFFCURVE",
"562 134.333 OFFCURVE",
"566 167 CURVE",
"530 167 LINE",
"512.667 85.667 OFFCURVE",
"443 25 OFFCURVE",
"359 25 CURVE SMOOTH",
"249.667 25 OFFCURVE",
"181 123 OFFCURVE",
"181 295 CURVE SMOOTH",
"181 475 OFFCURVE",
"244.333 575 OFFCURVE",
"355 575 CURVE SMOOTH",
"435 575 OFFCURVE",
"509 511.667 OFFCURVE",
"525 433 CURVE",
"557 433 LINE",
"555.667 434.333 OFFCURVE",
"554.667 440.5 OFFCURVE",
"554 451.5 CURVE SMOOTH",
"553.333 462.5 OFFCURVE",
"553 475 OFFCURVE",
"553 489 CURVE SMOOTH",
"553 518.333 OFFCURVE",
"554.333 543.333 OFFCURVE",
"557 564 CURVE",
"526.333 564 OFFCURVE",
"504.667 569.667 OFFCURVE",
"470 583 CURVE SMOOTH",
"420.667 599 OFFCURVE",
"394.333 607 OFFCURVE",
"341 607 CURVE SMOOTH",
"146.333 607 OFFCURVE",
"30 492.333 OFFCURVE",
"30 295 CURVE SMOOTH",
"30 102.62 OFFCURVE",
"150.459 -10 OFFCURVE",
"336 -10 CURVE SMOOTH"
);
}
);
userData = {
assembly = "NPUSHB[ ]	/* 48 values pushed */
0 1 0 2 5 1 2 103 0 5 0 6 4 5 6 103 0 3 3 0 95 0 0 0 25 75 0 4 4 7 95 0 7 7 26 7 76 36 36 18 36 34 36 20 33 8 7 28 
CALL[ ]	/* CallFunction */";
};
width = 596;
},
{
anchors = (
{
name = bottom;
position = "{320, 0}";
},
{
name = top;
position = "{327, 597}";
}
);
layerId = "8FAB7A87-DBD6-41A5-8B85-4E9492F941D1";
paths = (
{
closed = 1;
nodes = (
"386 -10 OFFCURVE",
"428.333 -0.333 OFFCURVE",
"475 17 CURVE SMOOTH",
"511 29 OFFCURVE",
"535 35 OFFCURVE",
"551 35 CURVE SMOOTH",
"557 35 LINE",
"555 47 OFFCURVE",
"554 62.667 OFFCURVE",
"554 82 CURVE SMOOTH",
"554 108 OFFCURVE",
"556 136.333 OFFCURVE",
"560 167 CURVE",
"536 167 LINE",
"517.333 79 OFFCURVE",
"433.667 13 OFFCURVE",
"339 13 CURVE SMOOTH",
"212.333 13 OFFCURVE",
"132 141.667 OFFCURVE",
"132 295 CURVE SMOOTH",
"132 463 OFFCURVE",
"211.667 585 OFFCURVE",
"333 585 CURVE SMOOTH",
"434.333 585 OFFCURVE",
"520.333 503.667 OFFCURVE",
"531 433 CURVE",
"551 433 LINE",
"549.667 434.333 OFFCURVE",
"548.667 440.5 OFFCURVE",
"548 451.5 CURVE SMOOTH",
"547.333 462.5 OFFCURVE",
"547 475 OFFCURVE",
"547 489 CURVE SMOOTH",
"547 518.333 OFFCURVE",
"548.333 543.333 OFFCURVE",
"551 564 CURVE",
"519 564 OFFCURVE",
"496.667 572.333 OFFCURVE",
"466 583 CURVE SMOOTH",
"418 599 OFFCURVE",
"393.667 607 OFFCURVE",
"347 607 CURVE SMOOTH",
"161.667 607 OFFCURVE",
"52 491 OFFCURVE",
"52 295 CURVE SMOOTH",
"52 102.735 OFFCURVE",
"168.116 -10 OFFCURVE",
"342 -10 CURVE SMOOTH"
);
}
);
userData = {
assembly = "NPUSHB[ ]	/* 47 values pushed */
0 1 2 4 2 1 4 126 0 4 0 5 3 4 5 103 0 2 2 0 95 0 0 0 25 75 0 3 3 6 95 0 6 6 26 6 76 37 36 18 38 41 20 33 7 7 27 
CALL[ ]	/* CallFunction */";
};
width = 612;
}
);
leftKerningGroup = C;
note = C;
unicode = 0043;
},
{
glyphname = D;
layers = (
{
anchors = (
{
name = center;
position = "{207, 300}";
},
{
name = top;
position = "{317, 597}";
}
);
layerId = "3A4136D0-3900-4A7F-B896-13EBFCDD931C";
paths = (
{
closed = 1;
nodes = (
"50 0 LINE",
"287 0 LINE SMOOTH",
"487.667 0 OFFCURVE",
"588 99.667 OFFCURVE",
"588 299 CURVE SMOOTH",
"588 511 OFFCURVE",
"488.333 597 OFFCURVE",
"275 597 CURVE SMOOTH",
"50 597 LINE",
"50 567 LINE",
"89 569 LINE SMOOTH",
"101 569 OFFCURVE",
"108 560 OFFCURVE",
"108 548 CURVE SMOOTH",
"108 49 LINE SMOOTH",
"108 34.333 OFFCURVE",
"103 27 OFFCURVE",
"93 27 CURVE SMOOTH",
"50 29 LINE",
"50 0 LINE"
);
},
{
closed = 1;
nodes = (
"213 28 LINE",
"205 28 OFFCURVE",
"201 32.333 OFFCURVE",
"201 41 CURVE SMOOTH",
"201 556 LINE SMOOTH",
"201 564.667 OFFCURVE",
"205 569 OFFCURVE",
"213 569 CURVE SMOOTH",
"258 569 LINE SMOOTH",
"368.667 569 OFFCURVE",
"433.5 534.667 OFFCURVE",
"463.5 456 CURVE SMOOTH",
"478.5 416.667 OFFCURVE",
"486 364 OFFCURVE",
"486 298 CURVE SMOOTH",
"486 166 OFFCURVE",
"457.5 89.833 OFFCURVE",
"391.5 54.5 CURVE SMOOTH",
"358.5 36.833 OFFCURVE",
"314 28 OFFCURVE",
"258 28 CURVE SMOOTH",
"213 28 LINE"
);
}
);
userData = {
assembly = "NPUSHB[ ]	/* 32 values pushed */
5 1 1 1 2 93 0 2 2 17 75 4 1 0 0 3 93 0 3 3 21 3 76 54 49 35 33 36 32 6 7 26 
CALL[ ]	/* CallFunction */";
};
width = 623;
},
{
anchors = (
{
name = center;
position = "{203, 300}";
},
{
name = top;
position = "{325, 597}";
}
);
background = {
paths = (
{
closed = 1;
nodes = (
"39 0 LINE",
"295 0 LINE SMOOTH",
"454 0 OFFCURVE",
"607 151 OFFCURVE",
"607 299 QCURVE SMOOTH",
"607 459 OFFCURVE",
"450 597 OFFCURVE",
"283 597 QCURVE SMOOTH",
"39 597 LINE",
"39 560 LINE",
"74 562 LINE",
"83 562 OFFCURVE",
"93 550 OFFCURVE",
"93 541 QCURVE SMOOTH",
"93 57 LINE SMOOTH",
"93 48 OFFCURVE",
"86 35 OFFCURVE",
"79 35 QCURVE SMOOTH",
"78 35 LINE",
"39 37 LINE"
);
},
{
closed = 1;
nodes = (
"231 549 LINE SMOOTH",
"231 562 OFFCURVE",
"243 562 QCURVE SMOOTH",
"266 562 LINE SMOOTH",
"338 562 OFFCURVE",
"419 517 OFFCURVE",
"456 403 OFFCURVE",
"456 298 QCURVE SMOOTH",
"456 192 OFFCURVE",
"419 80 OFFCURVE",
"338 36 OFFCURVE",
"266 36 QCURVE SMOOTH",
"243 36 LINE SMOOTH",
"231 36 OFFCURVE",
"231 49 QCURVE SMOOTH"
);
}
);
};
layerId = "A0AC7266-FF1C-4B13-9E61-C3CFB2289D5A";
paths = (
{
closed = 1;
nodes = (
"39 0 LINE",
"295 0 LINE SMOOTH",
"503 0 OFFCURVE",
"607 99.667 OFFCURVE",
"607 299 CURVE SMOOTH",
"607 513.667 OFFCURVE",
"505.667 597 OFFCURVE",
"283 597 CURVE SMOOTH",
"39 597 LINE",
"39 560 LINE",
"74 562 LINE SMOOTH",
"86 562 OFFCURVE",
"93 553 OFFCURVE",
"93 541 CURVE SMOOTH",
"93 57 LINE SMOOTH",
"93 41.667 OFFCURVE",
"88.333 34.333 OFFCURVE",
"79 35 CURVE SMOOTH",
"39 37 LINE",
"39 0 LINE"
);
},
{
closed = 1;
nodes = (
"243 36 LINE",
"235 36 OFFCURVE",
"231 40.333 OFFCURVE",
"231 49 CURVE SMOOTH",
"231 549 LINE SMOOTH",
"231 557.667 OFFCURVE",
"235 562 OFFCURVE",
"243 562 CURVE SMOOTH",
"266 562 LINE SMOOTH",
"362 562 OFFCURVE",
"412.833 536 OFFCURVE",
"437.5 460 CURVE SMOOTH",
"449.833 422 OFFCURVE",
"456 368 OFFCURVE",
"456 298 CURVE SMOOTH",
"456 156.667 OFFCURVE",
"432.5 87.333 OFFCURVE",
"378.5 58 CURVE SMOOTH",
"351.5 43.333 OFFCURVE",
"314 36 OFFCURVE",
"266 36 CURVE SMOOTH",
"243 36 LINE"
);
}
);
userData = {
assembly = "NPUSHB[ ]	/* 32 values pushed */
5 1 1 1 2 93 0 2 2 17 75 4 1 0 0 3 93 0 3 3 21 3 76 54 49 36 33 39 16 6 7 26 
CALL[ ]	/* CallFunction */";
};
width = 634;
},
{
anchors = (
{
name = center;
position = "{209, 300}";
},
{
name = top;
position = "{313, 597}";
}
);
layerId = "8FAB7A87-DBD6-41A5-8B85-4E9492F941D1";
paths = (
{
closed = 1;
nodes = (
"55 0 LINE",
"283 0 LINE SMOOTH",
"481 0 OFFCURVE",
"580 99.667 OFFCURVE",
"580 299 CURVE SMOOTH",
"580 509.667 OFFCURVE",
"480.333 597 OFFCURVE",
"271 597 CURVE SMOOTH",
"55 597 LINE",
"55 570 LINE",
"96 572 LINE SMOOTH",
"108 572 OFFCURVE",
"115 563 OFFCURVE",
"115 551 CURVE SMOOTH",
"115 45 LINE SMOOTH",
"115 31 OFFCURVE",
"109.667 23.667 OFFCURVE",
"99 23 CURVE",
"55 25 LINE",
"55 0 LINE"
);
},
{
closed = 1;
nodes = (
"200 24 LINE",
"192 24 OFFCURVE",
"188 28.333 OFFCURVE",
"188 37 CURVE SMOOTH",
"188 559 LINE SMOOTH",
"188 567.667 OFFCURVE",
"192 572 OFFCURVE",
"200 572 CURVE SMOOTH",
"254 572 LINE SMOOTH",
"371.333 572 OFFCURVE",
"442.741 534.13 OFFCURVE",
"474.889 454.055 CURVE SMOOTH",
"490.963 414.019 OFFCURVE",
"499 362 OFFCURVE",
"499 298 CURVE SMOOTH",
"499 106.551 OFFCURVE",
"432.079 24 OFFCURVE",
"254 24 CURVE SMOOTH",
"200 24 LINE"
);
}
);
userData = {
assembly = "NPUSHB[ ]	/* 32 values pushed */
5 1 1 1 2 93 0 2 2 17 75 4 1 0 0 3 93 0 3 3 21 3 76 54 49 35 33 36 32 6 7 26 
CALL[ ]	/* CallFunction */";
};
width = 618;
}
);
note = D;
rightKerningGroup = D;
unicode = 0044;
},
{
glyphname = E;
layers = (
{
anchors = (
{
name = bottom;
position = "{291, 0}";
},
{
name = ogonek;
position = "{430, 0}";
},
{
name = top;
position = "{294, 597}";
}
);
layerId = "3A4136D0-3900-4A7F-B896-13EBFCDD931C";
paths = (
{
closed = 1;
nodes = (
"519 179 LINE",
"492 179 LINE",
"492 81.667 OFFCURVE",
"443.667 28 OFFCURVE",
"353 28 CURVE SMOOTH",
"213 28 LINE SMOOTH",
"205 28 OFFCURVE",
"201 32.333 OFFCURVE",
"201 41 CURVE SMOOTH",
"201 297 LINE",
"295 297 LINE SMOOTH",
"336.333 297 OFFCURVE",
"371 253.667 OFFCURVE",
"371 195 CURVE",
"398 195 LINE",
"398 426 LINE",
"371 426 LINE",
"371 363.333 OFFCURVE",
"340.333 325 OFFCURVE",
"295 325 CURVE SMOOTH",
"201 325 LINE",
"201 555 LINE SMOOTH",
"201 564.333 OFFCURVE",
"205 569 OFFCURVE",
"213 569 CURVE SMOOTH",
"320 569 LINE SMOOTH",
"420 569 OFFCURVE",
"462 532.333 OFFCURVE",
"462 443 CURVE",
"489 443 LINE",
"489 598 LINE",
"487 597.333 OFFCURVE",
"481.333 597 OFFCURVE",
"472 597 CURVE SMOOTH",
"50 597 LINE",
"50 567 LINE",
"88 569 LINE SMOOTH",
"100 570.333 OFFCURVE",
"108 560 OFFCURVE",
"108 548 CURVE SMOOTH",
"108 49 LINE SMOOTH",
"108 34.333 OFFCURVE",
"102 27 OFFCURVE",
"90 27 CURVE SMOOTH",
"50 30 LINE",
"50 0 LINE",
"431 0 LINE SMOOTH",
"475 0 OFFCURVE",
"504.333 -1 OFFCURVE",
"519 -3 CURVE"
);
}
);
userData = {
assembly = "NPUSHB[ ]	/* 10 values pushed */
0 1 0 10 1 74 41 1 11 71 
MPPEM[ ]	/* MeasurePixelPerEm */
PUSHB[ ]	/* 1 value pushed */
10 
LT[ ]	/* LessThan */
IF[ ]	/* If */
NPUSHB[ ]	/* 56 values pushed */
0 3 1 6 1 3 112 0 10 7 0 7 10 0 126 0 5 0 8 7 5 8 101 4 1 1 1 2 93 0 2 2 17 75 0 7 7 6 93 0 6 6 20 75 9 1 0 0 11 94 0 11 11 21 11 76 
ELSE[ ]	/* Else */
NPUSHB[ ]	/* 57 values pushed */
0 3 1 6 1 3 6 126 0 10 7 0 7 10 0 126 0 5 0 8 7 5 8 101 4 1 1 1 2 93 0 2 2 17 75 0 7 7 6 93 0 6 6 20 75 9 1 0 0 11 94 0 11 11 21 11 76 
EIF[ ]	/* EndIf */
NPUSHB[ ]	/* 18 values pushed */
44 42 40 39 37 34 34 17 18 34 50 18 33 21 17 12 7 29 
CALL[ ]	/* CallFunction */";
};
width = 563;
},
{
anchors = (
{
name = bottom;
position = "{290, 0}";
},
{
name = ogonek;
position = "{429, 0}";
},
{
name = top;
position = "{293, 597}";
}
);
layerId = "A0AC7266-FF1C-4B13-9E61-C3CFB2289D5A";
paths = (
{
closed = 1;
nodes = (
"527 179 LINE",
"492 179 LINE",
"492 87 OFFCURVE",
"443.667 36 OFFCURVE",
"353 36 CURVE SMOOTH",
"243 36 LINE SMOOTH",
"235 36 OFFCURVE",
"231 40.333 OFFCURVE",
"231 49 CURVE SMOOTH",
"231 290 LINE",
"303 290 LINE SMOOTH",
"344.333 290 OFFCURVE",
"379 247 OFFCURVE",
"379 191 CURVE",
"413 191 LINE",
"413 426 LINE",
"379 426 LINE",
"379 363.333 OFFCURVE",
"348.333 325 OFFCURVE",
"303 325 CURVE SMOOTH",
"231 325 LINE",
"231 548 LINE SMOOTH",
"231 557.333 OFFCURVE",
"235 562 OFFCURVE",
"243 562 CURVE SMOOTH",
"320 562 LINE SMOOTH",
"418.667 562 OFFCURVE",
"462 527 OFFCURVE",
"462 443 CURVE",
"497 443 LINE",
"497 598 LINE",
"495 597.333 OFFCURVE",
"489.333 597 OFFCURVE",
"480 597 CURVE SMOOTH",
"39 597 LINE",
"39 560 LINE",
"73 562 LINE SMOOTH",
"85 563.333 OFFCURVE",
"93 553 OFFCURVE",
"93 541 CURVE SMOOTH",
"93 57 LINE SMOOTH",
"93 42.333 OFFCURVE",
"87 35 OFFCURVE",
"75 35 CURVE SMOOTH",
"39 38 LINE",
"39 0 LINE",
"431 0 LINE SMOOTH",
"480.333 0 OFFCURVE",
"512.333 -1 OFFCURVE",
"527 -3 CURVE"
);
}
);
userData = {
assembly = "NPUSHB[ ]	/* 10 values pushed */
0 1 0 10 1 74 41 1 11 71 
MPPEM[ ]	/* MeasurePixelPerEm */
PUSHB[ ]	/* 1 value pushed */
10 
LT[ ]	/* LessThan */
IF[ ]	/* If */
NPUSHB[ ]	/* 56 values pushed */
0 3 1 6 1 3 112 0 10 7 0 7 10 0 126 0 5 0 8 7 5 8 101 4 1 1 1 2 93 0 2 2 17 75 0 7 7 6 93 0 6 6 20 75 9 1 0 0 11 94 0 11 11 21 11 76 
ELSE[ ]	/* Else */
NPUSHB[ ]	/* 57 values pushed */
0 3 1 6 1 3 6 126 0 10 7 0 7 10 0 126 0 5 0 8 7 5 8 101 4 1 1 1 2 93 0 2 2 17 75 0 7 7 6 93 0 6 6 20 75 9 1 0 0 11 94 0 11 11 21 11 76 
EIF[ ]	/* EndIf */
NPUSHB[ ]	/* 18 values pushed */
44 42 40 39 37 34 34 17 18 34 50 18 33 21 17 12 7 29 
CALL[ ]	/* CallFunction */";
};
width = 571;
},
{
anchors = (
{
name = bottom;
position = "{291, 0}";
},
{
name = ogonek;
position = "{430, 0}";
},
{
name = top;
position = "{294, 597}";
}
);
layerId = "8FAB7A87-DBD6-41A5-8B85-4E9492F941D1";
paths = (
{
closed = 1;
nodes = (
"515 179 LINE",
"492 179 LINE",
"492 79 OFFCURVE",
"443.667 24 OFFCURVE",
"353 24 CURVE SMOOTH",
"200 24 LINE SMOOTH",
"192 24 OFFCURVE",
"188 28.333 OFFCURVE",
"188 37 CURVE SMOOTH",
"188 300 LINE",
"291 300 LINE SMOOTH",
"332.333 300 OFFCURVE",
"367 257 OFFCURVE",
"367 197 CURVE",
"391 197 LINE",
"391 426 LINE",
"367 426 LINE",
"367 363.333 OFFCURVE",
"336.333 325 OFFCURVE",
"291 325 CURVE SMOOTH",
"188 325 LINE",
"188 558 LINE SMOOTH",
"188 567.333 OFFCURVE",
"192 572 OFFCURVE",
"200 572 CURVE SMOOTH",
"320 572 LINE SMOOTH",
"420 572 OFFCURVE",
"462 535 OFFCURVE",
"462 443 CURVE",
"485 443 LINE",
"485 598 LINE",
"483 597.333 OFFCURVE",
"477.333 597 OFFCURVE",
"468 597 CURVE SMOOTH",
"55 597 LINE",
"55 570 LINE",
"95 572 LINE SMOOTH",
"107 573.333 OFFCURVE",
"115 563 OFFCURVE",
"115 551 CURVE SMOOTH",
"115 45 LINE SMOOTH",
"115 30.333 OFFCURVE",
"109 23 OFFCURVE",
"97 23 CURVE SMOOTH",
"55 26 LINE",
"55 0 LINE",
"431 0 LINE SMOOTH",
"472.333 0 OFFCURVE",
"500.333 -1 OFFCURVE",
"515 -3 CURVE"
);
}
);
userData = {
assembly = "NPUSHB[ ]	/* 10 values pushed */
0 1 0 10 1 74 41 1 11 71 
MPPEM[ ]	/* MeasurePixelPerEm */
PUSHB[ ]	/* 1 value pushed */
10 
LT[ ]	/* LessThan */
IF[ ]	/* If */
NPUSHB[ ]	/* 56 values pushed */
0 3 1 6 1 3 112 0 10 7 0 7 10 0 126 0 5 0 8 7 5 8 101 4 1 1 1 2 93 0 2 2 17 75 0 7 7 6 93 0 6 6 20 75 9 1 0 0 11 94 0 11 11 21 11 76 
ELSE[ ]	/* Else */
NPUSHB[ ]	/* 57 values pushed */
0 3 1 6 1 3 6 126 0 10 7 0 7 10 0 126 0 5 0 8 7 5 8 101 4 1 1 1 2 93 0 2 2 17 75 0 7 7 6 93 0 6 6 20 75 9 1 0 0 11 94 0 11 11 21 11 76 
EIF[ ]	/* EndIf */
NPUSHB[ ]	/* 18 values pushed */
44 42 40 39 37 34 34 17 18 34 50 18 33 21 17 12 7 29 
CALL[ ]	/* CallFunction */";
};
width = 559;
}
);
note = E;
unicode = 0045;
},
{
glyphname = F;
layers = (
{
layerId = "3A4136D0-3900-4A7F-B896-13EBFCDD931C";
paths = (
{
closed = 1;
nodes = (
"50 0 LINE",
"272 0 LINE",
"272 30 LINE",
"220 27 LINE SMOOTH",
"209.333 27 OFFCURVE",
"201 36 OFFCURVE",
"201 48 CURVE SMOOTH",
"201 287 LINE",
"276 287 LINE SMOOTH",
"322.667 287 OFFCURVE",
"355 247 OFFCURVE",
"355 187 CURVE",
"382 187 LINE",
"382 417 LINE",
"355 417 LINE",
"355 354.333 OFFCURVE",
"324 315 OFFCURVE",
"276 315 CURVE SMOOTH",
"201 315 LINE",
"201 556 LINE SMOOTH",
"201 564.667 OFFCURVE",
"205 569 OFFCURVE",
"213 569 CURVE SMOOTH",
"330 569 LINE SMOOTH",
"428.667 569 OFFCURVE",
"472 531 OFFCURVE",
"472 443 CURVE",
"499 443 LINE",
"499 598 LINE",
"497 597.333 OFFCURVE",
"492 597 OFFCURVE",
"484 597 CURVE SMOOTH",
"50 597 LINE",
"50 567 LINE",
"89 569 LINE",
"91 569 LINE SMOOTH",
"102.333 569 OFFCURVE",
"108 562 OFFCURVE",
"108 548 CURVE SMOOTH",
"108 49 LINE SMOOTH",
"108 34.333 OFFCURVE",
"102 27 OFFCURVE",
"90 27 CURVE SMOOTH",
"50 30 LINE",
"50 0 LINE"
);
}
);
userData = {
assembly = "PUSHB[ ]	/* 6 values pushed */
0 1 0 7 1 74 
MPPEM[ ]	/* MeasurePixelPerEm */
PUSHB[ ]	/* 1 value pushed */
10 
LT[ ]	/* LessThan */
IF[ ]	/* If */
NPUSHB[ ]	/* 48 values pushed */
0 3 1 6 1 3 112 0 5 0 8 7 5 8 101 4 1 1 1 2 93 0 2 2 17 75 0 7 7 6 93 0 6 6 20 75 9 1 0 0 10 93 0 10 10 21 10 76 
ELSE[ ]	/* Else */
NPUSHB[ ]	/* 49 values pushed */
0 3 1 6 1 3 6 126 0 5 0 8 7 5 8 101 4 1 1 1 2 93 0 2 2 17 75 0 7 7 6 93 0 6 6 20 75 9 1 0 0 10 93 0 10 10 21 10 76 
EIF[ ]	/* EndIf */
NPUSHB[ ]	/* 16 values pushed */
39 38 37 35 34 17 18 34 50 18 33 51 17 11 7 29 
CALL[ ]	/* CallFunction */";
};
width = 529;
},
{
layerId = "A0AC7266-FF1C-4B13-9E61-C3CFB2289D5A";
paths = (
{
closed = 1;
nodes = (
"39 0 LINE",
"302 0 LINE",
"302 38 LINE",
"250 35 LINE SMOOTH",
"239.333 35 OFFCURVE",
"231 44 OFFCURVE",
"231 56 CURVE SMOOTH",
"231 280 LINE",
"299 280 LINE SMOOTH",
"345.667 280 OFFCURVE",
"378 240 OFFCURVE",
"378 180 CURVE",
"412 180 LINE",
"412 417 LINE",
"378 417 LINE",
"378 354.333 OFFCURVE",
"347 315 OFFCURVE",
"299 315 CURVE SMOOTH",
"231 315 LINE",
"231 549 LINE SMOOTH",
"231 557.667 OFFCURVE",
"235 562 OFFCURVE",
"243 562 CURVE SMOOTH",
"330 562 LINE SMOOTH",
"430 562 OFFCURVE",
"473.333 525.667 OFFCURVE",
"472 443 CURVE",
"507 443 LINE",
"507 598 LINE",
"505 597.333 OFFCURVE",
"500 597 OFFCURVE",
"492 597 CURVE SMOOTH",
"39 597 LINE",
"39 560 LINE",
"74 562 LINE",
"76 562 LINE SMOOTH",
"87.333 562 OFFCURVE",
"93 555 OFFCURVE",
"93 541 CURVE SMOOTH",
"93 57 LINE SMOOTH",
"93 42.333 OFFCURVE",
"87 35 OFFCURVE",
"75 35 CURVE SMOOTH",
"39 38 LINE",
"39 0 LINE"
);
}
);
userData = {
assembly = "PUSHB[ ]	/* 6 values pushed */
0 1 0 7 1 74 
MPPEM[ ]	/* MeasurePixelPerEm */
PUSHB[ ]	/* 1 value pushed */
10 
LT[ ]	/* LessThan */
IF[ ]	/* If */
NPUSHB[ ]	/* 48 values pushed */
0 3 1 6 1 3 112 0 5 0 8 7 5 8 103 4 1 1 1 2 93 0 2 2 17 75 0 7 7 6 93 0 6 6 20 75 9 1 0 0 10 93 0 10 10 21 10 76 
ELSE[ ]	/* Else */
MPPEM[ ]	/* MeasurePixelPerEm */
PUSHB[ ]	/* 1 value pushed */
50 
LT[ ]	/* LessThan */
IF[ ]	/* If */
NPUSHB[ ]	/* 49 values pushed */
0 3 1 6 1 3 6 126 0 5 0 8 7 5 8 103 4 1 1 1 2 93 0 2 2 17 75 0 7 7 6 93 0 6 6 20 75 9 1 0 0 10 93 0 10 10 21 10 76 
ELSE[ ]	/* Else */
NPUSHB[ ]	/* 47 values pushed */
0 3 1 6 1 3 6 126 0 5 0 8 7 5 8 103 0 6 0 7 0 6 7 101 4 1 1 1 2 93 0 2 2 17 75 9 1 0 0 10 93 0 10 10 21 10 76 
EIF[ ]	/* EndIf */
EIF[ ]	/* EndIf */
NPUSHB[ ]	/* 16 values pushed */
39 38 37 35 34 17 18 34 50 18 33 51 17 11 7 29 
CALL[ ]	/* CallFunction */";
};
width = 529;
},
{
layerId = "8FAB7A87-DBD6-41A5-8B85-4E9492F941D1";
paths = (
{
closed = 1;
nodes = (
"55 0 LINE",
"259 0 LINE",
"259 26 LINE",
"207 23 LINE SMOOTH",
"196.333 23 OFFCURVE",
"188 32 OFFCURVE",
"188 44 CURVE SMOOTH",
"188 290 LINE",
"266 290 LINE SMOOTH",
"312.667 290 OFFCURVE",
"345 250 OFFCURVE",
"345 190 CURVE",
"369 190 LINE",
"369 417 LINE",
"345 417 LINE",
"345 354.333 OFFCURVE",
"314 315 OFFCURVE",
"266 315 CURVE SMOOTH",
"188 315 LINE",
"188 559 LINE SMOOTH",
"188 567.667 OFFCURVE",
"192 572 OFFCURVE",
"200 572 CURVE SMOOTH",
"330 572 LINE SMOOTH",
"428.667 572 OFFCURVE",
"472 532.333 OFFCURVE",
"472 443 CURVE",
"495 443 LINE",
"495 598 LINE",
"493 597.333 OFFCURVE",
"488 597 OFFCURVE",
"480 597 CURVE SMOOTH",
"55 597 LINE",
"55 570 LINE",
"96 572 LINE",
"98 572 LINE SMOOTH",
"109.333 572 OFFCURVE",
"115 565 OFFCURVE",
"115 551 CURVE SMOOTH",
"115 45 LINE SMOOTH",
"115 30.333 OFFCURVE",
"109 23 OFFCURVE",
"97 23 CURVE SMOOTH",
"55 26 LINE",
"55 0 LINE"
);
}
);
userData = {
assembly = "PUSHB[ ]	/* 6 values pushed */
0 1 0 7 1 74 
MPPEM[ ]	/* MeasurePixelPerEm */
PUSHB[ ]	/* 1 value pushed */
10 
LT[ ]	/* LessThan */
IF[ ]	/* If */
NPUSHB[ ]	/* 48 values pushed */
0 3 1 6 1 3 112 0 5 0 8 7 5 8 101 4 1 1 1 2 93 0 2 2 17 75 0 7 7 6 93 0 6 6 20 75 9 1 0 0 10 93 0 10 10 21 10 76 
ELSE[ ]	/* Else */
NPUSHB[ ]	/* 49 values pushed */
0 3 1 6 1 3 6 126 0 5 0 8 7 5 8 101 4 1 1 1 2 93 0 2 2 17 75 0 7 7 6 93 0 6 6 20 75 9 1 0 0 10 93 0 10 10 21 10 76 
EIF[ ]	/* EndIf */
NPUSHB[ ]	/* 16 values pushed */
39 38 37 35 34 17 18 34 50 18 33 51 17 11 7 29 
CALL[ ]	/* CallFunction */";
};
width = 529;
}
);
note = F;
rightKerningGroup = F;
unicode = 0046;
},
{
glyphname = G;
layers = (
{
anchors = (
{
name = bottom;
position = "{323, 0}";
},
{
name = top;
position = "{330, 597}";
}
);
layerId = "3A4136D0-3900-4A7F-B896-13EBFCDD931C";
paths = (
{
closed = 1;
nodes = (
"397.667 -10 OFFCURVE",
"430 -1.333 OFFCURVE",
"490 20 CURVE SMOOTH",
"519.333 30.667 OFFCURVE",
"540.333 36 OFFCURVE",
"553 36 CURVE SMOOTH",
"559 36 OFFCURVE",
"563.333 35.667 OFFCURVE",
"566 35 CURVE",
"566 224 LINE SMOOTH",
"566 236 OFFCURVE",
"573 245 OFFCURVE",
"585 245 CURVE SMOOTH",
"626 243 LINE",
"626 272 LINE",
"395 272 LINE",
"395 243 LINE",
"454 245 LINE SMOOTH",
"466.667 245.667 OFFCURVE",
"473 238.333 OFFCURVE",
"473 223 CURVE SMOOTH",
"473 63 LINE",
"437 27 OFFCURVE",
"405 17 OFFCURVE",
"345 17 CURVE SMOOTH",
"213.667 17 OFFCURVE",
"147.667 109.667 OFFCURVE",
"147 295 CURVE SMOOTH",
"147 481.667 OFFCURVE",
"224 582 OFFCURVE",
"340 582 CURVE SMOOTH",
"454.667 582 OFFCURVE",
"514 530.667 OFFCURVE",
"514 448 CURVE SMOOTH",
"514 440.667 OFFCURVE",
"513.667 435.667 OFFCURVE",
"513 433 CURVE",
"553 433 LINE",
"550.333 465 OFFCURVE",
"549 485.667 OFFCURVE",
"549 495 CURVE SMOOTH",
"549 527.667 OFFCURVE",
"550.333 550.667 OFFCURVE",
"553 564 CURVE",
"543.667 562.667 OFFCURVE",
"524.667 567.333 OFFCURVE",
"496 578 CURVE SMOOTH",
"445.333 597.333 OFFCURVE",
"394.333 607 OFFCURVE",
"343 607 CURVE SMOOTH",
"152.333 607 OFFCURVE",
"45 500.333 OFFCURVE",
"45 295 CURVE SMOOTH",
"45 95 OFFCURVE",
"157.667 -10 OFFCURVE",
"335 -10 CURVE SMOOTH"
);
}
);
userData = {
assembly = "NPUSHB[ ]	/* 72 values pushed */
14 1 5 1 27 1 7 4 39 1 3 7 3 74 0 1 2 5 2 1 5 126 0 7 4 3 4 7 3 126 0 5 6 1 4 7 5 4 103 0 2 2 0 95 0 0 0 25 75 0 3 3 8 95 0 8 8 26 8 76 35 21 33 17 36 35 43 19 33 9 7 29 
CALL[ ]	/* CallFunction */";
};
width = 646;
},
{
anchors = (
{
name = bottom;
position = "{323, 0}";
},
{
name = top;
position = "{330, 597}";
}
);
background = {
paths = (
{
closed = 1;
nodes = (
"30 146 OFFCURVE",
"192 -10 OFFCURVE",
"335 -10 QCURVE SMOOTH",
"384 -10 OFFCURVE",
"457 7 OFFCURVE",
"497 21 QCURVE SMOOTH",
"547 37 OFFCURVE",
"561 37 QCURVE SMOOTH",
"570 37 OFFCURVE",
"580 35 QCURVE",
"580 217 LINE SMOOTH",
"580 226 OFFCURVE",
"590 238 OFFCURVE",
"599 238 QCURVE",
"631 236 LINE",
"631 272 LINE",
"364 272 LINE",
"364 236 LINE",
"423 238 LINE SMOOTH",
"442 238 OFFCURVE",
"442 216 QCURVE SMOOTH",
"442 68 LINE",
"421 44 OFFCURVE",
"375 25 OFFCURVE",
"344 25 QCURVE SMOOTH",
"181 25 OFFCURVE",
"181 288 QCURVE SMOOTH",
"181 428 OFFCURVE",
"271 575 OFFCURVE",
"354 575 QCURVE SMOOTH",
"430 575 OFFCURVE",
"513 506 OFFCURVE",
"515 444 QCURVE SMOOTH",
"515 433 OFFCURVE",
"514 426 QCURVE",
"564 426 LINE",
"560 486 OFFCURVE",
"560 504 QCURVE SMOOTH",
"560 538 OFFCURVE",
"564 564 QCURVE",
"552 564 OFFCURVE",
"499 579 QCURVE SMOOTH",
"454 592 OFFCURVE",
"386 607 OFFCURVE",
"343 607 QCURVE SMOOTH",
"193 607 OFFCURVE",
"30 449 OFFCURVE",
"30 297 QCURVE SMOOTH"
);
}
);
};
layerId = "A0AC7266-FF1C-4B13-9E61-C3CFB2289D5A";
paths = (
{
closed = 1;
nodes = (
"400.333 -10 OFFCURVE",
"443.667 2.333 OFFCURVE",
"497 21 CURVE SMOOTH",
"530.333 31.667 OFFCURVE",
"551.667 37 OFFCURVE",
"561 37 CURVE SMOOTH",
"567 37 OFFCURVE",
"573.333 36.333 OFFCURVE",
"580 35 CURVE",
"580 217 LINE SMOOTH",
"580 229 OFFCURVE",
"587 238 OFFCURVE",
"599 238 CURVE SMOOTH",
"631 236 LINE",
"631 272 LINE",
"364 272 LINE",
"364 236 LINE",
"423 238 LINE SMOOTH",
"435.667 238 OFFCURVE",
"442 230.667 OFFCURVE",
"442 216 CURVE SMOOTH",
"442 68 LINE",
"414 36 OFFCURVE",
"385.333 25 OFFCURVE",
"344 25 CURVE SMOOTH",
"235.333 25 OFFCURVE",
"181 112.667 OFFCURVE",
"181 288 CURVE SMOOTH",
"181 474.667 OFFCURVE",
"243.333 575 OFFCURVE",
"354 575 CURVE SMOOTH",
"455.333 575 OFFCURVE",
"512.333 526.667 OFFCURVE",
"515 444 CURVE SMOOTH",
"515 436.667 OFFCURVE",
"514.667 430.667 OFFCURVE",
"514 426 CURVE",
"564 426 LINE",
"561.333 466 OFFCURVE",
"560 492 OFFCURVE",
"560 504 CURVE SMOOTH",
"560 526.667 OFFCURVE",
"561.333 546.667 OFFCURVE",
"564 564 CURVE",
"556 562.667 OFFCURVE",
"534.333 567.667 OFFCURVE",
"499 579 CURVE SMOOTH",
"441 597.667 OFFCURVE",
"389 607 OFFCURVE",
"343 607 CURVE SMOOTH",
"143 607 OFFCURVE",
"30 499.667 OFFCURVE",
"30 297 CURVE SMOOTH",
"30 95.667 OFFCURVE",
"144.333 -10 OFFCURVE",
"335 -10 CURVE SMOOTH"
);
}
);
userData = {
assembly = "NPUSHB[ ]	/* 70 values pushed */
26 1 8 5 38 1 4 8 2 74 0 8 5 4 5 8 4 126 0 1 0 2 6 1 2 101 0 6 7 1 5 8 6 5 103 0 3 3 0 95 0 0 0 25 75 0 4 4 9 95 0 9 9 26 9 76 47 45 36 33 17 36 35 36 20 20 33 10 7 29 
CALL[ ]	/* CallFunction */";
};
width = 650;
},
{
anchors = (
{
name = bottom;
position = "{323, 0}";
},
{
name = top;
position = "{330, 597}";
}
);
layerId = "8FAB7A87-DBD6-41A5-8B85-4E9492F941D1";
paths = (
{
closed = 1;
nodes = (
"396.333 -10 OFFCURVE",
"424.333 -2.667 OFFCURVE",
"487 20 CURVE SMOOTH",
"514.333 30.667 OFFCURVE",
"535 36 OFFCURVE",
"549 36 CURVE SMOOTH",
"555 36 OFFCURVE",
"558.667 35.667 OFFCURVE",
"560 35 CURVE",
"560 227 LINE SMOOTH",
"560 239 OFFCURVE",
"567 248 OFFCURVE",
"579 248 CURVE SMOOTH",
"624 246 LINE",
"624 272 LINE",
"409 272 LINE",
"409 246 LINE",
"468 248 LINE SMOOTH",
"480 248.667 OFFCURVE",
"486.333 241.333 OFFCURVE",
"487 226 CURVE SMOOTH",
"487 61 LINE",
"448.333 23.667 OFFCURVE",
"414.333 13 OFFCURVE",
"345 13 CURVE SMOOTH",
"203.667 13 OFFCURVE",
"132.667 108 OFFCURVE",
"132 298 CURVE SMOOTH",
"132 484.667 OFFCURVE",
"215.333 585 OFFCURVE",
"334 585 CURVE SMOOTH",
"454 585 OFFCURVE",
"514 531.333 OFFCURVE",
"514 450 CURVE SMOOTH",
"514 442.667 OFFCURVE",
"513.667 438 OFFCURVE",
"513 436 CURVE",
"548 436 LINE",
"545.333 464.667 OFFCURVE",
"544 483 OFFCURVE",
"544 491 CURVE SMOOTH",
"544 528.333 OFFCURVE",
"545.333 552.667 OFFCURVE",
"548 564 CURVE",
"538 562.667 OFFCURVE",
"520.333 567.333 OFFCURVE",
"495 578 CURVE SMOOTH",
"447.667 597.333 OFFCURVE",
"397 607 OFFCURVE",
"343 607 CURVE SMOOTH",
"156.333 607 OFFCURVE",
"52 500.667 OFFCURVE",
"52 294 CURVE SMOOTH",
"52 95.333 OFFCURVE",
"163 -10 OFFCURVE",
"335 -10 CURVE SMOOTH"
);
}
);
userData = {
assembly = "NPUSHB[ ]	/* 72 values pushed */
14 1 5 1 27 1 7 4 39 1 3 7 3 74 0 1 2 5 2 1 5 126 0 7 4 3 4 7 3 126 0 5 6 1 4 7 5 4 103 0 2 2 0 95 0 0 0 25 75 0 3 3 8 95 0 8 8 26 8 76 35 21 33 17 36 35 43 19 33 9 7 29 
CALL[ ]	/* CallFunction */";
};
width = 644;
}
);
leftKerningGroup = C;
note = G;
unicode = 0047;
},
{
glyphname = H;
layers = (
{
anchors = (
{
name = bottom;
position = "{348, 0}";
},
{
name = center;
position = "{347, 438}";
},
{
name = top;
position = "{346, 597}";
}
);
layerId = "3A4136D0-3900-4A7F-B896-13EBFCDD931C";
paths = (
{
closed = 1;
nodes = (
"50 0 LINE",
"270 0 LINE",
"270 29 LINE",
"221 27 LINE SMOOTH",
"207.667 27 OFFCURVE",
"201 34.333 OFFCURVE",
"201 49 CURVE SMOOTH",
"201 294 LINE",
"495 294 LINE",
"495 49 LINE SMOOTH",
"495 34.333 OFFCURVE",
"488.667 27 OFFCURVE",
"476 27 CURVE SMOOTH",
"427 29 LINE",
"427 0 LINE",
"646 0 LINE",
"646 29 LINE",
"607 27 LINE SMOOTH",
"594.333 27 OFFCURVE",
"588 34.333 OFFCURVE",
"588 49 CURVE SMOOTH",
"588 548 LINE SMOOTH",
"588 560 OFFCURVE",
"594.333 569 OFFCURVE",
"605 569 CURVE SMOOTH",
"607 569 LINE",
"646 567 LINE",
"646 597 LINE",
"427 597 LINE",
"427 567 LINE",
"476 569 LINE SMOOTH",
"488.667 569.667 OFFCURVE",
"495 562.667 OFFCURVE",
"495 548 CURVE SMOOTH",
"495 322 LINE",
"201 322 LINE",
"201 548 LINE SMOOTH",
"201 560 OFFCURVE",
"207 569 OFFCURVE",
"219 569 CURVE SMOOTH",
"221 569 LINE",
"270 567 LINE",
"270 597 LINE",
"50 597 LINE",
"50 567 LINE",
"89 569 LINE SMOOTH",
"101.667 569.667 OFFCURVE",
"108 562.667 OFFCURVE",
"108 548 CURVE SMOOTH",
"108 49 LINE SMOOTH",
"108 34.333 OFFCURVE",
"101.667 27 OFFCURVE",
"89 27 CURVE SMOOTH",
"50 29 LINE",
"50 0 LINE"
);
}
);
userData = {
assembly = "NPUSHB[ ]	/* 59 values pushed */
0 4 0 11 0 4 11 101 7 5 3 3 1 1 2 93 6 1 2 2 17 75 12 10 8 3 0 0 9 93 13 1 9 9 21 9 76 47 46 45 43 41 40 38 36 35 34 36 49 17 34 19 49 17 35 32 14 7 29 
CALL[ ]	/* CallFunction */";
};
width = 696;
},
{
anchors = (
{
name = bottom;
position = "{349, 0}";
},
{
name = center;
position = "{348, 438}";
},
{
name = top;
position = "{347, 597}";
}
);
layerId = "A0AC7266-FF1C-4B13-9E61-C3CFB2289D5A";
paths = (
{
closed = 1;
nodes = (
"39 0 LINE",
"300 0 LINE",
"300 37 LINE",
"251 35 LINE SMOOTH",
"237.667 35 OFFCURVE",
"231 42.333 OFFCURVE",
"231 57 CURVE SMOOTH",
"231 287 LINE",
"465 287 LINE",
"465 57 LINE SMOOTH",
"465 42.333 OFFCURVE",
"458.667 35 OFFCURVE",
"446 35 CURVE SMOOTH",
"397 37 LINE",
"397 0 LINE",
"657 0 LINE",
"657 37 LINE",
"622 35 LINE SMOOTH",
"609.333 34.333 OFFCURVE",
"603 41.667 OFFCURVE",
"603 57 CURVE SMOOTH",
"603 541 LINE SMOOTH",
"603 553 OFFCURVE",
"609.333 562 OFFCURVE",
"620 562 CURVE SMOOTH",
"622 562 LINE",
"657 560 LINE",
"657 597 LINE",
"397 597 LINE",
"397 560 LINE",
"446 562 LINE SMOOTH",
"458.667 562.667 OFFCURVE",
"465 555.667 OFFCURVE",
"465 541 CURVE SMOOTH",
"465 322 LINE",
"231 322 LINE",
"231 541 LINE SMOOTH",
"231 553 OFFCURVE",
"237 562 OFFCURVE",
"249 562 CURVE SMOOTH",
"251 562 LINE",
"300 560 LINE",
"300 597 LINE",
"39 597 LINE",
"39 560 LINE",
"74 562 LINE SMOOTH",
"86.667 562.667 OFFCURVE",
"93 555.667 OFFCURVE",
"93 541 CURVE SMOOTH",
"93 57 LINE SMOOTH",
"93 42.333 OFFCURVE",
"87.333 35 OFFCURVE",
"76 35 CURVE SMOOTH",
"39 37 LINE",
"39 0 LINE"
);
}
);
userData = {
assembly = "NPUSHB[ ]	/* 59 values pushed */
0 4 0 11 0 4 11 101 7 5 3 3 1 1 2 93 6 1 2 2 17 75 12 10 8 3 0 0 9 93 13 1 9 9 21 9 76 48 47 46 44 42 41 39 37 36 35 36 49 17 34 19 49 17 35 48 14 7 29 
CALL[ ]	/* CallFunction */";
};
width = 696;
},
{
anchors = (
{
name = bottom;
position = "{348, 0}";
},
{
name = center;
position = "{347, 438}";
},
{
name = top;
position = "{346, 597}";
}
);
layerId = "8FAB7A87-DBD6-41A5-8B85-4E9492F941D1";
paths = (
{
closed = 1;
nodes = (
"55 0 LINE",
"257 0 LINE",
"257 25 LINE",
"208 23 LINE SMOOTH",
"194.667 23 OFFCURVE",
"188 30.333 OFFCURVE",
"188 45 CURVE SMOOTH",
"188 297 LINE",
"508 297 LINE",
"508 45 LINE SMOOTH",
"508 30.333 OFFCURVE",
"501.667 23 OFFCURVE",
"489 23 CURVE SMOOTH",
"440 25 LINE",
"440 0 LINE",
"641 0 LINE",
"641 25 LINE",
"600 23 LINE",
"587.333 23.667 OFFCURVE",
"581 31 OFFCURVE",
"581 45 CURVE SMOOTH",
"581 551 LINE SMOOTH",
"581 563 OFFCURVE",
"587.333 572 OFFCURVE",
"598 572 CURVE SMOOTH",
"600 572 LINE",
"641 570 LINE",
"641 597 LINE",
"440 597 LINE",
"440 570 LINE",
"489 572 LINE SMOOTH",
"501.667 572.667 OFFCURVE",
"508 565.667 OFFCURVE",
"508 551 CURVE SMOOTH",
"508 322 LINE",
"188 322 LINE",
"188 551 LINE SMOOTH",
"188 563 OFFCURVE",
"194 572 OFFCURVE",
"206 572 CURVE SMOOTH",
"208 572 LINE",
"257 570 LINE",
"257 597 LINE",
"55 597 LINE",
"55 570 LINE",
"96 572 LINE SMOOTH",
"108.667 572.667 OFFCURVE",
"115 565.667 OFFCURVE",
"115 551 CURVE SMOOTH",
"115 45 LINE SMOOTH",
"115 30.333 OFFCURVE",
"108.333 23 OFFCURVE",
"95 23 CURVE SMOOTH",
"55 25 LINE",
"55 0 LINE"
);
}
);
userData = {
assembly = "NPUSHB[ ]	/* 59 values pushed */
0 4 0 11 0 4 11 101 7 5 3 3 1 1 2 93 6 1 2 2 17 75 12 10 8 3 0 0 9 93 13 1 9 9 21 9 76 47 46 45 43 41 40 38 36 35 34 36 49 17 34 19 49 17 35 32 14 7 29 
CALL[ ]	/* CallFunction */";
};
width = 696;
}
);
note = H;
unicode = 0048;
},
{
glyphname = I;
layers = (
{
anchors = (
{
name = bottom;
position = "{154, 0}";
},
{
name = ogonek;
position = "{155, 0}";
},
{
name = top;
position = "{154, 597}";
}
);
layerId = "3A4136D0-3900-4A7F-B896-13EBFCDD931C";
paths = (
{
closed = 1;
nodes = (
"50 0 LINE",
"260 0 LINE",
"260 29 LINE",
"221 27 LINE SMOOTH",
"207.667 27 OFFCURVE",
"201 34.333 OFFCURVE",
"201 49 CURVE SMOOTH",
"201 548 LINE SMOOTH",
"201 560 OFFCURVE",
"208.333 569 OFFCURVE",
"219 569 CURVE SMOOTH",
"221 569 LINE",
"260 567 LINE",
"260 597 LINE",
"50 597 LINE",
"50 567 LINE",
"89 569 LINE SMOOTH",
"101 570.333 OFFCURVE",
"108 560 OFFCURVE",
"108 548 CURVE SMOOTH",
"108 49 LINE SMOOTH",
"108 34.333 OFFCURVE",
"101.667 27 OFFCURVE",
"89 27 CURVE SMOOTH",
"50 29 LINE",
"50 0 LINE"
);
}
);
userData = {
assembly = "NPUSHB[ ]	/* 32 values pushed */
3 1 1 1 2 93 0 2 2 17 75 4 1 0 0 5 93 0 5 5 21 5 76 17 36 49 17 21 32 6 7 26 
CALL[ ]	/* CallFunction */";
};
width = 310;
},
{
anchors = (
{
name = bottom;
position = "{162, 0}";
},
{
name = ogonek;
position = "{163, 0}";
},
{
name = top;
position = "{161, 597}";
}
);
layerId = "A0AC7266-FF1C-4B13-9E61-C3CFB2289D5A";
paths = (
{
closed = 1;
nodes = (
"39 0 LINE",
"286 0 LINE",
"286 37 LINE",
"251 35 LINE SMOOTH",
"237.667 33.667 OFFCURVE",
"231 41 OFFCURVE",
"231 57 CURVE SMOOTH",
"231 541 LINE SMOOTH",
"231 553 OFFCURVE",
"238.333 562 OFFCURVE",
"249 562 CURVE SMOOTH",
"251 562 LINE",
"286 560 LINE",
"286 597 LINE",
"39 597 LINE",
"39 560 LINE",
"74 562 LINE SMOOTH",
"86 563.333 OFFCURVE",
"93 553 OFFCURVE",
"93 541 CURVE SMOOTH",
"93 57 LINE SMOOTH",
"93 42.333 OFFCURVE",
"87.333 35 OFFCURVE",
"76 35 CURVE SMOOTH",
"39 37 LINE",
"39 0 LINE"
);
}
);
userData = {
assembly = "NPUSHB[ ]	/* 32 values pushed */
3 1 1 1 2 93 0 2 2 17 75 4 1 0 0 5 93 0 5 5 21 5 76 17 21 49 17 21 48 6 7 26 
CALL[ ]	/* CallFunction */";
};
width = 325;
},
{
anchors = (
{
name = bottom;
position = "{150, 0}";
},
{
name = ogonek;
position = "{151, 0}";
},
{
name = top;
position = "{151, 597}";
}
);
layerId = "8FAB7A87-DBD6-41A5-8B85-4E9492F941D1";
paths = (
{
closed = 1;
nodes = (
"55 0 LINE",
"248 0 LINE",
"248 25 LINE",
"208 23 LINE",
"194 23.667 OFFCURVE",
"187.333 31 OFFCURVE",
"188 45 CURVE SMOOTH",
"188 551 LINE SMOOTH",
"188 563 OFFCURVE",
"195.333 572 OFFCURVE",
"206 572 CURVE SMOOTH",
"208 572 LINE",
"248 570 LINE",
"248 597 LINE",
"55 597 LINE",
"55 570 LINE",
"96 572 LINE SMOOTH",
"108 573.333 OFFCURVE",
"115 563 OFFCURVE",
"115 551 CURVE SMOOTH",
"115 45 LINE SMOOTH",
"115 30.333 OFFCURVE",
"108.333 23 OFFCURVE",
"95 23 CURVE SMOOTH",
"55 25 LINE",
"55 0 LINE"
);
}
);
userData = {
assembly = "NPUSHB[ ]	/* 32 values pushed */
3 1 1 1 2 93 0 2 2 17 75 4 1 0 0 5 93 0 5 5 21 5 76 17 36 49 17 21 32 6 7 26 
CALL[ ]	/* CallFunction */";
};
width = 303;
}
);
note = I;
unicode = 0049;
},
{
glyphname = J;
layers = (
{
anchors = (
{
name = top;
position = "{299, 597}";
}
);
layerId = "3A4136D0-3900-4A7F-B896-13EBFCDD931C";
paths = (
{
closed = 1;
nodes = (
"292.333 -10 OFFCURVE",
"348 53 OFFCURVE",
"348 179 CURVE SMOOTH",
"348 549 LINE SMOOTH",
"348 559.667 OFFCURVE",
"355.333 569 OFFCURVE",
"366 569 CURVE SMOOTH",
"368 569 LINE",
"406 567 LINE",
"406 597 LINE",
"167 597 LINE",
"167 567 LINE",
"236 569 LINE",
"246.667 570.333 OFFCURVE",
"255 560 OFFCURVE",
"255 548 CURVE SMOOTH",
"255 179 LINE SMOOTH",
"255 60.333 OFFCURVE",
"229 16 OFFCURVE",
"165 16 CURVE SMOOTH",
"90.333 16 OFFCURVE",
"60 94.667 OFFCURVE",
"60 172 CURVE",
"24 172 LINE",
"24 -1 LINE",
"28 3 OFFCURVE",
"37 5 OFFCURVE",
"51 5 CURVE SMOOTH",
"59 5 LINE SMOOTH",
"65 5 OFFCURVE",
"78.667 3 OFFCURVE",
"100 -1 CURVE SMOOTH",
"133.333 -7 OFFCURVE",
"160.333 -10 OFFCURVE",
"181 -10 CURVE SMOOTH"
);
}
);
userData = {
assembly = "NPUSHB[ ]	/* 48 values pushed */
30 1 5 6 1 74 4 1 2 2 3 93 0 3 3 17 75 0 0 0 6 95 0 6 6 21 75 0 1 1 5 95 0 5 5 26 5 76 50 36 49 17 22 34 16 7 7 27 
CALL[ ]	/* CallFunction */";
};
width = 451;
},
{
anchors = (
{
name = top;
position = "{299, 597}";
}
);
layerId = "A0AC7266-FF1C-4B13-9E61-C3CFB2289D5A";
paths = (
{
closed = 1;
nodes = (
"306 -10 OFFCURVE",
"371 53 OFFCURVE",
"371 179 CURVE SMOOTH",
"371 542 LINE SMOOTH",
"371 552.667 OFFCURVE",
"378.333 562 OFFCURVE",
"389 562 CURVE SMOOTH",
"391 562 LINE",
"425 560 LINE",
"425 597 LINE",
"145 597 LINE",
"145 560 LINE",
"214 562 LINE",
"224.667 563.333 OFFCURVE",
"233 553 OFFCURVE",
"233 541 CURVE SMOOTH",
"233 179 LINE SMOOTH",
"233 65.667 OFFCURVE",
"210.333 24 OFFCURVE",
"153 24 CURVE SMOOTH",
"93 24 OFFCURVE",
"68 98.667 OFFCURVE",
"68 172 CURVE",
"24 172 LINE",
"24 -1 LINE",
"28 3 OFFCURVE",
"37 5 OFFCURVE",
"51 5 CURVE SMOOTH",
"59 5 LINE SMOOTH",
"65 5 OFFCURVE",
"78 3 OFFCURVE",
"98 -1 CURVE SMOOTH",
"131.333 -7 OFFCURVE",
"157.333 -10 OFFCURVE",
"176 -10 CURVE SMOOTH"
);
}
);
userData = {
assembly = "NPUSHB[ ]	/* 48 values pushed */
30 1 5 6 1 74 4 1 2 2 3 93 0 3 3 17 75 0 0 0 6 95 0 6 6 21 75 0 1 1 5 95 0 5 5 26 5 76 50 36 49 17 22 34 16 7 7 27 
CALL[ ]	/* CallFunction */";
};
width = 459;
},
{
anchors = (
{
name = top;
position = "{299, 597}";
}
);
layerId = "8FAB7A87-DBD6-41A5-8B85-4E9492F941D1";
paths = (
{
closed = 1;
nodes = (
"286.333 -10 OFFCURVE",
"338 53 OFFCURVE",
"338 179 CURVE SMOOTH",
"338 552 LINE SMOOTH",
"338 562.667 OFFCURVE",
"345.333 572 OFFCURVE",
"356 572 CURVE SMOOTH",
"358 572 LINE",
"398 570 LINE",
"398 597 LINE",
"177 597 LINE",
"177 570 LINE",
"246 572 LINE",
"256.667 573.333 OFFCURVE",
"265 563 OFFCURVE",
"265 551 CURVE SMOOTH",
"265 179 LINE SMOOTH",
"265 57.667 OFFCURVE",
"238 12 OFFCURVE",
"170 12 CURVE SMOOTH",
"88.667 12 OFFCURVE",
"56 93.333 OFFCURVE",
"56 172 CURVE",
"24 172 LINE",
"24 -1 LINE",
"28 3 OFFCURVE",
"37 5 OFFCURVE",
"51 5 CURVE SMOOTH",
"59 5 LINE SMOOTH",
"65 5 OFFCURVE",
"79 3 OFFCURVE",
"101 -1 CURVE SMOOTH",
"134.333 -7 OFFCURVE",
"161.667 -10 OFFCURVE",
"183 -10 CURVE SMOOTH"
);
}
);
userData = {
assembly = "NPUSHB[ ]	/* 48 values pushed */
30 1 5 6 1 74 4 1 2 2 3 93 0 3 3 17 75 0 0 0 6 95 0 6 6 21 75 0 1 1 5 95 0 5 5 26 5 76 50 36 49 17 22 34 16 7 7 27 
CALL[ ]	/* CallFunction */";
};
width = 447;
}
);
note = J;
rightKerningGroup = J;
unicode = 004A;
},
{
glyphname = K;
layers = (
{
anchors = (
{
name = bottom;
position = "{316, 0}";
}
);
layerId = "3A4136D0-3900-4A7F-B896-13EBFCDD931C";
paths = (
{
closed = 1;
nodes = (
"50 0 LINE",
"270 0 LINE",
"270 29 LINE",
"221 27 LINE SMOOTH",
"207.667 27 OFFCURVE",
"201 34.333 OFFCURVE",
"201 49 CURVE SMOOTH",
"201 234 LINE",
"257 299 LINE",
"440 52 LINE SMOOTH",
"443.333 47.333 OFFCURVE",
"445 42.667 OFFCURVE",
"445 38 CURVE SMOOTH",
"445 30.667 OFFCURVE",
"439.333 27 OFFCURVE",
"428 27 CURVE SMOOTH",
"374 30 LINE",
"374 0 LINE",
"611 0 LINE",
"611 30 LINE",
"599 28 OFFCURVE",
"587.667 27 OFFCURVE",
"577 27 CURVE SMOOTH",
"568.333 27 OFFCURVE",
"560.333 31.667 OFFCURVE",
"553 41 CURVE SMOOTH",
"314 365 LINE",
"467 540 LINE SMOOTH",
"488.333 564 OFFCURVE",
"503.667 570.333 OFFCURVE",
"525 569 CURVE SMOOTH",
"559 567 LINE",
"559 597 LINE",
"381 597 LINE",
"381 567 LINE",
"423 569 LINE SMOOTH",
"429.667 569 OFFCURVE",
"433 566 OFFCURVE",
"433 560 CURVE SMOOTH",
"433 555.333 OFFCURVE",
"427.333 546.333 OFFCURVE",
"416 533 CURVE SMOOTH",
"201 278 LINE",
"201 547 LINE SMOOTH",
"201 561.667 OFFCURVE",
"207.667 569 OFFCURVE",
"221 569 CURVE SMOOTH",
"270 567 LINE",
"270 597 LINE",
"50 597 LINE",
"50 567 LINE",
"89 569 LINE SMOOTH",
"101 570.333 OFFCURVE",
"108 561.333 OFFCURVE",
"108 548 CURVE SMOOTH",
"108 49 LINE SMOOTH",
"108 34.333 OFFCURVE",
"101.667 27 OFFCURVE",
"89 27 CURVE SMOOTH",
"50 29 LINE",
"50 0 LINE"
);
}
);
userData = {
assembly = "NPUSHB[ ]	/* 63 values pushed */
48 34 12 11 8 1 6 1 5 1 74 10 8 7 3 5 5 6 93 9 1 6 6 17 75 12 11 4 2 4 1 1 0 93 3 1 0 0 21 0 76 0 0 0 51 0 50 45 43 42 41 38 33 17 21 33 17 39 49 18 13 7 29 
CALL[ ]	/* CallFunction */";
};
width = 617;
},
{
anchors = (
{
name = bottom;
position = "{319, 0}";
}
);
layerId = "A0AC7266-FF1C-4B13-9E61-C3CFB2289D5A";
paths = (
{
closed = 1;
nodes = (
"39 0 LINE",
"296 0 LINE",
"296 37 LINE",
"251 35 LINE SMOOTH",
"237.667 33.667 OFFCURVE",
"231 41 OFFCURVE",
"231 57 CURVE SMOOTH",
"231 224 LINE",
"267 266 LINE",
"406 59 LINE SMOOTH",
"409.333 54.333 OFFCURVE",
"411 49.667 OFFCURVE",
"411 45 CURVE SMOOTH",
"411 37.667 OFFCURVE",
"405.333 34 OFFCURVE",
"394 34 CURVE SMOOTH",
"348 37 LINE",
"348 0 LINE",
"633 0 LINE",
"633 37 LINE",
"624.333 35 OFFCURVE",
"614.333 34 OFFCURVE",
"603 34 CURVE SMOOTH",
"593 34 OFFCURVE",
"585 38.667 OFFCURVE",
"579 48 CURVE SMOOTH",
"360 372 LINE",
"499 533 LINE SMOOTH",
"520.333 557 OFFCURVE",
"535.667 563.333 OFFCURVE",
"557 562 CURVE SMOOTH",
"591 560 LINE",
"591 597 LINE",
"411 597 LINE",
"411 560 LINE",
"447 562 LINE SMOOTH",
"453.667 562 OFFCURVE",
"457 559 OFFCURVE",
"457 553 CURVE SMOOTH",
"457 548.333 OFFCURVE",
"451.333 539.333 OFFCURVE",
"440 526 CURVE SMOOTH",
"231 278 LINE",
"231 540 LINE SMOOTH",
"231 554.667 OFFCURVE",
"237.667 562 OFFCURVE",
"251 562 CURVE SMOOTH",
"300 560 LINE",
"300 597 LINE",
"39 597 LINE",
"39 560 LINE",
"74 562 LINE SMOOTH",
"86 563.333 OFFCURVE",
"93 554.333 OFFCURVE",
"93 541 CURVE SMOOTH",
"93 57 LINE SMOOTH",
"93 42.333 OFFCURVE",
"87.333 35 OFFCURVE",
"76 35 CURVE SMOOTH",
"39 37 LINE",
"39 0 LINE"
);
}
);
userData = {
assembly = "NPUSHB[ ]	/* 63 values pushed */
49 35 12 11 8 1 6 1 5 1 74 10 8 7 3 5 5 6 93 9 1 6 6 17 75 12 11 4 2 4 1 1 0 93 3 1 0 0 21 0 76 0 0 0 52 0 51 46 44 43 42 38 33 17 21 49 17 24 49 18 13 7 29 
CALL[ ]	/* CallFunction */";
};
width = 639;
},
{
anchors = (
{
name = bottom;
position = "{315, 0}";
}
);
layerId = "8FAB7A87-DBD6-41A5-8B85-4E9492F941D1";
paths = (
{
closed = 1;
nodes = (
"55 0 LINE",
"258 0 LINE",
"258 25 LINE",
"208 23 LINE",
"194 23.667 OFFCURVE",
"187.333 31 OFFCURVE",
"188 45 CURVE SMOOTH",
"188 238 LINE",
"253 314 LINE",
"455 49 LINE SMOOTH",
"458.333 44.333 OFFCURVE",
"460 39.667 OFFCURVE",
"460 35 CURVE SMOOTH",
"460 27.667 OFFCURVE",
"454.333 24 OFFCURVE",
"443 24 CURVE SMOOTH",
"386 27 LINE",
"386 0 LINE",
"601 0 LINE",
"601 27 LINE",
"587.667 25 OFFCURVE",
"575.667 24 OFFCURVE",
"565 24 CURVE SMOOTH",
"557 24 OFFCURVE",
"549 28.667 OFFCURVE",
"541 38 CURVE SMOOTH",
"294 362 LINE",
"453 543 LINE SMOOTH",
"474.333 567 OFFCURVE",
"489.667 573.333 OFFCURVE",
"511 572 CURVE SMOOTH",
"545 570 LINE",
"545 597 LINE",
"368 597 LINE",
"368 570 LINE",
"412 572 LINE SMOOTH",
"418.667 572 OFFCURVE",
"422 569 OFFCURVE",
"422 563 CURVE SMOOTH",
"422 558.333 OFFCURVE",
"416.333 549.333 OFFCURVE",
"405 536 CURVE SMOOTH",
"188 278 LINE",
"188 550 LINE SMOOTH",
"188 564.667 OFFCURVE",
"194.667 572 OFFCURVE",
"208 572 CURVE SMOOTH",
"257 570 LINE",
"257 597 LINE",
"55 597 LINE",
"55 570 LINE",
"96 572 LINE SMOOTH",
"108 573.333 OFFCURVE",
"115 564.333 OFFCURVE",
"115 551 CURVE SMOOTH",
"115 45 LINE SMOOTH",
"115 30.333 OFFCURVE",
"108.333 23 OFFCURVE",
"95 23 CURVE SMOOTH",
"55 25 LINE",
"55 0 LINE"
);
}
);
userData = {
assembly = "NPUSHB[ ]	/* 63 values pushed */
48 34 12 11 8 1 6 1 5 1 74 10 8 7 3 5 5 6 93 9 1 6 6 17 75 12 11 4 2 4 1 1 0 93 3 1 0 0 21 0 76 0 0 0 51 0 50 45 43 42 41 38 33 17 21 33 17 39 49 18 13 7 29 
CALL[ ]	/* CallFunction */";
};
width = 607;
}
);
note = K;
rightKerningGroup = K;
unicode = 004B;
},
{
glyphname = L;
layers = (
{
anchors = (
{
name = bottom;
position = "{263, 0}";
},
{
name = center;
position = "{152, 267}";
},
{
name = top;
position = "{150, 597}";
},
{
name = topright;
position = "{280, 424}";
}
);
layerId = "3A4136D0-3900-4A7F-B896-13EBFCDD931C";
paths = (
{
closed = 1;
nodes = (
"492 171 LINE",
"466 171 LINE",
"466 77.667 OFFCURVE",
"418 28 OFFCURVE",
"326 28 CURVE SMOOTH",
"213 28 LINE SMOOTH",
"205 28 OFFCURVE",
"201 32.333 OFFCURVE",
"201 41 CURVE SMOOTH",
"201 548 LINE SMOOTH",
"201 560 OFFCURVE",
"208.333 569 OFFCURVE",
"219 569 CURVE SMOOTH",
"221 569 LINE",
"270 567 LINE",
"270 597 LINE",
"50 597 LINE",
"50 567 LINE",
"89 569 LINE SMOOTH",
"99.667 570.333 OFFCURVE",
"108 560 OFFCURVE",
"108 548 CURVE SMOOTH",
"108 49 LINE SMOOTH",
"108 34.333 OFFCURVE",
"103 27 OFFCURVE",
"93 27 CURVE SMOOTH",
"50 30 LINE",
"50 0 LINE",
"368 0 LINE SMOOTH",
"438.667 0 OFFCURVE",
"480 -1 OFFCURVE",
"492 -3 CURVE"
);
}
);
userData = {
assembly = "NPUSHB[ ]	/* 45 values pushed */
25 1 6 71 0 5 1 0 1 5 0 126 3 1 1 1 2 93 0 2 2 17 75 4 1 0 0 6 94 0 6 6 21 6 76 34 18 52 49 17 21 32 7 7 27 
CALL[ ]	/* CallFunction */";
};
width = 514;
},
{
anchors = (
{
name = bottom;
position = "{273, 0}";
},
{
name = center;
position = "{162, 267}";
},
{
name = top;
position = "{160, 597}";
},
{
name = topright;
position = "{276, 423}";
}
);
layerId = "A0AC7266-FF1C-4B13-9E61-C3CFB2289D5A";
paths = (
{
closed = 1;
nodes = (
"492 171 LINE",
"459 171 LINE",
"459 83 OFFCURVE",
"412.667 36 OFFCURVE",
"326 36 CURVE SMOOTH",
"243 36 LINE SMOOTH",
"235 36 OFFCURVE",
"231 40.333 OFFCURVE",
"231 49 CURVE SMOOTH",
"231 541 LINE SMOOTH",
"231 553 OFFCURVE",
"238.333 562 OFFCURVE",
"249 562 CURVE SMOOTH",
"251 562 LINE",
"300 560 LINE",
"300 597 LINE",
"39 597 LINE",
"39 560 LINE",
"74 562 LINE SMOOTH",
"84.667 563.333 OFFCURVE",
"93 553 OFFCURVE",
"93 541 CURVE SMOOTH",
"93 57 LINE SMOOTH",
"93 42.333 OFFCURVE",
"88 35 OFFCURVE",
"78 35 CURVE SMOOTH",
"39 38 LINE",
"39 0 LINE",
"368 0 LINE SMOOTH",
"438.667 0 OFFCURVE",
"480 -1 OFFCURVE",
"492 -3 CURVE"
);
}
);
userData = {
assembly = "NPUSHB[ ]	/* 10 values pushed */
0 1 0 5 1 74 25 1 6 71 
MPPEM[ ]	/* MeasurePixelPerEm */
PUSHB[ ]	/* 1 value pushed */
9 
LT[ ]	/* LessThan */
IF[ ]	/* If */
NPUSHB[ ]	/* 31 values pushed */
0 5 1 0 1 5 0 126 3 1 1 1 2 93 0 2 2 17 75 4 1 0 0 6 94 0 6 6 21 6 76 
ELSE[ ]	/* Else */
MPPEM[ ]	/* MeasurePixelPerEm */
PUSHB[ ]	/* 1 value pushed */
10 
LT[ ]	/* LessThan */
IF[ ]	/* If */
NPUSHB[ ]	/* 30 values pushed */
0 5 1 0 0 5 112 3 1 1 1 2 93 0 2 2 17 75 4 1 0 0 6 94 0 6 6 21 6 76 
ELSE[ ]	/* Else */
NPUSHB[ ]	/* 31 values pushed */
0 5 1 0 1 5 0 126 3 1 1 1 2 93 0 2 2 17 75 4 1 0 0 6 94 0 6 6 21 6 76 
EIF[ ]	/* EndIf */
EIF[ ]	/* EndIf */
NPUSHB[ ]	/* 10 values pushed */
34 18 52 49 17 21 17 7 7 27 
CALL[ ]	/* CallFunction */";
};
width = 514;
},
{
anchors = (
{
name = bottom;
position = "{259, 0}";
},
{
name = center;
position = "{148, 267}";
},
{
name = top;
position = "{146, 597}";
},
{
name = topright;
position = "{282, 424}";
}
);
layerId = "8FAB7A87-DBD6-41A5-8B85-4E9492F941D1";
paths = (
{
closed = 1;
nodes = (
"492 171 LINE",
"469 171 LINE",
"469 75 OFFCURVE",
"420.667 24 OFFCURVE",
"326 24 CURVE SMOOTH",
"200 24 LINE SMOOTH",
"192 24 OFFCURVE",
"188 28.333 OFFCURVE",
"188 37 CURVE SMOOTH",
"188 551 LINE SMOOTH",
"188 563 OFFCURVE",
"195.333 572 OFFCURVE",
"206 572 CURVE SMOOTH",
"208 572 LINE",
"257 570 LINE",
"257 597 LINE",
"55 597 LINE",
"55 570 LINE",
"96 572 LINE SMOOTH",
"106.667 573.333 OFFCURVE",
"115 563 OFFCURVE",
"115 551 CURVE SMOOTH",
"115 45 LINE SMOOTH",
"115 30.333 OFFCURVE",
"110 23 OFFCURVE",
"100 23 CURVE SMOOTH",
"55 26 LINE",
"55 0 LINE",
"368 0 LINE SMOOTH",
"438.667 0 OFFCURVE",
"480 -1 OFFCURVE",
"492 -3 CURVE"
);
}
);
userData = {
assembly = "NPUSHB[ ]	/* 45 values pushed */
25 1 6 71 0 5 1 0 1 5 0 126 3 1 1 1 2 93 0 2 2 17 75 4 1 0 0 6 94 0 6 6 21 6 76 34 18 52 49 17 21 32 7 7 27 
CALL[ ]	/* CallFunction */";
};
width = 514;
}
);
note = L;
rightKerningGroup = L;
unicode = 004C;
},
{
glyphname = M;
layers = (
{
layerId = "3A4136D0-3900-4A7F-B896-13EBFCDD931C";
paths = (
{
closed = 1;
nodes = (
"395 -10 LINE",
"419 -10 LINE",
"657 519 LINE",
"657 49 LINE SMOOTH",
"657 34.333 OFFCURVE",
"650.333 27 OFFCURVE",
"637 27 CURVE SMOOTH",
"588 29 LINE",
"588 0 LINE",
"808 0 LINE",
"808 29 LINE",
"769 27 LINE SMOOTH",
"755.667 27 OFFCURVE",
"749 34.333 OFFCURVE",
"749 49 CURVE SMOOTH",
"749 549 LINE SMOOTH",
"749 559.667 OFFCURVE",
"756.333 569 OFFCURVE",
"767 569 CURVE SMOOTH",
"769 569 LINE",
"803 567 LINE",
"803 597 LINE",
"658 597 LINE",
"439 113 LINE",
"206 597 LINE",
"52 597 LINE",
"52 567 LINE",
"94 569 LINE SMOOTH",
"100.667 569.667 OFFCURVE",
"104 567.667 OFFCURVE",
"104 563 CURVE SMOOTH",
"104 49 LINE SMOOTH",
"104 34.333 OFFCURVE",
"97.333 27 OFFCURVE",
"84 27 CURVE SMOOTH",
"45 29 LINE",
"45 0 LINE",
"206 0 LINE",
"206 29 LINE",
"157 27 LINE SMOOTH",
"144.333 27 OFFCURVE",
"138 34.333 OFFCURVE",
"138 49 CURVE SMOOTH",
"138 527 LINE",
"395 -10 LINE"
);
}
);
userData = {
assembly = "NPUSHB[ ]	/* 62 values pushed */
27 21 10 7 4 1 6 1 74 9 1 6 6 7 93 8 1 7 7 17 75 11 10 5 3 4 1 1 0 93 4 1 0 0 21 75 0 2 2 18 2 76 0 0 0 38 0 37 33 30 18 17 20 33 17 35 19 33 17 12 7 29 
CALL[ ]	/* CallFunction */";
};
width = 858;
},
{
layerId = "A0AC7266-FF1C-4B13-9E61-C3CFB2289D5A";
paths = (
{
closed = 1;
nodes = (
"391 -10 LINE",
"423 -10 LINE",
"653 501 LINE",
"653 57 LINE SMOOTH",
"653 42.333 OFFCURVE",
"646.333 35 OFFCURVE",
"633 35 CURVE SMOOTH",
"584 37 LINE",
"584 0 LINE",
"846 0 LINE",
"846 37 LINE",
"810 35 LINE SMOOTH",
"796.667 33.667 OFFCURVE",
"790 41 OFFCURVE",
"790 57 CURVE SMOOTH",
"790 542 LINE SMOOTH",
"790 552.667 OFFCURVE",
"797.333 562 OFFCURVE",
"808 562 CURVE SMOOTH",
"810 562 LINE",
"841 560 LINE",
"841 597 LINE",
"654 597 LINE",
"457 161 LINE",
"247 597 LINE",
"41 597 LINE",
"41 560 LINE",
"83 562 LINE SMOOTH",
"89.667 562.667 OFFCURVE",
"93 560.667 OFFCURVE",
"93 556 CURVE SMOOTH",
"93 57 LINE SMOOTH",
"93 42.333 OFFCURVE",
"86.333 35 OFFCURVE",
"73 35 CURVE SMOOTH",
"34 37 LINE",
"34 0 LINE",
"202 0 LINE",
"202 37 LINE",
"153 35 LINE SMOOTH",
"140.333 35 OFFCURVE",
"134 42.333 OFFCURVE",
"134 57 CURVE SMOOTH",
"134 527 LINE",
"391 -10 LINE"
);
}
);
userData = {
assembly = "NPUSHB[ ]	/* 62 values pushed */
27 21 10 7 4 1 6 1 74 9 1 6 6 7 93 8 1 7 7 17 75 11 10 5 3 4 1 1 0 93 4 1 0 0 21 75 0 2 2 18 2 76 0 0 0 38 0 38 33 30 18 17 20 33 17 35 19 33 17 12 7 29 
CALL[ ]	/* CallFunction */";
};
width = 884;
},
{
layerId = "8FAB7A87-DBD6-41A5-8B85-4E9492F941D1";
paths = (
{
closed = 1;
nodes = (
"397 -10 LINE",
"417 -10 LINE",
"659 527 LINE",
"659 45 LINE SMOOTH",
"659 30.333 OFFCURVE",
"652.333 23 OFFCURVE",
"639 23 CURVE SMOOTH",
"590 25 LINE",
"590 0 LINE",
"791 0 LINE",
"791 25 LINE",
"751 23 LINE",
"737 23.667 OFFCURVE",
"730.333 31 OFFCURVE",
"731 45 CURVE SMOOTH",
"731 552 LINE SMOOTH",
"731 562.667 OFFCURVE",
"738.333 572 OFFCURVE",
"749 572 CURVE SMOOTH",
"751 572 LINE",
"786 570 LINE",
"786 597 LINE",
"660 597 LINE",
"431 92 LINE",
"188 597 LINE",
"57 597 LINE",
"57 570 LINE",
"99 572 LINE SMOOTH",
"105.667 572.667 OFFCURVE",
"109 570.667 OFFCURVE",
"109 566 CURVE SMOOTH",
"109 45 LINE SMOOTH",
"109 30.333 OFFCURVE",
"102.333 23 OFFCURVE",
"89 23 CURVE SMOOTH",
"50 25 LINE",
"50 0 LINE",
"208 0 LINE",
"208 25 LINE",
"159 23 LINE SMOOTH",
"146.333 23 OFFCURVE",
"140 30.333 OFFCURVE",
"140 45 CURVE SMOOTH",
"140 527 LINE",
"397 -10 LINE"
);
}
);
userData = {
assembly = "NPUSHB[ ]	/* 62 values pushed */
27 21 10 7 4 1 6 1 74 9 1 6 6 7 93 8 1 7 7 17 75 11 10 5 3 4 1 1 0 93 4 1 0 0 21 75 0 2 2 18 2 76 0 0 0 38 0 37 33 30 18 17 20 33 17 35 19 33 17 12 7 29 
CALL[ ]	/* CallFunction */";
};
width = 846;
}
);
note = M;
unicode = 004D;
},
{
glyphname = N;
layers = (
{
anchors = (
{
name = bottom;
position = "{335, 0}";
},
{
name = top;
position = "{334, 597}";
}
);
layerId = "3A4136D0-3900-4A7F-B896-13EBFCDD931C";
paths = (
{
closed = 1;
nodes = (
"529 -6 LINE",
"559 -6 LINE",
"559 548 LINE SMOOTH",
"559 562 OFFCURVE",
"564.667 569 OFFCURVE",
"576 569 CURVE SMOOTH",
"578 569 LINE",
"617 567 LINE",
"617 597 LINE",
"456 597 LINE",
"456 567 LINE",
"505 569 LINE",
"508 569 LINE SMOOTH",
"519.333 569 OFFCURVE",
"525 562.333 OFFCURVE",
"525 549 CURVE SMOOTH",
"525 155 LINE",
"200 597 LINE",
"45 597 LINE",
"45 567 LINE",
"84 569 LINE SMOOTH",
"96 570.333 OFFCURVE",
"104 560 OFFCURVE",
"104 548 CURVE SMOOTH",
"104 49 LINE SMOOTH",
"104 34.333 OFFCURVE",
"97.333 27 OFFCURVE",
"84 27 CURVE SMOOTH",
"45 29 LINE",
"45 0 LINE",
"206 0 LINE",
"206 29 LINE",
"157 27 LINE SMOOTH",
"144.333 27 OFFCURVE",
"138 34.333 OFFCURVE",
"138 49 CURVE SMOOTH",
"138 525 LINE",
"529 -6 LINE"
);
}
);
userData = {
assembly = "NPUSHB[ ]	/* 55 values pushed */
26 8 2 2 0 1 74 7 5 2 0 0 6 93 9 8 2 6 6 17 75 4 1 2 2 3 93 0 3 3 21 75 0 1 1 18 1 76 0 0 0 32 0 32 51 17 21 33 17 35 18 49 10 7 28 
CALL[ ]	/* CallFunction */";
};
width = 662;
},
{
anchors = (
{
name = bottom;
position = "{346, 0}";
},
{
name = top;
position = "{345, 597}";
}
);
layerId = "A0AC7266-FF1C-4B13-9E61-C3CFB2289D5A";
paths = (
{
closed = 1;
nodes = (
"525 -6 LINE",
"585 -6 LINE",
"585 548 LINE SMOOTH",
"585 562 OFFCURVE",
"590.667 569 OFFCURVE",
"602 569 CURVE SMOOTH",
"604 569 LINE",
"643 567 LINE",
"643 597 LINE",
"475 597 LINE",
"475 567 LINE",
"524 569 LINE",
"527 569 LINE SMOOTH",
"538.333 569 OFFCURVE",
"544 562.333 OFFCURVE",
"544 549 CURVE SMOOTH",
"544 183 LINE",
"240 597 LINE",
"34 597 LINE",
"34 567 LINE",
"73 569 LINE SMOOTH",
"85 570.333 OFFCURVE",
"93 560 OFFCURVE",
"93 548 CURVE SMOOTH",
"93 49 LINE SMOOTH",
"93 34.333 OFFCURVE",
"86.333 27 OFFCURVE",
"73 27 CURVE SMOOTH",
"34 29 LINE",
"34 0 LINE",
"202 0 LINE",
"202 29 LINE",
"153 27 LINE SMOOTH",
"140.333 27 OFFCURVE",
"134 34.333 OFFCURVE",
"134 49 CURVE SMOOTH",
"134 525 LINE",
"525 -6 LINE"
);
}
);
userData = {
assembly = "PUSHB[ ]	/* 7 values pushed */
26 8 2 2 0 1 74 
MPPEM[ ]	/* MeasurePixelPerEm */
PUSHB[ ]	/* 1 value pushed */
10 
LT[ ]	/* LessThan */
IF[ ]	/* If */
NPUSHB[ ]	/* 27 values pushed */
7 5 2 0 0 6 93 9 8 2 6 6 17 75 4 1 2 2 1 93 3 1 1 1 18 1 76 
ELSE[ ]	/* Else */
NPUSHB[ ]	/* 31 values pushed */
7 5 2 0 0 6 93 9 8 2 6 6 17 75 4 1 2 2 3 93 0 3 3 21 75 0 1 1 18 1 76 
EIF[ ]	/* EndIf */
NPUSHB[ ]	/* 17 values pushed */
0 0 0 32 0 32 51 17 21 33 17 35 18 49 10 7 28 
CALL[ ]	/* CallFunction */";
};
width = 677;
},
{
anchors = (
{
name = bottom;
position = "{330, 0}";
},
{
name = top;
position = "{329, 597}";
}
);
layerId = "8FAB7A87-DBD6-41A5-8B85-4E9492F941D1";
paths = (
{
closed = 1;
nodes = (
"531 -6 LINE",
"547 -6 LINE",
"547 548 LINE SMOOTH",
"547 562 OFFCURVE",
"552.667 569 OFFCURVE",
"564 569 CURVE SMOOTH",
"566 569 LINE",
"605 567 LINE",
"605 597 LINE",
"448 597 LINE",
"448 567 LINE",
"497 569 LINE",
"500 569 LINE SMOOTH",
"511.333 569 OFFCURVE",
"517 562.333 OFFCURVE",
"517 549 CURVE SMOOTH",
"517 143 LINE",
"182 597 LINE",
"50 597 LINE",
"50 567 LINE",
"89 569 LINE SMOOTH",
"101 570.333 OFFCURVE",
"109 560 OFFCURVE",
"109 548 CURVE SMOOTH",
"109 49 LINE SMOOTH",
"109 34.333 OFFCURVE",
"102.333 27 OFFCURVE",
"89 27 CURVE SMOOTH",
"50 29 LINE",
"50 0 LINE",
"208 0 LINE",
"208 29 LINE",
"159 27 LINE SMOOTH",
"146.333 27 OFFCURVE",
"140 34.333 OFFCURVE",
"140 49 CURVE SMOOTH",
"140 525 LINE",
"531 -6 LINE"
);
}
);
userData = {
assembly = "NPUSHB[ ]	/* 55 values pushed */
26 8 2 2 0 1 74 7 5 2 0 0 6 93 9 8 2 6 6 17 75 4 1 2 2 3 93 0 3 3 21 75 0 1 1 18 1 76 0 0 0 32 0 32 51 17 21 33 17 35 18 49 10 7 28 
CALL[ ]	/* CallFunction */";
};
width = 655;
}
);
note = N;
unicode = 004E;
},
{
color = 3;
glyphname = Eng;
layers = (
{
layerId = "3A4136D0-3900-4A7F-B896-13EBFCDD931C";
paths = (
{
closed = 1;
nodes = (
"529 -6 LINE",
"559 -6 LINE",
"559 548 LINE SMOOTH",
"559 562 OFFCURVE",
"564.667 569 OFFCURVE",
"576 569 CURVE SMOOTH",
"578 569 LINE",
"617 567 LINE",
"617 597 LINE",
"456 597 LINE",
"456 567 LINE",
"505 569 LINE",
"508 569 LINE SMOOTH",
"519.333 569 OFFCURVE",
"525 562.333 OFFCURVE",
"525 549 CURVE SMOOTH",
"525 155 LINE",
"200 597 LINE",
"45 597 LINE",
"45 567 LINE",
"84 569 LINE SMOOTH",
"96 570.333 OFFCURVE",
"104 560 OFFCURVE",
"104 548 CURVE SMOOTH",
"104 49 LINE SMOOTH",
"104 34.333 OFFCURVE",
"97.333 27 OFFCURVE",
"84 27 CURVE SMOOTH",
"45 29 LINE",
"45 0 LINE",
"206 0 LINE",
"206 29 LINE",
"157 27 LINE SMOOTH",
"144.333 27 OFFCURVE",
"138 34.333 OFFCURVE",
"138 49 CURVE SMOOTH",
"138 525 LINE",
"529 -6 LINE"
);
},
{
closed = 1;
nodes = (
"511.333 -243 OFFCURVE",
"559 -163.333 OFFCURVE",
"559 -4 CURVE SMOOTH",
"559 100 LINE",
"473 100 LINE",
"473 -59 LINE SMOOTH",
"473 -79.667 OFFCURVE",
"473.667 -104.333 OFFCURVE",
"475 -133 CURVE SMOOTH",
"477.667 -188.333 OFFCURVE",
"460 -216 OFFCURVE",
"422 -216 CURVE SMOOTH",
"401.333 -216 OFFCURVE",
"391 -207.667 OFFCURVE",
"391 -191 CURVE SMOOTH",
"391 -188.333 OFFCURVE",
"392 -183.333 OFFCURVE",
"394 -176 CURVE SMOOTH",
"396 -168.667 OFFCURVE",
"397 -163.333 OFFCURVE",
"397 -160 CURVE SMOOTH",
"397 -138.667 OFFCURVE",
"378 -132 OFFCURVE",
"362 -132 CURVE SMOOTH",
"334 -132 OFFCURVE",
"315 -149.333 OFFCURVE",
"315 -176 CURVE SMOOTH",
"315 -213.333 OFFCURVE",
"354.667 -243 OFFCURVE",
"416 -243 CURVE SMOOTH"
);
}
);
width = 662;
},
{
layerId = "A0AC7266-FF1C-4B13-9E61-C3CFB2289D5A";
paths = (
{
closed = 1;
nodes = (
"525 -6 LINE",
"585 -6 LINE",
"585 548 LINE SMOOTH",
"585 562 OFFCURVE",
"590.667 569 OFFCURVE",
"602 569 CURVE SMOOTH",
"604 569 LINE",
"643 567 LINE",
"643 597 LINE",
"475 597 LINE",
"475 567 LINE",
"524 569 LINE",
"527 569 LINE SMOOTH",
"538.333 569 OFFCURVE",
"544 562.333 OFFCURVE",
"544 549 CURVE SMOOTH",
"544 183 LINE",
"240 597 LINE",
"34 597 LINE",
"34 567 LINE",
"73 569 LINE SMOOTH",
"85 570.333 OFFCURVE",
"93 560 OFFCURVE",
"93 548 CURVE SMOOTH",
"93 49 LINE SMOOTH",
"93 34.333 OFFCURVE",
"86.333 27 OFFCURVE",
"73 27 CURVE SMOOTH",
"34 29 LINE",
"34 0 LINE",
"202 0 LINE",
"202 29 LINE",
"153 27 LINE SMOOTH",
"140.333 27 OFFCURVE",
"134 34.333 OFFCURVE",
"134 49 CURVE SMOOTH",
"134 525 LINE",
"525 -6 LINE"
);
},
{
closed = 1;
nodes = (
"532.333 -243 OFFCURVE",
"585 -166 OFFCURVE",
"585 -12 CURVE SMOOTH",
"585 132 LINE",
"454 132 LINE",
"454 -37 LINE SMOOTH",
"454 -79 OFFCURVE",
"457.333 -118.667 OFFCURVE",
"464 -156 CURVE SMOOTH",
"470 -190 OFFCURVE",
"459.333 -207.667 OFFCURVE",
"432 -209 CURVE SMOOTH",
"417.333 -209.667 OFFCURVE",
"410 -201.333 OFFCURVE",
"410 -184 CURVE SMOOTH",
"410 -181.333 OFFCURVE",
"411 -176.333 OFFCURVE",
"413 -169 CURVE SMOOTH",
"415 -161.667 OFFCURVE",
"416 -156.333 OFFCURVE",
"416 -153 CURVE SMOOTH",
"416 -119.667 OFFCURVE",
"385 -108 OFFCURVE",
"361 -108 CURVE SMOOTH",
"322.333 -108 OFFCURVE",
"298 -131.333 OFFCURVE",
"298 -166 CURVE SMOOTH",
"298 -212.667 OFFCURVE",
"345.667 -243 OFFCURVE",
"427 -243 CURVE SMOOTH"
);
}
);
width = 677;
},
{
layerId = "8FAB7A87-DBD6-41A5-8B85-4E9492F941D1";
paths = (
{
closed = 1;
nodes = (
"531 -6 LINE",
"547 -6 LINE",
"547 548 LINE SMOOTH",
"547 562 OFFCURVE",
"552.667 569 OFFCURVE",
"564 569 CURVE SMOOTH",
"566 569 LINE",
"605 567 LINE",
"605 597 LINE",
"448 597 LINE",
"448 567 LINE",
"497 569 LINE",
"500 569 LINE SMOOTH",
"511.333 569 OFFCURVE",
"517 562.333 OFFCURVE",
"517 549 CURVE SMOOTH",
"517 143 LINE",
"182 597 LINE",
"50 597 LINE",
"50 567 LINE",
"89 569 LINE SMOOTH",
"101 570.333 OFFCURVE",
"109 560 OFFCURVE",
"109 548 CURVE SMOOTH",
"109 49 LINE SMOOTH",
"109 34.333 OFFCURVE",
"102.333 27 OFFCURVE",
"89 27 CURVE SMOOTH",
"50 29 LINE",
"50 0 LINE",
"208 0 LINE",
"208 29 LINE",
"159 27 LINE SMOOTH",
"146.333 27 OFFCURVE",
"140 34.333 OFFCURVE",
"140 49 CURVE SMOOTH",
"140 525 LINE",
"531 -6 LINE"
);
},
{
closed = 1;
nodes = (
"501.667 -243 OFFCURVE",
"547 -162 OFFCURVE",
"547 0 CURVE SMOOTH",
"547 86 LINE",
"481 86 LINE",
"481 -69 LINE SMOOTH",
"481 -80.333 OFFCURVE",
"480.667 -98.333 OFFCURVE",
"480 -123 CURVE SMOOTH",
"481.333 -188.333 OFFCURVE",
"460.667 -220.333 OFFCURVE",
"418 -219 CURVE SMOOTH",
"394.667 -219 OFFCURVE",
"383 -210.667 OFFCURVE",
"383 -194 CURVE SMOOTH",
"383 -191.333 OFFCURVE",
"384 -186.333 OFFCURVE",
"386 -179 CURVE SMOOTH",
"388 -171.667 OFFCURVE",
"389 -166.333 OFFCURVE",
"389 -163 CURVE SMOOTH",
"389 -147 OFFCURVE",
"375.333 -143 OFFCURVE",
"362 -143 CURVE SMOOTH",
"339.333 -143 OFFCURVE",
"323 -157.333 OFFCURVE",
"323 -180 CURVE SMOOTH",
"323 -213.333 OFFCURVE",
"359 -243 OFFCURVE",
"411 -243 CURVE SMOOTH"
);
}
);
width = 655;
}
);
unicode = 014A;
},
{
color = 3;
glyphname = Nhookleft;
layers = (
{
layerId = "3A4136D0-3900-4A7F-B896-13EBFCDD931C";
paths = (
{
closed = 1;
nodes = (
"529 -6 LINE",
"559 -6 LINE",
"559 548 LINE SMOOTH",
"559 562 OFFCURVE",
"564.667 569 OFFCURVE",
"576 569 CURVE SMOOTH",
"578 569 LINE",
"617 567 LINE",
"617 597 LINE",
"456 597 LINE",
"456 567 LINE",
"505 569 LINE",
"508 569 LINE SMOOTH",
"519.333 569 OFFCURVE",
"525 562.333 OFFCURVE",
"525 549 CURVE SMOOTH",
"525 155 LINE",
"200 597 LINE",
"45 597 LINE",
"45 567 LINE",
"84 569 LINE SMOOTH",
"96 570.333 OFFCURVE",
"104 560 OFFCURVE",
"104 548 CURVE",
"138 525 LINE",
"529 -6 LINE"
);
},
{
closed = 1;
nodes = (
"104.333 -243 OFFCURVE",
"138 -198.333 OFFCURVE",
"138 -109 CURVE SMOOTH",
"138 597 LINE",
"104 597 LINE",
"104 -46 LINE SMOOTH",
"104 -66.667 OFFCURVE",
"104.667 -91.333 OFFCURVE",
"106 -120 CURVE SMOOTH",
"108.667 -184 OFFCURVE",
"91 -216 OFFCURVE",
"53 -216 CURVE SMOOTH",
"33 -216 OFFCURVE",
"22.667 -207.667 OFFCURVE",
"22 -191 CURVE SMOOTH",
"22 -188.333 OFFCURVE",
"23 -183.333 OFFCURVE",
"25 -176 CURVE SMOOTH",
"27 -168.667 OFFCURVE",
"28 -163.333 OFFCURVE",
"28 -160 CURVE SMOOTH",
"28 -138.667 OFFCURVE",
"9 -132 OFFCURVE",
"-7 -132 CURVE SMOOTH",
"-35 -132 OFFCURVE",
"-54 -149.333 OFFCURVE",
"-54 -176 CURVE SMOOTH",
"-54 -213.333 OFFCURVE",
"-24.333 -243 OFFCURVE",
"37 -243 CURVE SMOOTH"
);
}
);
width = 662;
},
{
layerId = "A0AC7266-FF1C-4B13-9E61-C3CFB2289D5A";
paths = (
{
closed = 1;
nodes = (
"525 -6 LINE",
"585 -6 LINE",
"585 548 LINE SMOOTH",
"585 562 OFFCURVE",
"590.667 569 OFFCURVE",
"602 569 CURVE SMOOTH",
"604 569 LINE",
"643 567 LINE",
"643 597 LINE",
"475 597 LINE",
"475 567 LINE",
"524 569 LINE",
"527 569 LINE SMOOTH",
"538.333 569 OFFCURVE",
"544 562.333 OFFCURVE",
"544 549 CURVE SMOOTH",
"544 183 LINE",
"240 597 LINE",
"34 597 LINE",
"34 567 LINE",
"73 569 LINE SMOOTH",
"85 570.333 OFFCURVE",
"93 560 OFFCURVE",
"93 548 CURVE",
"134 525 LINE",
"525 -6 LINE"
);
},
{
closed = 1;
nodes = (
"101.333 -243 OFFCURVE",
"134 -206 OFFCURVE",
"134 -132 CURVE SMOOTH",
"134 597 LINE",
"93 597 LINE",
"93 3 LINE SMOOTH",
"94.333 -39 OFFCURVE",
"97.667 -78.667 OFFCURVE",
"103 -116 CURVE SMOOTH",
"111.667 -178 OFFCURVE",
"101 -209 OFFCURVE",
"71 -209 CURVE SMOOTH",
"57 -209 OFFCURVE",
"49.667 -200.667 OFFCURVE",
"49 -184 CURVE SMOOTH",
"49 -181.333 OFFCURVE",
"50 -176.333 OFFCURVE",
"52 -169 CURVE SMOOTH",
"54 -161.667 OFFCURVE",
"55 -156.333 OFFCURVE",
"55 -153 CURVE SMOOTH",
"55 -119.667 OFFCURVE",
"24 -108 OFFCURVE",
"0 -108 CURVE SMOOTH",
"-38.667 -108 OFFCURVE",
"-63 -131.333 OFFCURVE",
"-63 -166 CURVE SMOOTH",
"-63 -206 OFFCURVE",
"-30.667 -243 OFFCURVE",
"36 -243 CURVE SMOOTH"
);
}
);
width = 677;
},
{
layerId = "8FAB7A87-DBD6-41A5-8B85-4E9492F941D1";
paths = (
{
closed = 1;
nodes = (
"531 -6 LINE",
"547 -6 LINE",
"547 548 LINE SMOOTH",
"547 562 OFFCURVE",
"552.667 569 OFFCURVE",
"564 569 CURVE SMOOTH",
"566 569 LINE",
"605 567 LINE",
"605 597 LINE",
"448 597 LINE",
"448 567 LINE",
"497 569 LINE",
"500 569 LINE SMOOTH",
"511.333 569 OFFCURVE",
"517 562.333 OFFCURVE",
"517 549 CURVE SMOOTH",
"517 143 LINE",
"182 597 LINE",
"50 597 LINE",
"50 567 LINE",
"89 569 LINE SMOOTH",
"101 570.333 OFFCURVE",
"109 560 OFFCURVE",
"109 548 CURVE",
"140 525 LINE",
"531 -6 LINE"
);
},
{
closed = 1;
nodes = (
"105.667 -243 OFFCURVE",
"140 -195 OFFCURVE",
"140 -99 CURVE SMOOTH",
"140 597 LINE",
"109 597 LINE",
"109 -68 LINE SMOOTH",
"108.333 -79.333 OFFCURVE",
"107.667 -97.333 OFFCURVE",
"107 -122 CURVE SMOOTH",
"107 -186.667 OFFCURVE",
"86.333 -219 OFFCURVE",
"45 -219 CURVE SMOOTH",
"22.333 -219 OFFCURVE",
"10.667 -210.667 OFFCURVE",
"10 -194 CURVE SMOOTH",
"10 -191.333 OFFCURVE",
"11 -186.333 OFFCURVE",
"13 -179 CURVE SMOOTH",
"15 -171.667 OFFCURVE",
"16 -166.333 OFFCURVE",
"16 -163 CURVE SMOOTH",
"16 -147 OFFCURVE",
"2 -143 OFFCURVE",
"-10 -143 CURVE SMOOTH",
"-34 -143 OFFCURVE",
"-50 -157.333 OFFCURVE",
"-50 -180 CURVE SMOOTH",
"-50 -217.333 OFFCURVE",
"-21.667 -243 OFFCURVE",
"37 -243 CURVE SMOOTH"
);
}
);
width = 655;
}
);
unicode = 019D;
},
{
glyphname = O;
layers = (
{
anchors = (
{
name = bottom;
position = "{335, 0}";
},
{
name = center;
position = "{335, 299}";
},
{
name = ogonek;
position = "{429, 0}";
},
{
name = top;
position = "{335, 597}";
},
{
name = topright;
position = "{365, 597}";
}
);
layerId = "3A4136D0-3900-4A7F-B896-13EBFCDD931C";
paths = (
{
closed = 1;
nodes = (
"517.667 -10 OFFCURVE",
"625 103 OFFCURVE",
"625 299 CURVE SMOOTH",
"625 493.667 OFFCURVE",
"520.333 607 OFFCURVE",
"335 607 CURVE SMOOTH",
"152.333 607 OFFCURVE",
"45 497.667 OFFCURVE",
"45 299 CURVE SMOOTH",
"45 103 OFFCURVE",
"152.333 -10 OFFCURVE",
"335 -10 CURVE SMOOTH"
);
},
{
closed = 1;
nodes = (
"205.667 17 OFFCURVE",
"147 99 OFFCURVE",
"147 299 CURVE SMOOTH",
"147 497.667 OFFCURVE",
"205.667 580 OFFCURVE",
"335 580 CURVE SMOOTH",
"464.333 580 OFFCURVE",
"523 497.667 OFFCURVE",
"523 299 CURVE SMOOTH",
"523 99 OFFCURVE",
"464.333 17 OFFCURVE",
"335 17 CURVE SMOOTH"
);
}
);
userData = {
assembly = "NPUSHB[ ]	/* 28 values pushed */
0 3 3 0 95 0 0 0 25 75 0 2 2 1 95 0 1 1 26 1 76 36 36 36 33 4 7 24 
CALL[ ]	/* CallFunction */";
};
width = 670;
},
{
anchors = (
{
name = bottom;
position = "{339, 0}";
},
{
name = center;
position = "{339, 299}";
},
{
name = ogonek;
position = "{442, 0}";
},
{
name = top;
position = "{339, 597}";
},
{
name = topright;
position = "{371, 597}";
}
);
background = {
paths = (
{
closed = 1;
nodes = (
"30 152 OFFCURVE",
"192 -10 OFFCURVE",
"339 -10 QCURVE SMOOTH",
"486 -10 OFFCURVE",
"648 152 OFFCURVE",
"648 299 QCURVE SMOOTH",
"648 445 OFFCURVE",
"488 607 OFFCURVE",
"339 607 QCURVE SMOOTH",
"192 607 OFFCURVE",
"30 448 OFFCURVE",
"30 299 QCURVE SMOOTH"
);
},
{
closed = 1;
nodes = (
"181 403 OFFCURVE",
"215 523 OFFCURVE",
"283 573 OFFCURVE",
"339 573 QCURVE SMOOTH",
"395 573 OFFCURVE",
"463 523 OFFCURVE",
"497 403 OFFCURVE",
"497 299 QCURVE SMOOTH",
"497 194 OFFCURVE",
"463 75 OFFCURVE",
"395 25 OFFCURVE",
"339 25 QCURVE SMOOTH",
"283 25 OFFCURVE",
"215 75 OFFCURVE",
"181 194 OFFCURVE",
"181 299 QCURVE SMOOTH"
);
}
);
};
layerId = "A0AC7266-FF1C-4B13-9E61-C3CFB2289D5A";
paths = (
{
closed = 1;
nodes = (
"535 -10 OFFCURVE",
"648 103 OFFCURVE",
"648 299 CURVE SMOOTH",
"648 493.667 OFFCURVE",
"537.667 607 OFFCURVE",
"339 607 CURVE SMOOTH",
"143 607 OFFCURVE",
"30 497.667 OFFCURVE",
"30 299 CURVE SMOOTH",
"30 103 OFFCURVE",
"143 -10 OFFCURVE",
"339 -10 CURVE SMOOTH"
);
},
{
closed = 1;
nodes = (
"224.333 25 OFFCURVE",
"181 92.333 OFFCURVE",
"181 299 CURVE SMOOTH",
"181 504.333 OFFCURVE",
"224.333 573 OFFCURVE",
"339 573 CURVE SMOOTH",
"453.667 573 OFFCURVE",
"497 504.333 OFFCURVE",
"497 299 CURVE SMOOTH",
"497 92.333 OFFCURVE",
"453.667 25 OFFCURVE",
"339 25 CURVE SMOOTH"
);
}
);
userData = {
assembly = "NPUSHB[ ]	/* 28 values pushed */
0 3 3 0 95 0 0 0 25 75 0 2 2 1 95 0 1 1 26 1 76 38 37 36 33 4 7 24 
CALL[ ]	/* CallFunction */";
};
width = 678;
},
{
anchors = (
{
name = bottom;
position = "{333, 0}";
},
{
name = center;
position = "{333, 299}";
},
{
name = ogonek;
position = "{423, 0}";
},
{
name = top;
position = "{333, 597}";
},
{
name = topright;
position = "{362, 597}";
}
);
layerId = "8FAB7A87-DBD6-41A5-8B85-4E9492F941D1";
paths = (
{
closed = 1;
nodes = (
"510.333 -10 OFFCURVE",
"615 103 OFFCURVE",
"615 299 CURVE SMOOTH",
"615 493.667 OFFCURVE",
"513 607 OFFCURVE",
"333 607 CURVE SMOOTH",
"157 607 OFFCURVE",
"52 497.667 OFFCURVE",
"52 299 CURVE SMOOTH",
"52 103 OFFCURVE",
"157 -10 OFFCURVE",
"333 -10 CURVE SMOOTH"
);
},
{
closed = 1;
nodes = (
"197 13 OFFCURVE",
"132 101.667 OFFCURVE",
"132 299 CURVE SMOOTH",
"132 495 OFFCURVE",
"197 583 OFFCURVE",
"333 583 CURVE SMOOTH",
"469 583 OFFCURVE",
"535 495 OFFCURVE",
"535 299 CURVE SMOOTH",
"535 101.667 OFFCURVE",
"469 13 OFFCURVE",
"333 13 CURVE SMOOTH"
);
}
);
userData = {
assembly = "NPUSHB[ ]	/* 28 values pushed */
0 3 3 0 95 0 0 0 25 75 0 2 2 1 95 0 1 1 26 1 76 36 36 36 33 4 7 24 
CALL[ ]	/* CallFunction */";
};
width = 666;
}
);
leftKerningGroup = C;
note = O;
rightKerningGroup = D;
unicode = 004F;
},
{
glyphname = OE;
layers = (
{
layerId = "3A4136D0-3900-4A7F-B896-13EBFCDD931C";
paths = (
{
closed = 1;
nodes = (
"340.333 -10 OFFCURVE",
"354 -8.333 OFFCURVE",
"380 -5 CURVE SMOOTH",
"406 -1.667 OFFCURVE",
"439 0 OFFCURVE",
"479 0 CURVE SMOOTH",
"729 0 LINE SMOOTH",
"771.667 0 OFFCURVE",
"801 -1 OFFCURVE",
"817 -3 CURVE",
"817 179 LINE",
"790 179 LINE",
"790 81.667 OFFCURVE",
"742 27 OFFCURVE",
"650 27 CURVE SMOOTH",
"535 27 LINE SMOOTH",
"526.333 27 OFFCURVE",
"522 31.333 OFFCURVE",
"522 40 CURVE SMOOTH",
"522 297 LINE",
"598 297 LINE SMOOTH",
"640.667 297 OFFCURVE",
"675 253.667 OFFCURVE",
"675 195 CURVE",
"702 195 LINE",
"702 426 LINE",
"675 426 LINE",
"675 363.333 OFFCURVE",
"642 324 OFFCURVE",
"598 324 CURVE SMOOTH",
"522 324 LINE",
"522 555 LINE SMOOTH",
"522 564.333 OFFCURVE",
"526.333 569 OFFCURVE",
"535 569 CURVE SMOOTH",
"629 569 LINE SMOOTH",
"729 569 OFFCURVE",
"771 533.667 OFFCURVE",
"771 443 CURVE",
"798 443 LINE",
"798 597 LINE",
"471 597 LINE SMOOTH",
"452.333 597 OFFCURVE",
"432.333 598.667 OFFCURVE",
"411 602 CURVE SMOOTH",
"401.667 603.333 OFFCURVE",
"370 607 OFFCURVE",
"342 607 CURVE SMOOTH",
"144 607 OFFCURVE",
"45 502 OFFCURVE",
"45 292 CURVE SMOOTH",
"45 97.333 OFFCURVE",
"149.667 -10 OFFCURVE",
"339 -10 CURVE SMOOTH"
);
},
{
closed = 1;
nodes = (
"197.667 18 OFFCURVE",
"142 98.667 OFFCURVE",
"142 296 CURVE SMOOTH",
"142 496 OFFCURVE",
"199 581 OFFCURVE",
"335 581 CURVE SMOOTH",
"389.667 581 OFFCURVE",
"434 556.667 OFFCURVE",
"434 526 CURVE SMOOTH",
"434 90 LINE SMOOTH",
"434 48.667 OFFCURVE",
"408.333 18 OFFCURVE",
"335 18 CURVE SMOOTH"
);
}
);
userData = {
assembly = "PUSHB[ ]	/* 6 values pushed */
36 1 11 10 1 74 
MPPEM[ ]	/* MeasurePixelPerEm */
PUSHB[ ]	/* 1 value pushed */
10 
LT[ ]	/* LessThan */
IF[ ]	/* If */
NPUSHB[ ]	/* 74 values pushed */
0 2 3 5 3 2 112 0 9 6 8 6 9 8 126 0 4 0 7 6 4 7 101 0 13 13 0 95 0 0 0 25 75 0 3 3 1 93 0 1 1 17 75 0 6 6 5 93 0 5 5 20 75 0 8 8 10 94 0 10 10 21 75 0 12 12 11 95 0 11 11 26 11 76 
ELSE[ ]	/* Else */
NPUSHB[ ]	/* 75 values pushed */
0 2 3 5 3 2 5 126 0 9 6 8 6 9 8 126 0 4 0 7 6 4 7 101 0 13 13 0 95 0 0 0 25 75 0 3 3 1 93 0 1 1 17 75 0 6 6 5 93 0 5 5 20 75 0 8 8 10 94 0 10 10 21 75 0 12 12 11 95 0 11 11 26 11 76 
EIF[ ]	/* EndIf */
NPUSHB[ ]	/* 22 values pushed */
56 54 49 47 43 41 40 37 35 34 50 34 17 18 34 50 17 35 32 14 7 29 
CALL[ ]	/* CallFunction */";
};
width = 861;
},
{
background = {
paths = (
{
closed = 1;
nodes = (
"30 151 OFFCURVE",
"192 -10 OFFCURVE",
"339 -10 QCURVE SMOOTH",
"341 -10 OFFCURVE",
"419 0 OFFCURVE",
"479 0 QCURVE SMOOTH",
"766 0 LINE SMOOTH",
"836 0 OFFCURVE",
"861 -3 QCURVE",
"861 179 LINE",
"827 179 LINE",
"827 109 OFFCURVE",
"756 35 OFFCURVE",
"687 35 QCURVE SMOOTH",
"585 35 LINE SMOOTH",
"572 35 OFFCURVE",
"572 48 QCURVE SMOOTH",
"572 290 LINE",
"638 290 LINE SMOOTH",
"669 290 OFFCURVE",
"715 233 OFFCURVE",
"715 191 QCURVE",
"749 191 LINE",
"749 426 LINE",
"715 426 LINE",
"715 379 OFFCURVE",
"672 325 OFFCURVE",
"638 325 QCURVE SMOOTH",
"572 325 LINE",
"572 548 LINE SMOOTH",
"572 562 OFFCURVE",
"585 562 QCURVE SMOOTH",
"658 562 LINE SMOOTH",
"733 562 OFFCURVE",
"800 507 OFFCURVE",
"800 443 QCURVE",
"834 443 LINE",
"834 597 LINE",
"471 597 LINE SMOOTH",
"443 597 OFFCURVE",
"411 602 QCURVE SMOOTH",
"404 603 OFFCURVE",
"363 607 OFFCURVE",
"342 607 QCURVE SMOOTH",
"185 607 OFFCURVE",
"30 442 OFFCURVE",
"30 292 QCURVE SMOOTH"
);
},
{
closed = 1;
nodes = (
"180 397 OFFCURVE",
"212 519 OFFCURVE",
"279 574 OFFCURVE",
"335 574 QCURVE SMOOTH",
"376 574 OFFCURVE",
"434 546 OFFCURVE",
"434 526 QCURVE SMOOTH",
"434 90 LINE SMOOTH",
"434 63 OFFCURVE",
"390 26 OFFCURVE",
"335 26 QCURVE SMOOTH",
"279 26 OFFCURVE",
"211 78 OFFCURVE",
"180 196 OFFCURVE",
"180 296 QCURVE SMOOTH"
);
}
);
};
layerId = "A0AC7266-FF1C-4B13-9E61-C3CFB2289D5A";
paths = (
{
closed = 1;
nodes = (
"340.333 -10 OFFCURVE",
"354 -8.333 OFFCURVE",
"380 -5 CURVE SMOOTH",
"406 -1.667 OFFCURVE",
"439 0 OFFCURVE",
"479 0 CURVE SMOOTH",
"766 0 LINE SMOOTH",
"812.667 0 OFFCURVE",
"844.333 -1 OFFCURVE",
"861 -3 CURVE",
"861 179 LINE",
"827 179 LINE",
"827 85.667 OFFCURVE",
"779 35 OFFCURVE",
"687 35 CURVE SMOOTH",
"585 35 LINE SMOOTH",
"576.333 35 OFFCURVE",
"572 39.333 OFFCURVE",
"572 48 CURVE SMOOTH",
"572 290 LINE",
"638 290 LINE SMOOTH",
"679.333 290 OFFCURVE",
"715 247 OFFCURVE",
"715 191 CURVE",
"749 191 LINE",
"749 426 LINE",
"715 426 LINE",
"715 363.333 OFFCURVE",
"683.333 325 OFFCURVE",
"638 325 CURVE SMOOTH",
"572 325 LINE",
"572 548 LINE SMOOTH",
"572 557.333 OFFCURVE",
"576.333 562 OFFCURVE",
"585 562 CURVE SMOOTH",
"658 562 LINE SMOOTH",
"758 562 OFFCURVE",
"800 528.333 OFFCURVE",
"800 443 CURVE",
"834 443 LINE",
"834 597 LINE",
"471 597 LINE SMOOTH",
"452.333 597 OFFCURVE",
"432.333 598.667 OFFCURVE",
"411 602 CURVE SMOOTH",
"401.667 603.333 OFFCURVE",
"367.333 607 OFFCURVE",
"342 607 CURVE SMOOTH",
"134 607 OFFCURVE",
"30 502 OFFCURVE",
"30 292 CURVE SMOOTH",
"30 104 OFFCURVE",
"143 -10 OFFCURVE",
"339 -10 CURVE SMOOTH"
);
},
{
closed = 1;
nodes = (
"220.333 26 OFFCURVE",
"180 98.667 OFFCURVE",
"180 296 CURVE SMOOTH",
"180 484 OFFCURVE",
"219 574 OFFCURVE",
"335 574 CURVE SMOOTH",
"389.667 574 OFFCURVE",
"434 552.667 OFFCURVE",
"434 526 CURVE SMOOTH",
"434 90 LINE SMOOTH",
"434 54 OFFCURVE",
"408.333 26 OFFCURVE",
"335 26 CURVE SMOOTH"
);
}
);
userData = {
assembly = "PUSHB[ ]	/* 6 values pushed */
37 1 11 10 1 74 
MPPEM[ ]	/* MeasurePixelPerEm */
PUSHB[ ]	/* 1 value pushed */
10 
LT[ ]	/* LessThan */
IF[ ]	/* If */
NPUSHB[ ]	/* 74 values pushed */
0 2 3 5 3 2 112 0 9 6 8 6 9 8 126 0 4 0 7 6 4 7 103 0 13 13 0 95 0 0 0 25 75 0 3 3 1 93 0 1 1 17 75 0 6 6 5 93 0 5 5 20 75 0 8 8 10 94 0 10 10 21 75 0 12 12 11 95 0 11 11 26 11 76 
ELSE[ ]	/* Else */
NPUSHB[ ]	/* 75 values pushed */
0 2 3 5 3 2 5 126 0 9 6 8 6 9 8 126 0 4 0 7 6 4 7 103 0 13 13 0 95 0 0 0 25 75 0 3 3 1 93 0 1 1 17 75 0 6 6 5 93 0 5 5 20 75 0 8 8 10 94 0 10 10 21 75 0 12 12 11 95 0 11 11 26 11 76 
EIF[ ]	/* EndIf */
NPUSHB[ ]	/* 22 values pushed */
58 56 51 49 44 42 41 38 36 35 50 34 17 18 34 50 17 35 33 14 7 29 
CALL[ ]	/* CallFunction */";
};
width = 905;
},
{
layerId = "8FAB7A87-DBD6-41A5-8B85-4E9492F941D1";
paths = (
{
closed = 1;
nodes = (
"340.333 -10 OFFCURVE",
"354 -8.333 OFFCURVE",
"380 -5 CURVE SMOOTH",
"406 -1.667 OFFCURVE",
"439 0 OFFCURVE",
"479 0 CURVE SMOOTH",
"713 0 LINE SMOOTH",
"753.667 0 OFFCURVE",
"781.667 -1 OFFCURVE",
"797 -3 CURVE",
"797 179 LINE",
"774 179 LINE",
"774 80.333 OFFCURVE",
"726 23 OFFCURVE",
"634 23 CURVE SMOOTH",
"513 23 LINE SMOOTH",
"504.333 23 OFFCURVE",
"500 27.333 OFFCURVE",
"500 36 CURVE SMOOTH",
"500 300 LINE",
"580 300 LINE SMOOTH",
"624 300 OFFCURVE",
"657 257 OFFCURVE",
"657 197 CURVE",
"681 197 LINE",
"681 426 LINE",
"657 426 LINE",
"657 363.333 OFFCURVE",
"624 324 OFFCURVE",
"580 324 CURVE SMOOTH",
"500 324 LINE",
"500 558 LINE SMOOTH",
"500 567.333 OFFCURVE",
"504.333 572 OFFCURVE",
"513 572 CURVE SMOOTH",
"616 572 LINE SMOOTH",
"716 572 OFFCURVE",
"758 536.333 OFFCURVE",
"758 443 CURVE",
"782 443 LINE",
"782 597 LINE",
"471 597 LINE SMOOTH",
"452.333 597 OFFCURVE",
"432.333 598.667 OFFCURVE",
"411 602 CURVE SMOOTH",
"401.667 603.333 OFFCURVE",
"371.333 607 OFFCURVE",
"342 607 CURVE SMOOTH",
"148.667 607 OFFCURVE",
"52 502 OFFCURVE",
"52 292 CURVE SMOOTH",
"52 94.667 OFFCURVE",
"152.333 -10 OFFCURVE",
"339 -10 CURVE SMOOTH"
);
},
{
closed = 1;
nodes = (
"187 14 OFFCURVE",
"125 98.667 OFFCURVE",
"125 296 CURVE SMOOTH",
"125 501.333 OFFCURVE",
"189.667 584 OFFCURVE",
"335 584 CURVE SMOOTH",
"389.667 584 OFFCURVE",
"434 558 OFFCURVE",
"434 526 CURVE SMOOTH",
"434 90 LINE SMOOTH",
"434 46 OFFCURVE",
"408.333 14 OFFCURVE",
"335 14 CURVE SMOOTH"
);
}
);
userData = {
assembly = "PUSHB[ ]	/* 6 values pushed */
36 1 11 10 1 74 
MPPEM[ ]	/* MeasurePixelPerEm */
PUSHB[ ]	/* 1 value pushed */
10 
LT[ ]	/* LessThan */
IF[ ]	/* If */
NPUSHB[ ]	/* 74 values pushed */
0 2 3 5 3 2 112 0 9 6 8 6 9 8 126 0 4 0 7 6 4 7 101 0 13 13 0 95 0 0 0 25 75 0 3 3 1 93 0 1 1 17 75 0 6 6 5 93 0 5 5 20 75 0 8 8 10 94 0 10 10 21 75 0 12 12 11 95 0 11 11 26 11 76 
ELSE[ ]	/* Else */
NPUSHB[ ]	/* 75 values pushed */
0 2 3 5 3 2 5 126 0 9 6 8 6 9 8 126 0 4 0 7 6 4 7 101 0 13 13 0 95 0 0 0 25 75 0 3 3 1 93 0 1 1 17 75 0 6 6 5 93 0 5 5 20 75 0 8 8 10 94 0 10 10 21 75 0 12 12 11 95 0 11 11 26 11 76 
EIF[ ]	/* EndIf */
NPUSHB[ ]	/* 22 values pushed */
56 54 49 47 43 41 40 37 35 34 50 34 17 18 34 50 17 35 32 14 7 29 
CALL[ ]	/* CallFunction */";
};
width = 841;
}
);
leftKerningGroup = C;
note = OE;
unicode = 0152;
},
{
glyphname = P;
layers = (
{
layerId = "3A4136D0-3900-4A7F-B896-13EBFCDD931C";
paths = (
{
closed = 1;
nodes = (
"50 0 LINE",
"270 0 LINE",
"270 29 LINE",
"221 27 LINE SMOOTH",
"207.667 27 OFFCURVE",
"201 34.333 OFFCURVE",
"201 49 CURVE SMOOTH",
"201 263 LINE",
"306 263 LINE SMOOTH",
"418 263 OFFCURVE",
"488 330.667 OFFCURVE",
"488 436 CURVE SMOOTH",
"488 545.333 OFFCURVE",
"423.667 597 OFFCURVE",
"285 597 CURVE SMOOTH",
"50 597 LINE",
"50 567 LINE",
"85 569 LINE SMOOTH",
"102.333 570.333 OFFCURVE",
"108 563 OFFCURVE",
"108 547 CURVE SMOOTH",
"108 49 LINE SMOOTH",
"108 34.333 OFFCURVE",
"101.667 27 OFFCURVE",
"89 27 CURVE SMOOTH",
"50 29 LINE",
"50 0 LINE"
);
},
{
closed = 1;
nodes = (
"201 291 LINE",
"201 557 LINE SMOOTH",
"201 563.667 OFFCURVE",
"207.667 569 OFFCURVE",
"213 569 CURVE SMOOTH",
"269 569 LINE SMOOTH",
"343.667 569 OFFCURVE",
"392 516 OFFCURVE",
"392 436 CURVE SMOOTH",
"392 352 OFFCURVE",
"346.333 291 OFFCURVE",
"285 291 CURVE SMOOTH",
"201 291 LINE"
);
}
);
userData = {
assembly = "NPUSHB[ ]	/* 49 values pushed */
8 1 6 0 3 0 6 3 101 7 1 1 1 2 93 0 2 2 17 75 4 1 0 0 5 93 0 5 5 21 5 76 25 24 31 29 24 35 25 35 17 34 36 33 21 32 9 7 26 
CALL[ ]	/* CallFunction */";
};
width = 523;
},
{
layerId = "A0AC7266-FF1C-4B13-9E61-C3CFB2289D5A";
paths = (
{
closed = 1;
nodes = (
"39 0 LINE",
"300 0 LINE",
"300 37 LINE",
"251 35 LINE SMOOTH",
"237.667 35 OFFCURVE",
"231 42.333 OFFCURVE",
"231 57 CURVE SMOOTH",
"231 248 LINE",
"329 248 LINE SMOOTH",
"447.667 248 OFFCURVE",
"523 319.667 OFFCURVE",
"523 429 CURVE SMOOTH",
"523 542.333 OFFCURVE",
"452.667 597 OFFCURVE",
"302 597 CURVE SMOOTH",
"39 597 LINE",
"39 560 LINE",
"70 562 LINE SMOOTH",
"87.333 563.333 OFFCURVE",
"93 556 OFFCURVE",
"93 540 CURVE SMOOTH",
"93 57 LINE SMOOTH",
"93 42.333 OFFCURVE",
"87.333 35 OFFCURVE",
"76 35 CURVE SMOOTH",
"39 37 LINE",
"39 0 LINE"
);
},
{
closed = 1;
nodes = (
"231 284 LINE",
"231 550 LINE SMOOTH",
"231 556.667 OFFCURVE",
"237.667 562 OFFCURVE",
"243 562 CURVE SMOOTH",
"283 562 LINE SMOOTH",
"340.333 562 OFFCURVE",
"379 507.667 OFFCURVE",
"379 429 CURVE SMOOTH",
"379 345 OFFCURVE",
"339.333 284 OFFCURVE",
"286 284 CURVE SMOOTH",
"231 284 LINE"
);
}
);
userData = {
assembly = "NPUSHB[ ]	/* 49 values pushed */
8 1 6 0 3 0 6 3 101 7 1 1 1 2 93 0 2 2 17 75 4 1 0 0 5 93 0 5 5 21 5 76 26 25 32 30 25 36 26 36 17 34 36 33 21 48 9 7 26 
CALL[ ]	/* CallFunction */";
};
width = 547;
},
{
layerId = "8FAB7A87-DBD6-41A5-8B85-4E9492F941D1";
paths = (
{
closed = 1;
nodes = (
"55 0 LINE",
"257 0 LINE",
"257 25 LINE",
"208 23 LINE SMOOTH",
"194.667 23 OFFCURVE",
"188 30.333 OFFCURVE",
"188 45 CURVE SMOOTH",
"188 270 LINE",
"296 270 LINE SMOOTH",
"405.333 270 OFFCURVE",
"472 335 OFFCURVE",
"472 439 CURVE SMOOTH",
"472 547 OFFCURVE",
"410.333 597 OFFCURVE",
"277 597 CURVE SMOOTH",
"55 597 LINE",
"55 570 LINE",
"92 572 LINE SMOOTH",
"109.333 573.333 OFFCURVE",
"115 566 OFFCURVE",
"115 550 CURVE SMOOTH",
"115 45 LINE SMOOTH",
"115 30.333 OFFCURVE",
"108.333 23 OFFCURVE",
"95 23 CURVE SMOOTH",
"55 25 LINE",
"55 0 LINE"
);
},
{
closed = 1;
nodes = (
"188 294 LINE",
"188 560 LINE SMOOTH",
"188 566.667 OFFCURVE",
"194.667 572 OFFCURVE",
"200 572 CURVE SMOOTH",
"263 572 LINE SMOOTH",
"345.667 572 OFFCURVE",
"398 520.333 OFFCURVE",
"398 439 CURVE SMOOTH",
"398 355 OFFCURVE",
"349 294 OFFCURVE",
"285 294 CURVE SMOOTH",
"188 294 LINE"
);
}
);
userData = {
assembly = "NPUSHB[ ]	/* 49 values pushed */
8 1 6 0 3 0 6 3 101 7 1 1 1 2 93 0 2 2 17 75 4 1 0 0 5 93 0 5 5 21 5 76 25 24 31 29 24 35 25 35 17 34 36 33 21 32 9 7 26 
CALL[ ]	/* CallFunction */";
};
width = 512;
}
);
note = P;
rightKerningGroup = P;
unicode = 0050;
},
{
glyphname = Thorn;
layers = (
{
background = {
paths = (
{
closed = 1;
nodes = (
"50 0 LINE",
"270 0 LINE",
"270 29 LINE",
"221 27 LINE SMOOTH",
"201 26 OFFCURVE",
"201 49 QCURVE SMOOTH",
"201 162 LINE",
"304 162 LINE SMOOTH",
"391 162 OFFCURVE",
"489 255 OFFCURVE",
"489 334 QCURVE SMOOTH",
"489 418 OFFCURVE",
"389 496 OFFCURVE",
"283 496 QCURVE SMOOTH",
"201 496 LINE",
"201 548 LINE SMOOTH",
"201 557 OFFCURVE",
"212 569 OFFCURVE",
"221 569 QCURVE",
"270 567 LINE",
"270 597 LINE",
"50 597 LINE",
"50 567 LINE",
"89 569 LINE",
"98 569 OFFCURVE",
"108 557 OFFCURVE",
"108 548 QCURVE SMOOTH",
"108 49 LINE SMOOTH",
"108 39 OFFCURVE",
"100 27 OFFCURVE",
"91 27 QCURVE SMOOTH",
"89 27 LINE",
"50 29 LINE"
);
},
{
closed = 1;
nodes = (
"201 471 LINE",
"267 471 LINE SMOOTH",
"325 471 OFFCURVE",
"393 396 OFFCURVE",
"393 334 QCURVE SMOOTH",
"393 294 OFFCURVE",
"363 227 OFFCURVE",
"312 188 OFFCURVE",
"283 188 QCURVE SMOOTH",
"214 188 LINE SMOOTH",
"209 188 OFFCURVE",
"201 196 OFFCURVE",
"201 201 QCURVE SMOOTH"
);
}
);
};
layerId = "3A4136D0-3900-4A7F-B896-13EBFCDD931C";
paths = (
{
closed = 1;
nodes = (
"50 0 LINE",
"270 0 LINE",
"270 29 LINE",
"221 27 LINE SMOOTH",
"207.667 26.333 OFFCURVE",
"201 33.667 OFFCURVE",
"201 49 CURVE SMOOTH",
"201 162 LINE",
"304 162 LINE SMOOTH",
"420 162 OFFCURVE",
"489 228.667 OFFCURVE",
"489 334 CURVE SMOOTH",
"489 446 OFFCURVE",
"424.333 496 OFFCURVE",
"283 496 CURVE SMOOTH",
"201 496 LINE",
"201 548 LINE SMOOTH",
"201 560 OFFCURVE",
"209 569 OFFCURVE",
"221 569 CURVE SMOOTH",
"270 567 LINE",
"270 597 LINE",
"50 597 LINE",
"50 567 LINE",
"89 569 LINE SMOOTH",
"101 569 OFFCURVE",
"108 560 OFFCURVE",
"108 548 CURVE SMOOTH",
"108 49 LINE SMOOTH",
"108 35.667 OFFCURVE",
"103 27 OFFCURVE",
"91 27 CURVE SMOOTH",
"89 27 LINE",
"50 29 LINE",
"50 0 LINE"
);
},
{
closed = 1;
nodes = (
"214 188 LINE",
"207.333 188 OFFCURVE",
"201 194.333 OFFCURVE",
"201 201 CURVE SMOOTH",
"201 471 LINE",
"267 471 LINE SMOOTH",
"344.333 471 OFFCURVE",
"393 416.667 OFFCURVE",
"393 334 CURVE SMOOTH",
"393 255.333 OFFCURVE",
"344.333 188 OFFCURVE",
"283 188 CURVE SMOOTH",
"214 188 LINE"
);
}
);
userData = {
assembly = "NPUSHB[ ]	/* 59 values pushed */
45 1 8 9 1 74 0 4 0 9 8 4 9 103 0 8 0 5 0 8 5 101 3 1 1 1 2 93 0 2 2 17 75 6 1 0 0 7 93 0 7 7 21 7 76 44 42 50 17 34 36 35 33 17 37 48 10 7 29 
CALL[ ]	/* CallFunction */";
};
width = 524;
},
{
layerId = "A0AC7266-FF1C-4B13-9E61-C3CFB2289D5A";
paths = (
{
closed = 1;
nodes = (
"39 0 LINE",
"300 0 LINE",
"300 29 LINE",
"251 27 LINE SMOOTH",
"237.667 26.333 OFFCURVE",
"231 33.667 OFFCURVE",
"231 49 CURVE SMOOTH",
"231 162 LINE",
"327 162 LINE SMOOTH",
"448.333 162 OFFCURVE",
"519 223.333 OFFCURVE",
"519 334 CURVE SMOOTH",
"519 451.333 OFFCURVE",
"455.333 496 OFFCURVE",
"306 496 CURVE SMOOTH",
"231 496 LINE",
"231 548 LINE SMOOTH",
"231 560 OFFCURVE",
"239 569 OFFCURVE",
"251 569 CURVE SMOOTH",
"300 567 LINE",
"300 597 LINE",
"39 597 LINE",
"39 567 LINE",
"74 569 LINE SMOOTH",
"86 570.333 OFFCURVE",
"93 560 OFFCURVE",
"93 548 CURVE SMOOTH",
"93 49 LINE SMOOTH",
"93 35.667 OFFCURVE",
"88 27 OFFCURVE",
"76 27 CURVE SMOOTH",
"74 27 LINE",
"39 29 LINE",
"39 0 LINE"
);
},
{
closed = 1;
nodes = (
"244 188 LINE",
"237.333 188 OFFCURVE",
"231 194.333 OFFCURVE",
"231 201 CURVE SMOOTH",
"231 471 LINE",
"275 471 LINE SMOOTH",
"340.333 471 OFFCURVE",
"378 422 OFFCURVE",
"378 334 CURVE SMOOTH",
"378 247.333 OFFCURVE",
"339 188 OFFCURVE",
"291 188 CURVE SMOOTH",
"244 188 LINE"
);
}
);
userData = {
assembly = "NPUSHB[ ]	/* 59 values pushed */
44 1 8 9 1 74 0 4 0 9 8 4 9 103 0 8 0 5 0 8 5 101 3 1 1 1 2 93 0 2 2 17 75 6 1 0 0 7 93 0 7 7 21 7 76 43 41 50 17 34 36 35 33 17 22 48 10 7 29 
CALL[ ]	/* CallFunction */";
};
width = 543;
},
{
layerId = "8FAB7A87-DBD6-41A5-8B85-4E9492F941D1";
paths = (
{
closed = 1;
nodes = (
"55 0 LINE",
"257 0 LINE",
"257 29 LINE",
"208 27 LINE SMOOTH",
"194.667 26.333 OFFCURVE",
"188 33.667 OFFCURVE",
"188 49 CURVE SMOOTH",
"188 162 LINE",
"294 162 LINE SMOOTH",
"407.333 162 OFFCURVE",
"476 231.333 OFFCURVE",
"476 334 CURVE SMOOTH",
"476 443.333 OFFCURVE",
"410.333 496 OFFCURVE",
"273 496 CURVE SMOOTH",
"188 496 LINE",
"188 548 LINE SMOOTH",
"188 560 OFFCURVE",
"196 569 OFFCURVE",
"208 569 CURVE SMOOTH",
"257 567 LINE",
"257 597 LINE",
"55 597 LINE",
"55 567 LINE",
"96 569 LINE SMOOTH",
"106.667 569 OFFCURVE",
"115 560 OFFCURVE",
"115 548 CURVE SMOOTH",
"115 49 LINE SMOOTH",
"115 35.667 OFFCURVE",
"110 27 OFFCURVE",
"98 27 CURVE SMOOTH",
"96 27 LINE",
"55 29 LINE",
"55 0 LINE"
);
},
{
closed = 1;
nodes = (
"201 188 LINE",
"194.333 188 OFFCURVE",
"188 194.333 OFFCURVE",
"188 201 CURVE SMOOTH",
"188 471 LINE",
"263 471 LINE SMOOTH",
"345.667 471 OFFCURVE",
"400 414 OFFCURVE",
"400 334 CURVE SMOOTH",
"400 259.333 OFFCURVE",
"347 188 OFFCURVE",
"279 188 CURVE SMOOTH",
"201 188 LINE"
);
}
);
userData = {
assembly = "NPUSHB[ ]	/* 59 values pushed */
45 1 8 9 1 74 0 4 0 9 8 4 9 103 0 8 0 5 0 8 5 101 3 1 1 1 2 93 0 2 2 17 75 6 1 0 0 7 93 0 7 7 21 7 76 44 42 50 17 34 36 35 33 17 37 48 10 7 29 
CALL[ ]	/* CallFunction */";
};
width = 516;
}
);
note = Thorn;
unicode = 00DE;
},
{
color = 3;
glyphname = Q;
layers = (
{
background = {
paths = (
{
closed = 1;
nodes = (
"500 7 OFFCURVE",
"625 166 OFFCURVE",
"625 299 QCURVE SMOOTH",
"625 445 OFFCURVE",
"474 607 OFFCURVE",
"335 607 QCURVE SMOOTH",
"198 607 OFFCURVE",
"45 448 OFFCURVE",
"45 299 QCURVE SMOOTH",
"45 167 OFFCURVE",
"170 8 OFFCURVE",
"284 -7 QCURVE",
"284 -62 OFFCURVE",
"350 -148 OFFCURVE",
"467 -196 OFFCURVE",
"541 -196 QCURVE",
"554 -166 LINE",
"473 -164 OFFCURVE",
"385 -72 OFFCURVE",
"385 -7 QCURVE"
);
},
{
closed = 1;
nodes = (
"147 448 OFFCURVE",
"238 580 OFFCURVE",
"335 580 QCURVE SMOOTH",
"432 580 OFFCURVE",
"523 448 OFFCURVE",
"523 299 QCURVE SMOOTH",
"523 149 OFFCURVE",
"432 17 OFFCURVE",
"335 17 QCURVE SMOOTH",
"238 17 OFFCURVE",
"147 149 OFFCURVE",
"147 299 QCURVE SMOOTH"
);
}
);
};
layerId = "3A4136D0-3900-4A7F-B896-13EBFCDD931C";
paths = (
{
closed = 1;
nodes = (
"517.667 -10 OFFCURVE",
"625 103 OFFCURVE",
"625 299 CURVE SMOOTH",
"625 493.667 OFFCURVE",
"520.333 607 OFFCURVE",
"335 607 CURVE SMOOTH",
"152.333 607 OFFCURVE",
"45 497.667 OFFCURVE",
"45 299 CURVE SMOOTH",
"45 103 OFFCURVE",
"152.333 -10 OFFCURVE",
"335 -10 CURVE SMOOTH"
);
},
{
closed = 1;
nodes = (
"502 -194 OFFCURVE",
"542 -191 OFFCURVE",
"584 -166 CURVE",
"575 -140 LINE",
"461 -176 OFFCURVE",
"449 -37 OFFCURVE",
"335 -10 CURVE",
"273 0 LINE",
"371 -109 OFFCURVE",
"417 -194 OFFCURVE",
"478 -194 CURVE SMOOTH"
);
},
{
closed = 1;
nodes = (
"205.667 17 OFFCURVE",
"147 99 OFFCURVE",
"147 299 CURVE SMOOTH",
"147 497.667 OFFCURVE",
"205.667 580 OFFCURVE",
"335 580 CURVE SMOOTH",
"464.333 580 OFFCURVE",
"523 497.667 OFFCURVE",
"523 299 CURVE SMOOTH",
"523 99 OFFCURVE",
"464.333 17 OFFCURVE",
"335 17 CURVE SMOOTH"
);
}
);
userData = {
assembly = "NPUSHB[ ]	/* 41 values pushed */
20 8 2 0 3 1 74 0 3 4 0 4 3 0 126 0 0 0 1 0 1 99 0 4 4 2 95 0 2 2 25 4 76 36 39 40 17 18 5 7 25 
CALL[ ]	/* CallFunction */";
};
width = 670;
},
{
background = {
paths = (
{
closed = 1;
nodes = (
"523 13 OFFCURVE",
"648 170 OFFCURVE",
"648 299 QCURVE SMOOTH",
"648 445 OFFCURVE",
"488 607 OFFCURVE",
"339 607 QCURVE SMOOTH",
"192 607 OFFCURVE",
"30 448 OFFCURVE",
"30 299 QCURVE SMOOTH",
"30 173 OFFCURVE",
"151 17 OFFCURVE",
"262 -3 QCURVE",
"261 -59 OFFCURVE",
"329 -147 OFFCURVE",
"457 -196 OFFCURVE",
"541 -196 QCURVE",
"551 -160 LINE",
"485 -160 OFFCURVE",
"406 -73 OFFCURVE",
"408 -5 QCURVE SMOOTH"
);
},
{
closed = 1;
nodes = (
"181 443 OFFCURVE",
"249 573 OFFCURVE",
"339 573 QCURVE SMOOTH",
"432 573 OFFCURVE",
"497 435 OFFCURVE",
"497 299 QCURVE SMOOTH",
"497 149 OFFCURVE",
"425 25 OFFCURVE",
"339 25 QCURVE SMOOTH",
"253 25 OFFCURVE",
"181 149 OFFCURVE",
"181 299 QCURVE SMOOTH"
);
}
);
};
layerId = "A0AC7266-FF1C-4B13-9E61-C3CFB2289D5A";
paths = (
{
closed = 1;
nodes = (
"535 -10 OFFCURVE",
"648 103 OFFCURVE",
"648 299 CURVE SMOOTH",
"648 493.667 OFFCURVE",
"537.667 607 OFFCURVE",
"339 607 CURVE SMOOTH",
"143 607 OFFCURVE",
"30 497.667 OFFCURVE",
"30 299 CURVE SMOOTH",
"30 103 OFFCURVE",
"143 -10 OFFCURVE",
"339 -10 CURVE SMOOTH"
);
},
{
closed = 1;
nodes = (
"514 -203 OFFCURVE",
"561 -193 OFFCURVE",
"603 -168 CURVE",
"587 -133 LINE",
"465 -181 OFFCURVE",
"494 -29 OFFCURVE",
"339 -10 CURVE SMOOTH",
"275 0 LINE",
"373 -109 OFFCURVE",
"429 -203 OFFCURVE",
"490 -203 CURVE SMOOTH"
);
},
{
closed = 1;
nodes = (
"224.333 25 OFFCURVE",
"181 92.333 OFFCURVE",
"181 299 CURVE SMOOTH",
"181 504.333 OFFCURVE",
"224.333 573 OFFCURVE",
"339 573 CURVE SMOOTH",
"453.667 573 OFFCURVE",
"497 504.333 OFFCURVE",
"497 299 CURVE SMOOTH",
"497 92.333 OFFCURVE",
"453.667 25 OFFCURVE",
"339 25 CURVE SMOOTH"
);
}
);
userData = {
assembly = "NPUSHB[ ]	/* 41 values pushed */
10 2 2 0 3 1 74 0 3 4 0 4 3 0 126 0 0 0 1 0 1 99 0 4 4 2 95 0 2 2 25 4 76 38 37 40 17 20 5 7 25 
CALL[ ]	/* CallFunction */";
};
width = 678;
},
{
layerId = "8FAB7A87-DBD6-41A5-8B85-4E9492F941D1";
paths = (
{
closed = 1;
nodes = (
"510.333 -10 OFFCURVE",
"615 103 OFFCURVE",
"615 299 CURVE SMOOTH",
"615 493.667 OFFCURVE",
"513 607 OFFCURVE",
"333 607 CURVE SMOOTH",
"157 607 OFFCURVE",
"52 497.667 OFFCURVE",
"52 299 CURVE SMOOTH",
"52 103 OFFCURVE",
"157 -10 OFFCURVE",
"333 -10 CURVE SMOOTH"
);
},
{
closed = 1;
nodes = (
"497 -190 OFFCURVE",
"534 -190 OFFCURVE",
"576 -165 CURVE",
"570 -143 LINE",
"458 -174 OFFCURVE",
"430 -41 OFFCURVE",
"333 -10 CURVE",
"272 0 LINE",
"370 -109 OFFCURVE",
"412 -190 OFFCURVE",
"473 -190 CURVE SMOOTH"
);
},
{
closed = 1;
nodes = (
"197 13 OFFCURVE",
"132 101.667 OFFCURVE",
"132 299 CURVE SMOOTH",
"132 495 OFFCURVE",
"197 583 OFFCURVE",
"333 583 CURVE SMOOTH",
"469 583 OFFCURVE",
"535 495 OFFCURVE",
"535 299 CURVE SMOOTH",
"535 101.667 OFFCURVE",
"469 13 OFFCURVE",
"333 13 CURVE SMOOTH"
);
}
);
userData = {
assembly = "NPUSHB[ ]	/* 41 values pushed */
20 8 2 0 3 1 74 0 3 4 0 4 3 0 126 0 0 0 1 0 1 99 0 4 4 2 95 0 2 2 25 4 76 36 39 40 17 18 5 7 25 
CALL[ ]	/* CallFunction */";
};
width = 666;
}
);
leftKerningGroup = C;
note = Q;
rightKerningGroup = D;
unicode = 0051;
},
{
glyphname = R;
layers = (
{
anchors = (
{
name = bottom;
position = "{296, 0}";
},
{
name = top;
position = "{295, 597}";
}
);
layerId = "3A4136D0-3900-4A7F-B896-13EBFCDD931C";
paths = (
{
closed = 1;
nodes = (
"50 0 LINE",
"270 0 LINE",
"270 29 LINE",
"221 27 LINE SMOOTH",
"207.667 27 OFFCURVE",
"201 34.333 OFFCURVE",
"201 49 CURVE SMOOTH",
"201 286 LINE",
"243 286 LINE SMOOTH",
"336.333 286 OFFCURVE",
"410 237 OFFCURVE",
"410 137 CURVE SMOOTH",
"410 104 LINE SMOOTH",
"410 96 OFFCURVE",
"410.667 83.333 OFFCURVE",
"412 66 CURVE SMOOTH",
"413.333 38.667 OFFCURVE",
"418 16.667 OFFCURVE",
"426 0 CURVE",
"562 0 LINE",
"562 30 LINE",
"557.333 27.333 OFFCURVE",
"551 26 OFFCURVE",
"543 26 CURVE SMOOTH",
"537.667 26 OFFCURVE",
"533 26.667 OFFCURVE",
"529 28 CURVE",
"510.333 30.667 OFFCURVE",
"500 82 OFFCURVE",
"500 122 CURVE SMOOTH",
"500 192.667 OFFCURVE",
"468.5 248 OFFCURVE",
"426.5 276 CURVE SMOOTH",
"405.5 290 OFFCURVE",
"384.667 297 OFFCURVE",
"364 297 CURVE",
"437.333 317 OFFCURVE",
"486 370 OFFCURVE",
"486 438 CURVE SMOOTH",
"486 550 OFFCURVE",
"423 597 OFFCURVE",
"275 597 CURVE SMOOTH",
"50 597 LINE",
"50 567 LINE",
"86 569 LINE SMOOTH",
"100.667 570.333 OFFCURVE",
"108 560 OFFCURVE",
"108 548 CURVE SMOOTH",
"108 49 LINE SMOOTH",
"108 34.333 OFFCURVE",
"101.667 27 OFFCURVE",
"89 27 CURVE SMOOTH",
"50 29 LINE",
"50 0 LINE"
);
},
{
closed = 1;
nodes = (
"201 313 LINE",
"201 559 LINE SMOOTH",
"201 565.667 OFFCURVE",
"205 569 OFFCURVE",
"213 569 CURVE SMOOTH",
"275 569 LINE SMOOTH",
"355 569 OFFCURVE",
"392 530 OFFCURVE",
"392 438 CURVE SMOOTH",
"392 359.333 OFFCURVE",
"355.333 313 OFFCURVE",
"294 313 CURVE SMOOTH",
"201 313 LINE"
);
}
);
userData = {
assembly = "NPUSHB[ ]	/* 69 values pushed */
31 27 2 0 6 1 74 0 3 9 6 9 3 6 126 11 1 9 0 6 0 9 6 103 10 1 1 1 2 93 0 2 2 17 75 7 4 2 0 0 5 93 8 1 5 5 21 5 76 46 45 53 50 45 55 46 55 17 34 39 18 24 21 33 21 32 12 7 29 
CALL[ ]	/* CallFunction */";
};
width = 581;
},
{
anchors = (
{
name = bottom;
position = "{300, 0}";
},
{
name = top;
position = "{299, 597}";
}
);
layerId = "A0AC7266-FF1C-4B13-9E61-C3CFB2289D5A";
paths = (
{
closed = 1;
nodes = (
"39 0 LINE",
"300 0 LINE",
"300 37 LINE",
"251 35 LINE SMOOTH",
"237.667 35 OFFCURVE",
"231 42.333 OFFCURVE",
"231 57 CURVE SMOOTH",
"231 271 LINE",
"258 271 LINE SMOOTH",
"330 271 OFFCURVE",
"388 227.667 OFFCURVE",
"388 137 CURVE SMOOTH",
"388 104 LINE SMOOTH",
"388 96 OFFCURVE",
"388.667 83.333 OFFCURVE",
"390 66 CURVE SMOOTH",
"391.333 38.667 OFFCURVE",
"396 16.667 OFFCURVE",
"404 0 CURVE",
"581 0 LINE",
"581 30 LINE",
"576.333 27.333 OFFCURVE",
"571 26 OFFCURVE",
"565 26 CURVE SMOOTH",
"560.333 26 OFFCURVE",
"556 26.667 OFFCURVE",
"552 28 CURVE SMOOTH",
"536 32 OFFCURVE",
"523 84.667 OFFCURVE",
"523 122 CURVE SMOOTH",
"523 190 OFFCURVE",
"486.333 243.333 OFFCURVE",
"437 270 CURVE SMOOTH",
"412.333 283.333 OFFCURVE",
"388 290 OFFCURVE",
"364 290 CURVE",
"454.667 308.667 OFFCURVE",
"509 365.667 OFFCURVE",
"509 447 CURVE SMOOTH",
"509 549.667 OFFCURVE",
"442 597 OFFCURVE",
"298 597 CURVE SMOOTH",
"39 597 LINE",
"39 560 LINE",
"71 562 LINE SMOOTH",
"85.667 563.333 OFFCURVE",
"93 553 OFFCURVE",
"93 541 CURVE SMOOTH",
"93 57 LINE SMOOTH",
"93 42.333 OFFCURVE",
"87.333 35 OFFCURVE",
"76 35 CURVE SMOOTH",
"39 37 LINE",
"39 0 LINE"
);
},
{
closed = 1;
nodes = (
"231 306 LINE",
"231 552 LINE SMOOTH",
"231 558.667 OFFCURVE",
"235 562 OFFCURVE",
"243 562 CURVE SMOOTH",
"275 562 LINE SMOOTH",
"341.667 562 OFFCURVE",
"373 523.333 OFFCURVE",
"373 434 CURVE SMOOTH",
"373 355.333 OFFCURVE",
"342 306 OFFCURVE",
"294 306 CURVE SMOOTH",
"231 306 LINE"
);
}
);
userData = {
assembly = "NPUSHB[ ]	/* 82 values pushed */
32 1 0 6 28 1 4 0 2 74 0 3 9 6 9 3 6 126 11 1 9 0 6 0 9 6 103 10 1 1 1 2 93 0 2 2 17 75 7 1 0 0 5 93 8 1 5 5 21 75 0 4 4 5 93 8 1 5 5 21 5 76 47 46 54 51 46 56 47 56 17 34 39 18 24 21 33 21 48 12 7 29 
CALL[ ]	/* CallFunction */";
};
width = 597;
},
{
anchors = (
{
name = bottom;
position = "{294, 0}";
},
{
name = top;
position = "{293, 597}";
}
);
layerId = "8FAB7A87-DBD6-41A5-8B85-4E9492F941D1";
paths = (
{
closed = 1;
nodes = (
"55 0 LINE",
"257 0 LINE",
"257 25 LINE",
"208 23 LINE SMOOTH",
"194.667 23 OFFCURVE",
"188 30.333 OFFCURVE",
"188 45 CURVE SMOOTH",
"188 293 LINE",
"236 293 LINE SMOOTH",
"338.667 293 OFFCURVE",
"420 241 OFFCURVE",
"420 137 CURVE SMOOTH",
"420 104 LINE SMOOTH",
"420 96 OFFCURVE",
"420.667 83.333 OFFCURVE",
"422 66 CURVE SMOOTH",
"423.333 38.667 OFFCURVE",
"428 16.667 OFFCURVE",
"436 0 CURVE",
"554 0 LINE",
"554 30 LINE",
"549.333 27.333 OFFCURVE",
"542.333 26 OFFCURVE",
"533 26 CURVE SMOOTH",
"527.667 26 OFFCURVE",
"523 26.667 OFFCURVE",
"519 28 CURVE",
"497.667 30.667 OFFCURVE",
"490 80.667 OFFCURVE",
"490 122 CURVE SMOOTH",
"490 225.098 OFFCURVE",
"426.415 300 OFFCURVE",
"364 300 CURVE",
"428 320 OFFCURVE",
"476 371.333 OFFCURVE",
"476 434 CURVE SMOOTH",
"476 550 OFFCURVE",
"414.333 597 OFFCURVE",
"265 597 CURVE SMOOTH",
"55 597 LINE",
"55 570 LINE",
"93 572 LINE SMOOTH",
"107.667 573.333 OFFCURVE",
"115 563 OFFCURVE",
"115 551 CURVE SMOOTH",
"115 45 LINE SMOOTH",
"115 30.333 OFFCURVE",
"108.333 23 OFFCURVE",
"95 23 CURVE SMOOTH",
"55 25 LINE",
"55 0 LINE"
);
},
{
closed = 1;
nodes = (
"188 316 LINE",
"188 562 LINE SMOOTH",
"188 568.667 OFFCURVE",
"192 572 OFFCURVE",
"200 572 CURVE SMOOTH",
"275 572 LINE SMOOTH",
"360.333 572 OFFCURVE",
"400 533.333 OFFCURVE",
"400 440 CURVE SMOOTH",
"400 361.333 OFFCURVE",
"360.667 316 OFFCURVE",
"294 316 CURVE SMOOTH",
"188 316 LINE"
);
}
);
userData = {
assembly = "NPUSHB[ ]	/* 69 values pushed */
31 27 2 0 6 1 74 0 3 9 6 9 3 6 126 11 1 9 0 6 0 9 6 103 10 1 1 1 2 93 0 2 2 17 75 7 4 2 0 0 5 93 8 1 5 5 21 5 76 46 45 53 50 45 55 46 55 17 34 39 18 24 21 33 21 32 12 7 29 
CALL[ ]	/* CallFunction */";
};
width = 574;
}
);
note = R;
rightKerningGroup = R;
unicode = 0052;
},
{
glyphname = S;
layers = (
{
anchors = (
{
name = bottom;
position = "{251, 0}";
},
{
name = top;
position = "{250, 597}";
}
);
background = {
paths = (
{
closed = 1;
nodes = (
"48 203 LINE",
"56 177 OFFCURVE",
"56 96 QCURVE SMOOTH",
"56 34 OFFCURVE",
"52 13 QCURVE",
"57 14 OFFCURVE",
"77 18 OFFCURVE",
"86 18 QCURVE SMOOTH",
"112 18 OFFCURVE",
"165 3 QCURVE SMOOTH",
"191 -5 OFFCURVE",
"237 -10 OFFCURVE",
"268 -10 QCURVE SMOOTH",
"319 -10 OFFCURVE",
"406 35 OFFCURVE",
"457 116 OFFCURVE",
"457 168 QCURVE SMOOTH",
"457 227 OFFCURVE",
"392 302 OFFCURVE",
"316 333 QCURVE SMOOTH",
"224 370 LINE SMOOTH",
"184 386 OFFCURVE",
"138 439 OFFCURVE",
"138 472 QCURVE SMOOTH",
"138 523 OFFCURVE",
"202 580 OFFCURVE",
"254 580 QCURVE SMOOTH",
"318 580 OFFCURVE",
"403 499 OFFCURVE",
"403 434 QCURVE",
"429 434 LINE",
"425 445 OFFCURVE",
"423 471 OFFCURVE",
"423 501 QCURVE SMOOTH",
"423 552 OFFCURVE",
"426 576 QCURVE",
"415 572 OFFCURVE",
"397 572 QCURVE SMOOTH",
"386 572 OFFCURVE",
"370 578 QCURVE SMOOTH",
"362 581 OFFCURVE",
"318 596 OFFCURVE",
"273 607 OFFCURVE",
"241 607 QCURVE SMOOTH",
"182 607 OFFCURVE",
"98 562 OFFCURVE",
"56 486 OFFCURVE",
"56 441 QCURVE SMOOTH",
"56 391 OFFCURVE",
"112 317 OFFCURVE",
"166 295 QCURVE SMOOTH",
"268 254 LINE SMOOTH",
"314 236 OFFCURVE",
"367 177 OFFCURVE",
"367 138 QCURVE SMOOTH",
"366 84 OFFCURVE",
"307 18 OFFCURVE",
"257 18 QCURVE SMOOTH",
"96 18 OFFCURVE",
"73 203 QCURVE"
);
}
);
};
layerId = "3A4136D0-3900-4A7F-B896-13EBFCDD931C";
paths = (
{
closed = 1;
nodes = (
"372.661 -10 OFFCURVE",
"457 63.162 OFFCURVE",
"457 168 CURVE SMOOTH",
"457 246.667 OFFCURVE",
"417.333 291.667 OFFCURVE",
"316 333 CURVE SMOOTH",
"224 370 LINE SMOOTH",
"170.667 391.333 OFFCURVE",
"138 428 OFFCURVE",
"138 472 CURVE SMOOTH",
"138 540 OFFCURVE",
"184.667 580 OFFCURVE",
"254 580 CURVE SMOOTH",
"339.333 580 OFFCURVE",
"403 520.667 OFFCURVE",
"403 434 CURVE",
"429 434 LINE",
"426.333 441.333 OFFCURVE",
"424.667 449.333 OFFCURVE",
"424 458 CURVE SMOOTH",
"423.333 466.667 OFFCURVE",
"423 481 OFFCURVE",
"423 501 CURVE SMOOTH",
"423 535 OFFCURVE",
"424 560 OFFCURVE",
"426 576 CURVE",
"418.667 573.333 OFFCURVE",
"409 572 OFFCURVE",
"397 572 CURVE SMOOTH",
"389.667 572 OFFCURVE",
"380.667 574 OFFCURVE",
"370 578 CURVE SMOOTH",
"344.821 587.442 OFFCURVE",
"296.074 607 OFFCURVE",
"241 607 CURVE SMOOTH",
"162.333 607 OFFCURVE",
"105 574.833 OFFCURVE",
"77 523.5 CURVE SMOOTH",
"63 497.833 OFFCURVE",
"56 470.333 OFFCURVE",
"56 441 CURVE SMOOTH",
"56.667 373 OFFCURVE",
"93.333 324.333 OFFCURVE",
"166 295 CURVE SMOOTH",
"268 254 LINE SMOOTH",
"334 227.333 OFFCURVE",
"367 188.667 OFFCURVE",
"367 138 CURVE SMOOTH",
"367 67.333 OFFCURVE",
"323.667 18 OFFCURVE",
"257 18 CURVE SMOOTH",
"149.667 18 OFFCURVE",
"88.333 79.667 OFFCURVE",
"73 203 CURVE",
"48 203 LINE",
"53.333 185.667 OFFCURVE",
"56 150 OFFCURVE",
"56 96 CURVE SMOOTH",
"56 54.667 OFFCURVE",
"54.667 27 OFFCURVE",
"52 13 CURVE",
"58.667 14.333 OFFCURVE",
"74 18 OFFCURVE",
"86 18 CURVE SMOOTH",
"104 18 OFFCURVE",
"130.333 13 OFFCURVE",
"165 3 CURVE SMOOTH",
"194.333 -5.667 OFFCURVE",
"228.667 -10 OFFCURVE",
"268 -10 CURVE SMOOTH"
);
}
);
userData = {
assembly = "PUSHB[ ]	/* 6 values pushed */
24 1 2 4 1 74 
MPPEM[ ]	/* MeasurePixelPerEm */
PUSHB[ ]	/* 1 value pushed */
27 
LT[ ]	/* LessThan */
IF[ ]	/* If */
NPUSHB[ ]	/* 43 values pushed */
8 1 7 3 6 3 7 6 126 0 2 0 3 7 2 3 101 0 4 4 1 95 0 1 1 25 75 0 6 6 21 75 0 0 0 5 95 0 5 5 26 5 76 
ELSE[ ]	/* Else */
NPUSHB[ ]	/* 45 values pushed */
8 1 7 3 6 3 7 6 126 0 6 0 3 6 0 124 0 2 0 3 7 2 3 101 0 4 4 1 95 0 1 1 25 75 0 0 0 5 95 0 5 5 26 5 76 
EIF[ ]	/* EndIf */
NPUSHB[ ]	/* 16 values pushed */
0 0 0 59 0 59 35 44 34 22 36 44 33 9 7 27 
CALL[ ]	/* CallFunction */";
};
width = 494;
},
{
anchors = (
{
name = bottom;
position = "{259, 0}";
},
{
name = top;
position = "{258, 597}";
}
);
background = {
paths = (
{
closed = 1;
nodes = (
"41 200 LINE",
"49 160 OFFCURVE",
"49 90 QCURVE SMOOTH",
"49 34 OFFCURVE",
"45 13 QCURVE",
"49 15 OFFCURVE",
"74 18 OFFCURVE",
"83 18 QCURVE SMOOTH",
"104 18 OFFCURVE",
"161 3 QCURVE SMOOTH",
"212 -10 OFFCURVE",
"256 -10 QCURVE SMOOTH",
"326 -10 OFFCURVE",
"424 41 OFFCURVE",
"474 128 OFFCURVE",
"474 182 QCURVE SMOOTH",
"474 245 OFFCURVE",
"407 322 OFFCURVE",
"329 356 QCURVE SMOOTH",
"244 392 LINE SMOOTH",
"199 410 OFFCURVE",
"158 455 OFFCURVE",
"158 483 QCURVE SMOOTH",
"158 523 OFFCURVE",
"220 573 OFFCURVE",
"268 573 QCURVE SMOOTH",
"329 573 OFFCURVE",
"414 496 OFFCURVE",
"414 434 QCURVE",
"448 434 LINE",
"444 445 OFFCURVE",
"442 471 OFFCURVE",
"442 500 QCURVE SMOOTH",
"442 552 OFFCURVE",
"445 576 QCURVE",
"434 572 OFFCURVE",
"417 572 QCURVE SMOOTH",
"404 572 OFFCURVE",
"387 578 QCURVE",
"377 581 OFFCURVE",
"331 597 OFFCURVE",
"285 607 OFFCURVE",
"252 607 QCURVE SMOOTH",
"186 607 OFFCURVE",
"94 559 OFFCURVE",
"48 479 OFFCURVE",
"48 431 QCURVE SMOOTH",
"48 323 OFFCURVE",
"162 276 QCURVE SMOOTH",
"260 235 LINE SMOOTH",
"355 198 OFFCURVE",
"355 128 QCURVE SMOOTH",
"355 82 OFFCURVE",
"296 26 OFFCURVE",
"245 26 QCURVE SMOOTH",
"176 26 OFFCURVE",
"83 116 OFFCURVE",
"73 203 QCURVE"
);
}
);
};
layerId = "A0AC7266-FF1C-4B13-9E61-C3CFB2289D5A";
paths = (
{
closed = 1;
nodes = (
"394.488 -10 OFFCURVE",
"474 71.466 OFFCURVE",
"474 182 CURVE SMOOTH",
"474 266 OFFCURVE",
"433 310.667 OFFCURVE",
"329 356 CURVE SMOOTH",
"244 392 LINE SMOOTH",
"184 416 OFFCURVE",
"158 445.667 OFFCURVE",
"158 483 CURVE SMOOTH",
"158 536.333 OFFCURVE",
"204 573 OFFCURVE",
"268 573 CURVE SMOOTH",
"349.333 573 OFFCURVE",
"414 516.667 OFFCURVE",
"414 434 CURVE",
"448 434 LINE",
"442.667 448.667 OFFCURVE",
"442 461.333 OFFCURVE",
"442 500 CURVE SMOOTH",
"442 534.667 OFFCURVE",
"443 560 OFFCURVE",
"445 576 CURVE",
"437.667 573.333 OFFCURVE",
"428.333 572 OFFCURVE",
"417 572 CURVE SMOOTH",
"408.333 572 OFFCURVE",
"398.333 574 OFFCURVE",
"387 578 CURVE SMOOTH",
"343.463 591.061 OFFCURVE",
"315.541 607 OFFCURVE",
"252 607 CURVE SMOOTH",
"121.669 607 OFFCURVE",
"48 530.05 OFFCURVE",
"48 431 CURVE SMOOTH",
"48 359 OFFCURVE",
"86 307.333 OFFCURVE",
"162 276 CURVE SMOOTH",
"260 235 LINE SMOOTH",
"323.333 210.333 OFFCURVE",
"355 174.667 OFFCURVE",
"355 128 CURVE SMOOTH",
"355 66.667 OFFCURVE",
"313 26 OFFCURVE",
"245 26 CURVE SMOOTH",
"148.333 26 OFFCURVE",
"91 85 OFFCURVE",
"73 203 CURVE",
"41 200 LINE",
"46.333 173.333 OFFCURVE",
"49 136.667 OFFCURVE",
"49 90 CURVE SMOOTH",
"49 52.667 OFFCURVE",
"47.667 27 OFFCURVE",
"45 13 CURVE",
"50.333 15.667 OFFCURVE",
"71 18 OFFCURVE",
"83 18 CURVE SMOOTH",
"97 18 OFFCURVE",
"123 13 OFFCURVE",
"161 3 CURVE SMOOTH",
"195 -5.667 OFFCURVE",
"226.667 -10 OFFCURVE",
"256 -10 CURVE SMOOTH"
);
}
);
userData = {
assembly = "PUSHB[ ]	/* 6 values pushed */
23 1 4 1 1 74 
MPPEM[ ]	/* MeasurePixelPerEm */
PUSHB[ ]	/* 1 value pushed */
27 
LT[ ]	/* LessThan */
IF[ ]	/* If */
NPUSHB[ ]	/* 34 values pushed */
0 2 0 3 0 2 3 101 0 4 4 1 95 0 1 1 25 75 0 6 6 21 75 0 0 0 5 95 0 5 5 26 5 76 
ELSE[ ]	/* Else */
NPUSHB[ ]	/* 37 values pushed */
0 6 0 5 0 6 5 126 0 2 0 3 0 2 3 101 0 4 4 1 95 0 1 1 25 75 0 0 0 5 95 0 5 5 26 5 76 
EIF[ ]	/* EndIf */
NPUSHB[ ]	/* 10 values pushed */
34 44 34 22 36 42 34 7 7 27 
CALL[ ]	/* CallFunction */";
};
width = 498;
},
{
anchors = (
{
name = bottom;
position = "{247, 0}";
},
{
name = top;
position = "{246, 597}";
}
);
layerId = "8FAB7A87-DBD6-41A5-8B85-4E9492F941D1";
paths = (
{
closed = 1;
nodes = (
"359.919 -10 OFFCURVE",
"449 56.531 OFFCURVE",
"449 162 CURVE SMOOTH",
"449 238 OFFCURVE",
"411.333 283 OFFCURVE",
"310 323 CURVE SMOOTH",
"215 360 LINE SMOOTH",
"164.333 380 OFFCURVE",
"129 420.333 OFFCURVE",
"129 467 CURVE SMOOTH",
"129 541.667 OFFCURVE",
"176 583 OFFCURVE",
"248 583 CURVE SMOOTH",
"334.667 583 OFFCURVE",
"398 522 OFFCURVE",
"398 434 CURVE",
"421 434 LINE",
"418.333 441.333 OFFCURVE",
"416.667 449.333 OFFCURVE",
"416 458 CURVE SMOOTH",
"415.333 466.667 OFFCURVE",
"415 481 OFFCURVE",
"415 501 CURVE SMOOTH",
"415 535 OFFCURVE",
"416 560 OFFCURVE",
"418 576 CURVE",
"410.667 573.333 OFFCURVE",
"400.667 572 OFFCURVE",
"388 572 CURVE SMOOTH",
"381.333 572 OFFCURVE",
"372.667 574 OFFCURVE",
"362 578 CURVE SMOOTH",
"344.489 585.505 OFFCURVE",
"289.985 607 OFFCURVE",
"236 607 CURVE SMOOTH",
"161.333 607 OFFCURVE",
"106.408 575.888 OFFCURVE",
"79.889 525.667 CURVE SMOOTH",
"66.63 500.555 OFFCURVE",
"60 473.667 OFFCURVE",
"60 445 CURVE SMOOTH",
"60.667 379.667 OFFCURVE",
"96.667 332.333 OFFCURVE",
"168 303 CURVE SMOOTH",
"272 262 LINE SMOOTH",
"338.667 234.667 OFFCURVE",
"372 194.667 OFFCURVE",
"372 142 CURVE SMOOTH",
"372 67.333 OFFCURVE",
"328.667 14 OFFCURVE",
"262 14 CURVE SMOOTH",
"150 14 OFFCURVE",
"87 77 OFFCURVE",
"73 203 CURVE",
"51 204 LINE",
"56.333 190.667 OFFCURVE",
"59 155.667 OFFCURVE",
"59 99 CURVE SMOOTH",
"59 55.667 OFFCURVE",
"57.667 27 OFFCURVE",
"55 13 CURVE",
"59 13.667 OFFCURVE",
"63.833 14.667 OFFCURVE",
"69.5 16 CURVE SMOOTH",
"75.167 17.333 OFFCURVE",
"81 18 OFFCURVE",
"87 18 CURVE SMOOTH",
"107 18 OFFCURVE",
"133.667 13 OFFCURVE",
"167 3 CURVE SMOOTH",
"194.333 -5.667 OFFCURVE",
"229.667 -10 OFFCURVE",
"273 -10 CURVE SMOOTH"
);
}
);
userData = {
assembly = "PUSHB[ ]	/* 6 values pushed */
24 1 2 4 1 74 
MPPEM[ ]	/* MeasurePixelPerEm */
PUSHB[ ]	/* 1 value pushed */
27 
LT[ ]	/* LessThan */
IF[ ]	/* If */
NPUSHB[ ]	/* 43 values pushed */
8 1 7 3 6 3 7 6 126 0 2 0 3 7 2 3 101 0 4 4 1 95 0 1 1 25 75 0 6 6 21 75 0 0 0 5 95 0 5 5 26 5 76 
ELSE[ ]	/* Else */
NPUSHB[ ]	/* 45 values pushed */
8 1 7 3 6 3 7 6 126 0 6 0 3 6 0 124 0 2 0 3 7 2 3 101 0 4 4 1 95 0 1 1 25 75 0 0 0 5 95 0 5 5 26 5 76 
EIF[ ]	/* EndIf */
NPUSHB[ ]	/* 16 values pushed */
0 0 0 59 0 59 35 44 34 22 36 44 33 9 7 27 
CALL[ ]	/* CallFunction */";
};
width = 492;
}
);
note = S;
unicode = 0053;
},
{
color = 3;
glyphname = Germandbls;
layers = (
{
layerId = "3A4136D0-3900-4A7F-B896-13EBFCDD931C";
paths = (
{
closed = 1;
nodes = (
"50 0 LINE",
"201 0 LINE",
"201 556 LINE SMOOTH",
"201 564.667 OFFCURVE",
"205 569 OFFCURVE",
"213 569 CURVE SMOOTH",
"478 569 LINE",
"480 597 LINE",
"50 597 LINE",
"50 567 LINE",
"89 569 LINE",
"91 569 LINE SMOOTH",
"102.333 569 OFFCURVE",
"108 562 OFFCURVE",
"108 548 CURVE SMOOTH",
"108 49 LINE SMOOTH",
"108 34.333 OFFCURVE",
"102 27 OFFCURVE",
"90 27 CURVE SMOOTH",
"50 30 LINE",
"50 0 LINE"
);
},
{
closed = 1;
nodes = (
"478 -10 OFFCURVE",
"552 77 OFFCURVE",
"552 177 CURVE SMOOTH",
"552 283.667 OFFCURVE",
"477.333 338 OFFCURVE",
"328 340 CURVE SMOOTH",
"270 340 LINE",
"270 319 LINE",
"418 313.667 OFFCURVE",
"463 265.667 OFFCURVE",
"463 179 CURVE SMOOTH",
"463 65.667 OFFCURVE",
"426 17 OFFCURVE",
"370 17 CURVE SMOOTH",
"318 17 OFFCURVE",
"311 39.667 OFFCURVE",
"311 77 CURVE SMOOTH",
"311 86.333 OFFCURVE",
"312.667 94.667 OFFCURVE",
"316 102 CURVE SMOOTH",
"319.333 110 OFFCURVE",
"321 118 OFFCURVE",
"321 126 CURVE SMOOTH",
"321 148.667 OFFCURVE",
"303.333 165 OFFCURVE",
"274 165 CURVE SMOOTH",
"242 165 OFFCURVE",
"225 145.667 OFFCURVE",
"225 115 CURVE SMOOTH",
"225 43 OFFCURVE",
"280.667 -10 OFFCURVE",
"378 -10 CURVE SMOOTH"
);
},
{
closed = 1;
nodes = (
"300 325 LINE",
"504 569 LINE",
"480 597 LINE",
"270 340 LINE",
"300 325 LINE"
);
}
);
width = 582;
},
{
layerId = "A0AC7266-FF1C-4B13-9E61-C3CFB2289D5A";
paths = (
{
closed = 1;
nodes = (
"39 0 LINE",
"231 0 LINE",
"231 549 LINE SMOOTH",
"231 557.667 OFFCURVE",
"235 562 OFFCURVE",
"243 562 CURVE SMOOTH",
"539 562 LINE",
"554 597 LINE",
"39 597 LINE",
"39 560 LINE",
"74 562 LINE",
"76 562 LINE SMOOTH",
"87.333 562 OFFCURVE",
"93 555 OFFCURVE",
"93 541 CURVE SMOOTH",
"93 57 LINE SMOOTH",
"93 42.333 OFFCURVE",
"87 35 OFFCURVE",
"75 35 CURVE SMOOTH",
"39 38 LINE",
"39 0 LINE"
);
},
{
closed = 1;
nodes = (
"584 -10 OFFCURVE",
"653 75 OFFCURVE",
"653 167 CURVE SMOOTH",
"653 282.333 OFFCURVE",
"574 340 OFFCURVE",
"416 340 CURVE SMOOTH",
"327 340 LINE",
"327 308 LINE",
"480.333 296 OFFCURVE",
"519 247.667 OFFCURVE",
"519 161 CURVE SMOOTH",
"519 101 OFFCURVE",
"492.667 25 OFFCURVE",
"430 25 CURVE SMOOTH",
"399.333 25 OFFCURVE",
"378 43.333 OFFCURVE",
"378 78 CURVE SMOOTH",
"378 86 OFFCURVE",
"379.667 94.333 OFFCURVE",
"383 103 CURVE SMOOTH",
"385.667 113.667 OFFCURVE",
"387 121.333 OFFCURVE",
"387 126 CURVE SMOOTH",
"387 156.667 OFFCURVE",
"363 177 OFFCURVE",
"327 177 CURVE SMOOTH",
"283 177 OFFCURVE",
"258 149.667 OFFCURVE",
"258 111 CURVE SMOOTH",
"258 24.333 OFFCURVE",
"332 -10 OFFCURVE",
"436 -10 CURVE SMOOTH"
);
},
{
closed = 1;
nodes = (
"369 325 LINE",
"583 562 LINE",
"554 597 LINE",
"327 340 LINE",
"369 325 LINE"
);
}
);
width = 668;
},
{
layerId = "8FAB7A87-DBD6-41A5-8B85-4E9492F941D1";
paths = (
{
closed = 1;
nodes = (
"55 0 LINE",
"188 0 LINE",
"188 559 LINE SMOOTH",
"188 567.667 OFFCURVE",
"192 572 OFFCURVE",
"200 572 CURVE SMOOTH",
"451 572 LINE",
"447 597 LINE",
"55 597 LINE",
"55 570 LINE",
"96 572 LINE",
"98 572 LINE SMOOTH",
"109.333 572 OFFCURVE",
"115 565 OFFCURVE",
"115 551 CURVE SMOOTH",
"115 45 LINE SMOOTH",
"115 30.333 OFFCURVE",
"109 23 OFFCURVE",
"97 23 CURVE SMOOTH",
"55 26 LINE",
"55 0 LINE"
);
},
{
closed = 1;
nodes = (
"430.667 -10 OFFCURVE",
"507 78.333 OFFCURVE",
"507 181 CURVE SMOOTH",
"507 284.333 OFFCURVE",
"434.333 337.333 OFFCURVE",
"289 340 CURVE SMOOTH",
"245 340 LINE",
"245 324 LINE",
"391.667 321.333 OFFCURVE",
"438 273.667 OFFCURVE",
"438 187 CURVE SMOOTH",
"438 118.333 OFFCURVE",
"428.833 72.167 OFFCURVE",
"410.5 48.5 CURVE SMOOTH",
"392.167 24.833 OFFCURVE",
"369.667 13 OFFCURVE",
"343 13 CURVE SMOOTH",
"281.667 13 OFFCURVE",
"281 38.333 OFFCURVE",
"281 77 CURVE SMOOTH",
"281 86.333 OFFCURVE",
"282.667 94.667 OFFCURVE",
"286 102 CURVE SMOOTH",
"289.333 108 OFFCURVE",
"291.333 116 OFFCURVE",
"292 126 CURVE SMOOTH",
"292 144.667 OFFCURVE",
"276.667 160 OFFCURVE",
"250 160 CURVE SMOOTH",
"223.333 160 OFFCURVE",
"210 143.667 OFFCURVE",
"210 117 CURVE SMOOTH",
"210 51.667 OFFCURVE",
"257.333 -10 OFFCURVE",
"352 -10 CURVE SMOOTH"
);
},
{
closed = 1;
nodes = (
"269 325 LINE",
"469 572 LINE",
"447 597 LINE",
"245 340 LINE",
"269 325 LINE"
);
}
);
width = 544;
}
);
unicode = 1E9E;
},
{
glyphname = Schwa;
layers = (
{
layerId = "3A4136D0-3900-4A7F-B896-13EBFCDD931C";
paths = (
{
closed = 1;
nodes = (
"496.333 -10 OFFCURVE",
"593 96.333 OFFCURVE",
"593 299 CURVE SMOOTH",
"593 503.667 OFFCURVE",
"501.333 606 OFFCURVE",
"318 606 CURVE SMOOTH",
"212.667 606 OFFCURVE",
"115.333 551.333 OFFCURVE",
"78 462 CURVE",
"110 438 LINE",
"139.333 507.333 OFFCURVE",
"205.667 560 OFFCURVE",
"299 560 CURVE SMOOTH",
"429.667 560 OFFCURVE",
"492 479 OFFCURVE",
"492 295 CURVE",
"62 295 LINE",
"62 255 LINE SMOOTH",
"66 89.667 OFFCURVE",
"155 -10 OFFCURVE",
"311 -10 CURVE SMOOTH"
);
},
{
closed = 1;
nodes = (
"215 17 OFFCURVE",
"161 83.667 OFFCURVE",
"161 217 CURVE SMOOTH",
"161 253 OFFCURVE",
"170.333 263 OFFCURVE",
"189 263 CURVE SMOOTH",
"491 263 LINE",
"491 119 OFFCURVE",
"427 17 OFFCURVE",
"315 17 CURVE SMOOTH"
);
}
);
width = 638;
},
{
layerId = "A0AC7266-FF1C-4B13-9E61-C3CFB2289D5A";
paths = (
{
closed = 1;
nodes = (
"508.667 -10 OFFCURVE",
"628 98.667 OFFCURVE",
"628 300 CURVE SMOOTH",
"628 504 OFFCURVE",
"532.333 606 OFFCURVE",
"341 606 CURVE SMOOTH",
"223.667 606 OFFCURVE",
"118.667 553.333 OFFCURVE",
"76 464 CURVE",
"103 437 LINE",
"145.667 499.667 OFFCURVE",
"205 549 OFFCURVE",
"305 549 CURVE SMOOTH",
"437 549 OFFCURVE",
"477 478.667 OFFCURVE",
"477 304 CURVE",
"50 304 LINE",
"50 253 LINE SMOOTH",
"52.667 85 OFFCURVE",
"142 -10 OFFCURVE",
"310 -10 CURVE SMOOTH"
);
},
{
closed = 1;
nodes = (
"213.667 25 OFFCURVE",
"190 98.333 OFFCURVE",
"190 213 CURVE SMOOTH",
"190 247.667 OFFCURVE",
"199.333 259 OFFCURVE",
"218 259 CURVE SMOOTH",
"476 259 LINE",
"476 127 OFFCURVE",
"440.333 25 OFFCURVE",
"323 25 CURVE SMOOTH"
);
}
);
width = 658;
},
{
layerId = "8FAB7A87-DBD6-41A5-8B85-4E9492F941D1";
paths = (
{
closed = 1;
nodes = (
"491 -10 OFFCURVE",
"577 95 OFFCURVE",
"577 299 CURVE SMOOTH",
"577 503.667 OFFCURVE",
"487.333 606 OFFCURVE",
"308 606 CURVE SMOOTH",
"208 606 OFFCURVE",
"113.667 549 OFFCURVE",
"79 461 CURVE",
"113 438 LINE",
"137 511.333 OFFCURVE",
"206.667 565 OFFCURVE",
"296 565 CURVE SMOOTH",
"426.667 565 OFFCURVE",
"499 479 OFFCURVE",
"499 291 CURVE",
"67 291 LINE",
"67 256 LINE SMOOTH",
"72.333 90.667 OFFCURVE",
"160.333 -10 OFFCURVE",
"311 -10 CURVE SMOOTH"
);
},
{
closed = 1;
nodes = (
"216.333 13 OFFCURVE",
"148 77.667 OFFCURVE",
"148 219 CURVE SMOOTH",
"148 255 OFFCURVE",
"157.333 265 OFFCURVE",
"176 265 CURVE SMOOTH",
"498 265 LINE",
"498 115.667 OFFCURVE",
"421.667 13 OFFCURVE",
"311 13 CURVE SMOOTH"
);
}
);
width = 629;
}
);
unicode = 018F;
},
{
glyphname = T;
layers = (
{
anchors = (
{
name = bottom;
position = "{265, 0}";
},
{
name = center;
position = "{265, 303}";
},
{
name = top;
position = "{265, 597}";
}
);
layerId = "3A4136D0-3900-4A7F-B896-13EBFCDD931C";
paths = (
{
closed = 1;
nodes = (
"145 0 LINE",
"384 0 LINE",
"384 29 LINE",
"331 27 LINE SMOOTH",
"317.667 27 OFFCURVE",
"311 34.333 OFFCURVE",
"311 49 CURVE SMOOTH",
"311 559 LINE",
"312.333 566.333 OFFCURVE",
"316.333 570 OFFCURVE",
"323 570 CURVE SMOOTH",
"365 570 LINE SMOOTH",
"453 570 OFFCURVE",
"488 530.667 OFFCURVE",
"488 444 CURVE",
"514 444 LINE",
"514 600 LINE",
"508.667 598.667 OFFCURVE",
"495.333 598 OFFCURVE",
"474 598 CURVE SMOOTH",
"55 598 LINE SMOOTH",
"37.667 598 OFFCURVE",
"24.333 598.667 OFFCURVE",
"15 600 CURVE",
"15 444 LINE",
"41 444 LINE",
"41 530.667 OFFCURVE",
"77 570 OFFCURVE",
"165 570 CURVE SMOOTH",
"206 570 LINE SMOOTH",
"214 570 OFFCURVE",
"218 566 OFFCURVE",
"218 558 CURVE SMOOTH",
"218 52 LINE SMOOTH",
"218 38.667 OFFCURVE",
"211 27 OFFCURVE",
"199 27 CURVE SMOOTH",
"145 29 LINE",
"145 0 LINE"
);
}
);
userData = {
assembly = "NPUSHB[ ]	/* 11 values pushed */
13 1 1 2 1 74 5 0 2 0 72 
MPPEM[ ]	/* MeasurePixelPerEm */
PUSHB[ ]	/* 1 value pushed */
10 
LT[ ]	/* LessThan */
IF[ ]	/* If */
NPUSHB[ ]	/* 31 values pushed */
7 1 1 2 3 2 1 112 6 1 2 2 0 93 0 0 0 17 75 5 1 3 3 4 93 0 4 4 21 4 76 
ELSE[ ]	/* Else */
NPUSHB[ ]	/* 32 values pushed */
7 1 1 2 3 2 1 3 126 6 1 2 2 0 93 0 0 0 17 75 5 1 3 3 4 93 0 4 4 21 4 76 
EIF[ ]	/* EndIf */
NPUSHB[ ]	/* 11 values pushed */
18 52 33 17 35 50 18 49 8 7 28 
CALL[ ]	/* CallFunction */";
};
width = 529;
},
{
anchors = (
{
name = bottom;
position = "{273, 0}";
},
{
name = center;
position = "{273, 303}";
},
{
name = top;
position = "{273, 597}";
}
);
layerId = "A0AC7266-FF1C-4B13-9E61-C3CFB2289D5A";
paths = (
{
closed = 1;
nodes = (
"130 0 LINE",
"414 0 LINE",
"414 37 LINE",
"361 35 LINE SMOOTH",
"347.667 35 OFFCURVE",
"341 42.333 OFFCURVE",
"341 57 CURVE SMOOTH",
"341 552 LINE",
"342.333 559.333 OFFCURVE",
"346.333 563 OFFCURVE",
"353 563 CURVE SMOOTH",
"373 563 LINE SMOOTH",
"461 563 OFFCURVE",
"496 525.333 OFFCURVE",
"496 444 CURVE",
"529 444 LINE",
"529 600 LINE",
"522.333 598.667 OFFCURVE",
"506.667 598 OFFCURVE",
"482 598 CURVE SMOOTH",
"63 598 LINE SMOOTH",
"43 598 OFFCURVE",
"27 598.667 OFFCURVE",
"15 600 CURVE",
"15 444 LINE",
"49 444 LINE",
"49 525.333 OFFCURVE",
"85 563 OFFCURVE",
"173 563 CURVE SMOOTH",
"191 563 LINE SMOOTH",
"199 563 OFFCURVE",
"203 559 OFFCURVE",
"203 551 CURVE SMOOTH",
"203 60 LINE SMOOTH",
"203 46.667 OFFCURVE",
"196 35 OFFCURVE",
"184 35 CURVE SMOOTH",
"130 37 LINE",
"130 0 LINE"
);
}
);
userData = {
assembly = "NPUSHB[ ]	/* 11 values pushed */
13 1 1 2 1 74 5 0 2 0 72 
MPPEM[ ]	/* MeasurePixelPerEm */
PUSHB[ ]	/* 1 value pushed */
10 
LT[ ]	/* LessThan */
IF[ ]	/* If */
NPUSHB[ ]	/* 31 values pushed */
7 1 1 2 3 2 1 112 6 1 2 2 0 93 0 0 0 17 75 5 1 3 3 4 93 0 4 4 21 4 76 
ELSE[ ]	/* Else */
NPUSHB[ ]	/* 32 values pushed */
7 1 1 2 3 2 1 3 126 6 1 2 2 0 93 0 0 0 17 75 5 1 3 3 4 93 0 4 4 21 4 76 
EIF[ ]	/* EndIf */
NPUSHB[ ]	/* 11 values pushed */
18 52 33 17 35 50 18 49 8 7 28 
CALL[ ]	/* CallFunction */";
};
width = 544;
},
{
anchors = (
{
name = bottom;
position = "{261, 0}";
},
{
name = center;
position = "{261, 303}";
},
{
name = top;
position = "{261, 597}";
}
);
layerId = "8FAB7A87-DBD6-41A5-8B85-4E9492F941D1";
paths = (
{
closed = 1;
nodes = (
"152 0 LINE",
"371 0 LINE",
"371 25 LINE",
"318 23 LINE SMOOTH",
"304.667 23 OFFCURVE",
"298 30.333 OFFCURVE",
"298 45 CURVE SMOOTH",
"298 562 LINE",
"299.333 569.333 OFFCURVE",
"303.333 573 OFFCURVE",
"310 573 CURVE SMOOTH",
"361 573 LINE SMOOTH",
"449 573 OFFCURVE",
"484 533.333 OFFCURVE",
"484 444 CURVE",
"507 444 LINE",
"507 600 LINE",
"502.333 598.667 OFFCURVE",
"490 598 OFFCURVE",
"470 598 CURVE SMOOTH",
"51 598 LINE SMOOTH",
"35 598 OFFCURVE",
"23 598.667 OFFCURVE",
"15 600 CURVE",
"15 444 LINE",
"37 444 LINE",
"37 533.333 OFFCURVE",
"73 573 OFFCURVE",
"161 573 CURVE SMOOTH",
"213 573 LINE SMOOTH",
"221 573 OFFCURVE",
"225 569 OFFCURVE",
"225 561 CURVE SMOOTH",
"225 48 LINE SMOOTH",
"225 34.667 OFFCURVE",
"218 23 OFFCURVE",
"206 23 CURVE SMOOTH",
"152 25 LINE",
"152 0 LINE"
);
}
);
userData = {
assembly = "NPUSHB[ ]	/* 11 values pushed */
13 1 1 2 1 74 5 0 2 0 72 
MPPEM[ ]	/* MeasurePixelPerEm */
PUSHB[ ]	/* 1 value pushed */
10 
LT[ ]	/* LessThan */
IF[ ]	/* If */
NPUSHB[ ]	/* 31 values pushed */
7 1 1 2 3 2 1 112 6 1 2 2 0 93 0 0 0 17 75 5 1 3 3 4 93 0 4 4 21 4 76 
ELSE[ ]	/* Else */
NPUSHB[ ]	/* 32 values pushed */
7 1 1 2 3 2 1 3 126 6 1 2 2 0 93 0 0 0 17 75 5 1 3 3 4 93 0 4 4 21 4 76 
EIF[ ]	/* EndIf */
NPUSHB[ ]	/* 11 values pushed */
18 52 33 17 35 50 18 49 8 7 28 
CALL[ ]	/* CallFunction */";
};
width = 522;
}
);
leftKerningGroup = T;
note = T;
rightKerningGroup = T;
unicode = 0054;
},
{
glyphname = U;
layers = (
{
anchors = (
{
name = bottom;
position = "{359, 0}";
},
{
name = ogonek;
position = "{419, 0}";
},
{
name = top;
position = "{356, 597}";
},
{
name = topright;
position = "{493, 618}";
}
);
background = {
paths = (
{
closed = 1;
nodes = (
"35 567 LINE",
"73 569 LINE",
"81 570 OFFCURVE",
"92 557 OFFCURVE",
"92 548 QCURVE SMOOTH",
"92 199 LINE SMOOTH",
"92 97 OFFCURVE",
"222 -10 OFFCURVE",
"344 -10 QCURVE SMOOTH",
"408 -10 OFFCURVE",
"509 41 OFFCURVE",
"567 132 OFFCURVE",
"567 189 QCURVE SMOOTH",
"567 549 LINE SMOOTH",
"567 557 OFFCURVE",
"577 569 OFFCURVE",
"585 569 QCURVE SMOOTH",
"587 569 LINE",
"626 567 LINE",
"626 597 LINE",
"465 597 LINE",
"465 567 LINE",
"514 569 LINE",
"522 570 OFFCURVE",
"532 558 OFFCURVE",
"532 548 QCURVE SMOOTH",
"532 198 LINE SMOOTH",
"532 148 OFFCURVE",
"488 67 OFFCURVE",
"410 21 OFFCURVE",
"362 21 QCURVE SMOOTH",
"278 21 OFFCURVE",
"185 115 OFFCURVE",
"185 199 QCURVE SMOOTH",
"185 549 LINE SMOOTH",
"185 557 OFFCURVE",
"195 569 OFFCURVE",
"203 569 QCURVE SMOOTH",
"205 569 LINE",
"254 567 LINE",
"254 597 LINE",
"35 597 LINE"
);
}
);
};
layerId = "3A4136D0-3900-4A7F-B896-13EBFCDD931C";
paths = (
{
closed = 1;
nodes = (
"476 -10 OFFCURVE",
"567 78.333 OFFCURVE",
"567 189 CURVE SMOOTH",
"567 549 LINE SMOOTH",
"567 559.667 OFFCURVE",
"574.333 569 OFFCURVE",
"585 569 CURVE SMOOTH",
"587 569 LINE",
"626 567 LINE",
"626 597 LINE",
"465 597 LINE",
"465 567 LINE",
"514 569 LINE SMOOTH",
"524.667 570.333 OFFCURVE",
"532 561.333 OFFCURVE",
"532 548 CURVE SMOOTH",
"532 198 LINE SMOOTH",
"532 98 OFFCURVE",
"460.667 21 OFFCURVE",
"362 21 CURVE SMOOTH",
"250 21 OFFCURVE",
"185 87 OFFCURVE",
"185 199 CURVE SMOOTH",
"185 549 LINE SMOOTH",
"185 559.667 OFFCURVE",
"192.333 569 OFFCURVE",
"203 569 CURVE SMOOTH",
"205 569 LINE",
"254 567 LINE",
"254 597 LINE",
"35 597 LINE",
"35 567 LINE",
"73 569 LINE SMOOTH",
"83.667 570.333 OFFCURVE",
"92 560 OFFCURVE",
"92 548 CURVE SMOOTH",
"92 202 LINE SMOOTH",
"92 60.667 OFFCURVE",
"176 -10 OFFCURVE",
"344 -10 CURVE SMOOTH"
);
}
);
userData = {
assembly = "NPUSHB[ ]	/* 36 values pushed */
7 5 3 3 1 1 0 93 4 1 0 0 17 75 0 2 2 6 95 0 6 6 26 6 76 22 38 49 17 23 37 49 16 8 7 28 
CALL[ ]	/* CallFunction */";
};
width = 651;
},
{
anchors = (
{
name = bottom;
position = "{375, 0}";
},
{
name = ogonek;
position = "{440, 0}";
},
{
name = top;
position = "{372, 597}";
},
{
name = topright;
position = "{483, 620}";
}
);
layerId = "A0AC7266-FF1C-4B13-9E61-C3CFB2289D5A";
paths = (
{
closed = 1;
nodes = (
"503.333 -10 OFFCURVE",
"575 68.333 OFFCURVE",
"575 203 CURVE SMOOTH",
"575 542 LINE SMOOTH",
"575 552.667 OFFCURVE",
"582.333 562 OFFCURVE",
"593 562 CURVE SMOOTH",
"595 562 LINE",
"634 560 LINE",
"634 597 LINE",
"465 597 LINE",
"465 560 LINE",
"514 562 LINE SMOOTH",
"524.667 563.333 OFFCURVE",
"532 554.333 OFFCURVE",
"532 541 CURVE SMOOTH",
"532 203 LINE SMOOTH",
"532 96.333 OFFCURVE",
"486.667 31 OFFCURVE",
"384 31 CURVE SMOOTH",
"284 31 OFFCURVE",
"230 85.667 OFFCURVE",
"230 199 CURVE SMOOTH",
"230 542 LINE SMOOTH",
"230 552.667 OFFCURVE",
"237.333 562 OFFCURVE",
"248 562 CURVE SMOOTH",
"250 562 LINE",
"299 560 LINE",
"299 597 LINE",
"35 597 LINE",
"35 560 LINE",
"73 562 LINE SMOOTH",
"83.667 563.333 OFFCURVE",
"92 553 OFFCURVE",
"92 541 CURVE SMOOTH",
"92 199 LINE SMOOTH",
"92 59.667 OFFCURVE",
"180.667 -10 OFFCURVE",
"358 -10 CURVE SMOOTH"
);
}
);
userData = {
assembly = "NPUSHB[ ]	/* 36 values pushed */
7 5 3 3 1 1 0 93 4 1 0 0 17 75 0 2 2 6 95 0 6 6 26 6 76 21 37 49 17 22 37 49 16 8 7 28 
CALL[ ]	/* CallFunction */";
};
width = 659;
},
{
anchors = (
{
name = bottom;
position = "{352, 0}";
},
{
name = ogonek;
position = "{410, 0}";
},
{
name = top;
position = "{349, 597}";
},
{
name = topright;
position = "{497, 617}";
}
);
layerId = "8FAB7A87-DBD6-41A5-8B85-4E9492F941D1";
paths = (
{
closed = 1;
nodes = (
"463.333 -10 OFFCURVE",
"563 83 OFFCURVE",
"563 183 CURVE SMOOTH",
"563 552 LINE SMOOTH",
"563 562.667 OFFCURVE",
"570.333 572 OFFCURVE",
"581 572 CURVE SMOOTH",
"583 572 LINE",
"622 570 LINE",
"622 597 LINE",
"465 597 LINE",
"465 570 LINE",
"514 572 LINE SMOOTH",
"524.667 573.333 OFFCURVE",
"532 564.333 OFFCURVE",
"532 551 CURVE SMOOTH",
"532 196 LINE SMOOTH",
"532 98.667 OFFCURVE",
"449.333 17 OFFCURVE",
"352 17 CURVE SMOOTH",
"234.667 17 OFFCURVE",
"165 87 OFFCURVE",
"165 199 CURVE SMOOTH",
"165 552 LINE SMOOTH",
"165 562.667 OFFCURVE",
"172.333 572 OFFCURVE",
"183 572 CURVE SMOOTH",
"185 572 LINE",
"234 570 LINE",
"234 597 LINE",
"35 597 LINE",
"35 570 LINE",
"73 572 LINE SMOOTH",
"83.667 573.333 OFFCURVE",
"92 563 OFFCURVE",
"92 551 CURVE SMOOTH",
"92 203 LINE SMOOTH",
"92 61 OFFCURVE",
"174 -10 OFFCURVE",
"338 -10 CURVE SMOOTH"
);
}
);
userData = {
assembly = "NPUSHB[ ]	/* 36 values pushed */
7 5 3 3 1 1 0 93 4 1 0 0 17 75 0 2 2 6 95 0 6 6 26 6 76 22 38 49 17 23 37 49 16 8 7 28 
CALL[ ]	/* CallFunction */";
};
width = 647;
}
);
leftKerningGroup = U;
note = U;
rightKerningGroup = U;
unicode = 0055;
},
{
color = 3;
glyphname = Uhorn;
layers = (
{
anchors = (
{
name = bottom;
position = "{359, 0}";
},
{
name = top;
position = "{356, 597}";
}
);
layerId = "3A4136D0-3900-4A7F-B896-13EBFCDD931C";
paths = (
{
closed = 1;
nodes = (
"476 -10 OFFCURVE",
"567 78.333 OFFCURVE",
"567 189 CURVE SMOOTH",
"567 597 LINE",
"465 597 LINE",
"465 567 LINE",
"514 569 LINE SMOOTH",
"524.667 570.333 OFFCURVE",
"532 561.333 OFFCURVE",
"532 548 CURVE SMOOTH",
"532 198 LINE SMOOTH",
"532 98 OFFCURVE",
"460.667 21 OFFCURVE",
"362 21 CURVE SMOOTH",
"250 21 OFFCURVE",
"185 87 OFFCURVE",
"185 199 CURVE SMOOTH",
"185 549 LINE SMOOTH",
"185 559.667 OFFCURVE",
"192.333 569 OFFCURVE",
"203 569 CURVE SMOOTH",
"205 569 LINE",
"254 567 LINE",
"254 597 LINE",
"35 597 LINE",
"35 567 LINE",
"73 569 LINE SMOOTH",
"83.667 570.333 OFFCURVE",
"92 560 OFFCURVE",
"92 548 CURVE SMOOTH",
"92 202 LINE SMOOTH",
"92 60.667 OFFCURVE",
"176 -10 OFFCURVE",
"344 -10 CURVE SMOOTH"
);
},
{
closed = 1;
nodes = (
"566 566 LINE",
"657.333 567.333 OFFCURVE",
"703 605 OFFCURVE",
"703 679 CURVE SMOOTH",
"703 709.667 OFFCURVE",
"682.667 732 OFFCURVE",
"652 732 CURVE SMOOTH",
"626.667 732 OFFCURVE",
"606 716 OFFCURVE",
"606 688 CURVE SMOOTH",
"606 674 OFFCURVE",
"613 664.667 OFFCURVE",
"627 660 CURVE SMOOTH",
"641 655.333 OFFCURVE",
"648 647.333 OFFCURVE",
"648 636 CURVE SMOOTH",
"648 610 OFFCURVE",
"617.333 597 OFFCURVE",
"556 597 CURVE",
"566 566 LINE"
);
}
);
width = 681;
},
{
anchors = (
{
name = bottom;
position = "{379, 0}";
},
{
name = top;
position = "{376, 597}";
}
);
layerId = "A0AC7266-FF1C-4B13-9E61-C3CFB2289D5A";
paths = (
{
closed = 1;
nodes = (
"503.333 -10 OFFCURVE",
"575 68.333 OFFCURVE",
"575 203 CURVE SMOOTH",
"575 597 LINE",
"465 597 LINE",
"465 560 LINE",
"514 562 LINE SMOOTH",
"524.667 563.333 OFFCURVE",
"532 554.333 OFFCURVE",
"532 541 CURVE SMOOTH",
"532 203 LINE SMOOTH",
"532 96.333 OFFCURVE",
"486.667 31 OFFCURVE",
"384 31 CURVE SMOOTH",
"284 31 OFFCURVE",
"230 85.667 OFFCURVE",
"230 199 CURVE SMOOTH",
"230 542 LINE SMOOTH",
"230 552.667 OFFCURVE",
"237.333 562 OFFCURVE",
"248 562 CURVE SMOOTH",
"250 562 LINE",
"299 560 LINE",
"299 597 LINE",
"35 597 LINE",
"35 560 LINE",
"73 562 LINE SMOOTH",
"83.667 563.333 OFFCURVE",
"92 553 OFFCURVE",
"92 541 CURVE SMOOTH",
"92 199 LINE SMOOTH",
"92 59.667 OFFCURVE",
"180.667 -10 OFFCURVE",
"358 -10 CURVE SMOOTH"
);
},
{
closed = 1;
nodes = (
"570 558 LINE",
"666 559.333 OFFCURVE",
"714 603.667 OFFCURVE",
"714 691 CURVE SMOOTH",
"714 727 OFFCURVE",
"691 753 OFFCURVE",
"655 753 CURVE SMOOTH",
"625.667 753 OFFCURVE",
"600 735.333 OFFCURVE",
"600 702 CURVE SMOOTH",
"600 685.333 OFFCURVE",
"606.5 674.167 OFFCURVE",
"619.5 668.5 CURVE SMOOTH",
"632.5 662.833 OFFCURVE",
"639 653.667 OFFCURVE",
"639 641 CURVE SMOOTH",
"639 611.667 OFFCURVE",
"612 597 OFFCURVE",
"558 597 CURVE",
"570 558 LINE"
);
}
);
width = 689;
},
{
anchors = (
{
name = bottom;
position = "{350, 0}";
},
{
name = top;
position = "{347, 597}";
}
);
layerId = "8FAB7A87-DBD6-41A5-8B85-4E9492F941D1";
paths = (
{
closed = 1;
nodes = (
"463.333 -10 OFFCURVE",
"563 83 OFFCURVE",
"563 183 CURVE SMOOTH",
"563 597 LINE",
"465 597 LINE",
"465 570 LINE",
"514 572 LINE SMOOTH",
"524.667 573.333 OFFCURVE",
"532 564.333 OFFCURVE",
"532 551 CURVE SMOOTH",
"532 196 LINE SMOOTH",
"532 98.667 OFFCURVE",
"449.333 17 OFFCURVE",
"352 17 CURVE SMOOTH",
"234.667 17 OFFCURVE",
"165 87 OFFCURVE",
"165 199 CURVE SMOOTH",
"165 552 LINE SMOOTH",
"165 562.667 OFFCURVE",
"172.333 572 OFFCURVE",
"183 572 CURVE SMOOTH",
"185 572 LINE",
"234 570 LINE",
"234 597 LINE",
"35 597 LINE",
"35 570 LINE",
"73 572 LINE SMOOTH",
"83.667 573.333 OFFCURVE",
"92 563 OFFCURVE",
"92 551 CURVE SMOOTH",
"92 203 LINE SMOOTH",
"92 61 OFFCURVE",
"174 -10 OFFCURVE",
"338 -10 CURVE SMOOTH"
);
},
{
closed = 1;
nodes = (
"564 570 LINE",
"653.333 571.333 OFFCURVE",
"698 606 OFFCURVE",
"698 674 CURVE SMOOTH",
"698 702 OFFCURVE",
"679 723 OFFCURVE",
"651 723 CURVE SMOOTH",
"627 723 OFFCURVE",
"609 707.333 OFFCURVE",
"609 682 CURVE SMOOTH",
"609 669.333 OFFCURVE",
"616.167 660.833 OFFCURVE",
"630.5 656.5 CURVE SMOOTH",
"644.833 652.167 OFFCURVE",
"652 644.667 OFFCURVE",
"652 634 CURVE SMOOTH",
"652 609.333 OFFCURVE",
"619.667 597 OFFCURVE",
"555 597 CURVE",
"564 570 LINE"
);
}
);
width = 677;
}
);
unicode = 01AF;
},
{
glyphname = V;
layers = (
{
layerId = "3A4136D0-3900-4A7F-B896-13EBFCDD931C";
paths = (
{
closed = 1;
nodes = (
"283 -4 LINE",
"309 -4 LINE",
"547 546 LINE SMOOTH",
"551 555.333 OFFCURVE",
"554.167 561.667 OFFCURVE",
"556.5 565 CURVE SMOOTH",
"558.833 568.333 OFFCURVE",
"562.667 569.667 OFFCURVE",
"568 569 CURVE SMOOTH",
"604 567 LINE",
"604 597 LINE",
"447 597 LINE",
"447 567 LINE",
"498 569 LINE SMOOTH",
"506 569 OFFCURVE",
"510 565.333 OFFCURVE",
"510 558 CURVE SMOOTH",
"510 554 OFFCURVE",
"507.667 546 OFFCURVE",
"503 534 CURVE SMOOTH",
"329 129 LINE",
"148 545 LINE SMOOTH",
"146.667 549 OFFCURVE",
"146 552 OFFCURVE",
"146 554 CURVE SMOOTH",
"146 562 OFFCURVE",
"150.333 569 OFFCURVE",
"157 569 CURVE SMOOTH",
"210 567 LINE",
"210 597 LINE",
"-5 597 LINE",
"-5 567 LINE",
"23 569 LINE SMOOTH",
"31 569 OFFCURVE",
"38.667 561.333 OFFCURVE",
"46 546 CURVE SMOOTH",
"283 -4 LINE"
);
}
);
userData = {
assembly = "NPUSHB[ ]	/* 43 values pushed */
21 11 2 1 0 1 74 5 4 2 3 0 0 3 93 7 6 2 3 3 17 75 0 1 1 18 1 76 0 0 0 28 0 28 42 17 18 18 20 17 8 7 26 
CALL[ ]	/* CallFunction */";
};
width = 584;
},
{
layerId = "A0AC7266-FF1C-4B13-9E61-C3CFB2289D5A";
paths = (
{
closed = 1;
nodes = (
"283 -4 LINE",
"335 -4 LINE",
"570 539 LINE SMOOTH",
"574 548.333 OFFCURVE",
"577.167 554.667 OFFCURVE",
"579.5 558 CURVE SMOOTH",
"581.833 561.333 OFFCURVE",
"585.667 562.667 OFFCURVE",
"591 562 CURVE SMOOTH",
"627 560 LINE",
"627 597 LINE",
"466 597 LINE",
"466 560 LINE",
"514 562 LINE SMOOTH",
"522 562 OFFCURVE",
"526 558.333 OFFCURVE",
"526 551 CURVE SMOOTH",
"526 545 OFFCURVE",
"523.667 537 OFFCURVE",
"519 527 CURVE SMOOTH",
"359 159 LINE",
"195 538 LINE SMOOTH",
"193.667 542 OFFCURVE",
"193 545 OFFCURVE",
"193 547 CURVE SMOOTH",
"193 555 OFFCURVE",
"197.333 562 OFFCURVE",
"204 562 CURVE SMOOTH",
"254 560 LINE",
"254 597 LINE",
"-2 597 LINE",
"-2 560 LINE",
"26 562 LINE SMOOTH",
"34 562 OFFCURVE",
"41.667 554.333 OFFCURVE",
"49 539 CURVE SMOOTH",
"283 -4 LINE"
);
}
);
userData = {
assembly = "NPUSHB[ ]	/* 43 values pushed */
21 11 2 1 0 1 74 5 4 2 3 0 0 3 93 7 6 2 3 3 17 75 0 1 1 18 1 76 0 0 0 28 0 28 42 17 18 18 20 17 8 7 26 
CALL[ ]	/* CallFunction */";
};
width = 607;
},
{
layerId = "8FAB7A87-DBD6-41A5-8B85-4E9492F941D1";
paths = (
{
closed = 1;
nodes = (
"283 -4 LINE",
"297 -4 LINE",
"537 549 LINE SMOOTH",
"541 558.333 OFFCURVE",
"544.167 564.667 OFFCURVE",
"546.5 568 CURVE SMOOTH",
"548.833 571.333 OFFCURVE",
"552.667 572.667 OFFCURVE",
"558 572 CURVE SMOOTH",
"594 570 LINE",
"594 597 LINE",
"439 597 LINE",
"439 570 LINE",
"491 572 LINE SMOOTH",
"499 572 OFFCURVE",
"503 568.333 OFFCURVE",
"503 561 CURVE SMOOTH",
"503 557.667 OFFCURVE",
"500.667 549.667 OFFCURVE",
"496 537 CURVE SMOOTH",
"316 116 LINE",
"127 548 LINE SMOOTH",
"125.667 552 OFFCURVE",
"125 555 OFFCURVE",
"125 557 CURVE SMOOTH",
"125 565 OFFCURVE",
"129.333 572 OFFCURVE",
"136 572 CURVE SMOOTH",
"190 570 LINE",
"190 597 LINE",
"-6 597 LINE",
"-6 570 LINE",
"22 572 LINE SMOOTH",
"30 572 OFFCURVE",
"37.667 564.333 OFFCURVE",
"45 549 CURVE SMOOTH",
"283 -4 LINE"
);
}
);
userData = {
assembly = "NPUSHB[ ]	/* 43 values pushed */
21 11 2 1 0 1 74 5 4 2 3 0 0 3 93 7 6 2 3 3 17 75 0 1 1 18 1 76 0 0 0 28 0 28 42 17 18 18 20 17 8 7 26 
CALL[ ]	/* CallFunction */";
};
width = 574;
}
);
leftKerningGroup = V;
note = V;
rightKerningGroup = V;
unicode = 0056;
},
{
glyphname = W;
layers = (
{
anchors = (
{
name = top;
position = "{467, 597}";
}
);
background = {
paths = (
{
closed = 1;
nodes = (
"751 597 LINE",
"751 567 LINE",
"803 569 LINE",
"809 570 OFFCURVE",
"816 563 OFFCURVE",
"816 557 QCURVE",
"814 549 LINE",
"684 143 LINE",
"521 547 LINE SMOOTH",
"518 554 OFFCURVE",
"523 569 OFFCURVE",
"531 569 QCURVE",
"573 567 LINE",
"573 597 LINE",
"365 597 LINE",
"365 567 LINE",
"406 569 LINE",
"414 570 OFFCURVE",
"423 564 OFFCURVE",
"427 556 QCURVE",
"297 155 LINE",
"148 547 LINE",
"145 558 LINE",
"145 564 OFFCURVE",
"151 569 OFFCURVE",
"158 569 QCURVE",
"211 567 LINE",
"211 597 LINE",
"-5 597 LINE",
"-5 567 LINE",
"25 569 LINE",
"39 569 OFFCURVE",
"46 547 QCURVE",
"257 -10 LINE",
"276 -10 LINE",
"446 509 LINE",
"652 -10 LINE",
"668 -10 LINE",
"849 548 LINE",
"853 561 OFFCURVE",
"865 570 OFFCURVE",
"874 569 QCURVE",
"904 567 LINE",
"904 597 LINE"
);
}
);
};
layerId = "3A4136D0-3900-4A7F-B896-13EBFCDD931C";
paths = (
{
closed = 1;
nodes = (
"257 -10 LINE",
"276 -10 LINE",
"446 509 LINE",
"652 -10 LINE",
"668 -10 LINE",
"849 548 LINE SMOOTH",
"854.333 565.333 OFFCURVE",
"862 570.333 OFFCURVE",
"874 569 CURVE SMOOTH",
"904 567 LINE",
"904 597 LINE",
"751 597 LINE",
"751 567 LINE",
"803 569 LINE",
"811 570.333 OFFCURVE",
"816 565 OFFCURVE",
"816 557 CURVE",
"814 549 LINE",
"684 143 LINE",
"501 597 LINE",
"440 597 LINE",
"297 155 LINE",
"148 547 LINE",
"145 558 LINE",
"145 566 OFFCURVE",
"148.667 569 OFFCURVE",
"158 569 CURVE SMOOTH",
"211 567 LINE",
"211 597 LINE",
"-5 597 LINE",
"-5 567 LINE",
"25 569 LINE SMOOTH",
"34.333 569 OFFCURVE",
"41.333 561.667 OFFCURVE",
"46 547 CURVE SMOOTH",
"257 -10 LINE"
);
}
);
userData = {
assembly = "NPUSHB[ ]	/* 53 values pushed */
36 23 8 3 1 0 1 74 9 8 6 5 3 5 0 0 4 93 11 10 7 3 4 4 17 75 2 1 1 1 18 1 76 0 0 0 43 0 43 42 40 17 17 25 17 17 34 18 20 17 12 7 29 
CALL[ ]	/* CallFunction */";
};
width = 884;
},
{
anchors = (
{
name = top;
position = "{488, 597}";
}
);
background = {
paths = (
{
closed = 1;
nodes = (
"771 597 LINE",
"771 560 LINE",
"823 562 LINE",
"829 563 OFFCURVE",
"836 556 OFFCURVE",
"836 550 QCURVE",
"834 542 LINE",
"705 159 LINE",
"565 540 LINE",
"562 547 OFFCURVE",
"567 562 OFFCURVE",
"575 562 QCURVE",
"617 560 LINE",
"617 597 LINE",
"370 597 LINE",
"370 560 LINE",
"411 562 LINE",
"422 562 OFFCURVE",
"431 548 OFFCURVE",
"439 526 QCURVE",
"321 182 LINE",
"192 540 LINE",
"189 551 LINE",
"189 557 OFFCURVE",
"195 562 OFFCURVE",
"202 562 QCURVE",
"252 560 LINE",
"252 597 LINE",
"-3 597 LINE",
"-3 560 LINE",
"27 562 LINE",
"41 562 OFFCURVE",
"48 540 QCURVE",
"250 -10 LINE",
"299 -10 LINE",
"461 468 LINE",
"645 -10 LINE",
"691 -10 LINE",
"876 541 LINE SMOOTH",
"879 549 OFFCURVE",
"892 563 OFFCURVE",
"901 562 QCURVE",
"931 560 LINE",
"931 597 LINE"
);
}
);
};
layerId = "A0AC7266-FF1C-4B13-9E61-C3CFB2289D5A";
paths = (
{
closed = 1;
nodes = (
"250 -10 LINE",
"299 -10 LINE",
"461 468 LINE",
"645 -10 LINE",
"691 -10 LINE",
"876 541 LINE SMOOTH",
"880 551.667 OFFCURVE",
"889 563.333 OFFCURVE",
"901 562 CURVE SMOOTH",
"931 560 LINE",
"931 597 LINE",
"771 597 LINE",
"771 560 LINE",
"823 562 LINE",
"831 563.333 OFFCURVE",
"836 558 OFFCURVE",
"836 550 CURVE",
"834 542 LINE",
"705 159 LINE",
"544 597 LINE",
"463 597 LINE",
"321 182 LINE",
"192 540 LINE",
"189 551 LINE",
"189 559 OFFCURVE",
"192.667 562 OFFCURVE",
"202 562 CURVE SMOOTH",
"252 560 LINE",
"252 597 LINE",
"-3 597 LINE",
"-3 560 LINE",
"27 562 LINE SMOOTH",
"36.333 562 OFFCURVE",
"43.333 554.667 OFFCURVE",
"48 540 CURVE SMOOTH",
"250 -10 LINE"
);
}
);
userData = {
assembly = "NPUSHB[ ]	/* 54 values pushed */
37 24 23 8 4 1 0 1 74 9 8 6 5 3 5 0 0 4 93 11 10 7 3 4 4 17 75 2 1 1 1 18 1 76 0 0 0 44 0 44 43 41 17 17 26 17 17 34 18 20 17 12 7 29 
CALL[ ]	/* CallFunction */";
};
width = 911;
},
{
anchors = (
{
name = top;
position = "{458, 597}";
}
);
layerId = "8FAB7A87-DBD6-41A5-8B85-4E9492F941D1";
paths = (
{
closed = 1;
nodes = (
"260 -10 LINE",
"266 -10 LINE",
"439 527 LINE",
"655 -10 LINE",
"658 -10 LINE",
"837 551 LINE SMOOTH",
"843.667 572.333 OFFCURVE",
"850 573.333 OFFCURVE",
"862 572 CURVE SMOOTH",
"892 570 LINE",
"892 597 LINE",
"742 597 LINE",
"742 570 LINE",
"794 572 LINE",
"802 573.333 OFFCURVE",
"807 568 OFFCURVE",
"807 560 CURVE",
"805 552 LINE",
"675 136 LINE",
"482 597 LINE",
"430 597 LINE",
"286 143 LINE",
"128 550 LINE",
"125 561 LINE",
"125 569 OFFCURVE",
"128.667 572 OFFCURVE",
"138 572 CURVE SMOOTH",
"193 570 LINE",
"193 597 LINE",
"-6 597 LINE",
"-6 570 LINE",
"24 572 LINE SMOOTH",
"33.333 572 OFFCURVE",
"40.333 564.667 OFFCURVE",
"45 550 CURVE SMOOTH",
"260 -10 LINE"
);
}
);
userData = {
assembly = "NPUSHB[ ]	/* 53 values pushed */
36 23 8 3 1 0 1 74 9 8 6 5 3 5 0 0 4 93 11 10 7 3 4 4 17 75 2 1 1 1 18 1 76 0 0 0 43 0 43 42 40 17 17 25 17 17 34 18 20 17 12 7 29 
CALL[ ]	/* CallFunction */";
};
width = 872;
}
);
leftKerningGroup = V;
note = W;
rightKerningGroup = V;
unicode = 0057;
},
{
glyphname = X;
layers = (
{
layerId = "3A4136D0-3900-4A7F-B896-13EBFCDD931C";
paths = (
{
closed = 1;
nodes = (
"30 0 LINE",
"189 0 LINE",
"189 30 LINE",
"144 27 LINE",
"138.667 25.667 OFFCURVE",
"135 30.667 OFFCURVE",
"135 36 CURVE SMOOTH",
"135 39.333 OFFCURVE",
"136 43 OFFCURVE",
"138 47 CURVE SMOOTH",
"273 262 LINE",
"399 50 LINE",
"402.333 46 OFFCURVE",
"404 41.333 OFFCURVE",
"404 36 CURVE SMOOTH",
"404 30 OFFCURVE",
"400.667 27 OFFCURVE",
"394 27 CURVE SMOOTH",
"392 27 LINE",
"343 30 LINE",
"343 0 LINE",
"578 0 LINE",
"578 30 LINE",
"539 27 LINE SMOOTH",
"525.667 26.333 OFFCURVE",
"515.667 32 OFFCURVE",
"509 44 CURVE SMOOTH",
"340 328 LINE",
"478 549 LINE SMOOTH",
"487.333 562.333 OFFCURVE",
"497.667 569 OFFCURVE",
"509 569 CURVE SMOOTH",
"540 567 LINE",
"540 597 LINE",
"388 597 LINE",
"388 567 LINE",
"431 569 LINE SMOOTH",
"439.667 569.667 OFFCURVE",
"444 567 OFFCURVE",
"444 561 CURVE SMOOTH",
"444 557.667 OFFCURVE",
"442.333 553.667 OFFCURVE",
"439 549 CURVE SMOOTH",
"320 361 LINE",
"211 548 LINE SMOOTH",
"209 551.333 OFFCURVE",
"208 554.333 OFFCURVE",
"208 557 CURVE SMOOTH",
"208 563.667 OFFCURVE",
"213.667 569 OFFCURVE",
"223 569 CURVE SMOOTH",
"225 569 LINE",
"267 567 LINE",
"267 597 LINE",
"39 597 LINE",
"39 567 LINE",
"71 569 LINE SMOOTH",
"85.667 569 OFFCURVE",
"96.333 562.667 OFFCURVE",
"103 550 CURVE SMOOTH",
"254 296 LINE",
"100 50 LINE SMOOTH",
"91.333 35.333 OFFCURVE",
"80 28 OFFCURVE",
"66 28 CURVE SMOOTH",
"30 30 LINE",
"30 0 LINE"
);
}
);
userData = {
assembly = "NPUSHB[ ]	/* 56 values pushed */
52 39 24 17 10 7 0 7 1 4 1 74 9 7 6 3 4 4 5 93 8 1 5 5 17 75 10 3 2 1 1 0 93 2 1 0 0 21 0 76 55 54 50 48 17 26 49 17 36 33 28 49 17 11 7 29 
CALL[ ]	/* CallFunction */";
};
width = 566;
},
{
layerId = "A0AC7266-FF1C-4B13-9E61-C3CFB2289D5A";
paths = (
{
closed = 1;
nodes = (
"20 0 LINE",
"186 0 LINE",
"186 38 LINE",
"141 35 LINE",
"135.667 33.667 OFFCURVE",
"132 38.667 OFFCURVE",
"132 44 CURVE SMOOTH",
"132 47.333 OFFCURVE",
"133 51 OFFCURVE",
"135 55 CURVE SMOOTH",
"258 250 LINE",
"373 57 LINE SMOOTH",
"376.333 51.667 OFFCURVE",
"378 46.667 OFFCURVE",
"378 42 CURVE SMOOTH",
"378 36.667 OFFCURVE",
"374.667 34 OFFCURVE",
"368 34 CURVE SMOOTH",
"366 34 LINE",
"317 37 LINE",
"317 0 LINE",
"593 0 LINE",
"593 37 LINE",
"562 34 LINE SMOOTH",
"549.333 32 OFFCURVE",
"539.333 37.667 OFFCURVE",
"532 51 CURVE SMOOTH",
"364 330 LINE",
"496 542 LINE SMOOTH",
"504 555.333 OFFCURVE",
"514.333 562 OFFCURVE",
"527 562 CURVE SMOOTH",
"562 560 LINE",
"562 597 LINE",
"399 597 LINE",
"399 560 LINE",
"442 562 LINE SMOOTH",
"450.667 562.667 OFFCURVE",
"455 560 OFFCURVE",
"455 554 CURVE SMOOTH",
"455 550.667 OFFCURVE",
"453.333 546.667 OFFCURVE",
"450 542 CURVE SMOOTH",
"342 372 LINE",
"246 541 LINE SMOOTH",
"244 544.333 OFFCURVE",
"243 547.333 OFFCURVE",
"243 550 CURVE SMOOTH",
"243 556.667 OFFCURVE",
"248.667 562 OFFCURVE",
"258 562 CURVE SMOOTH",
"260 562 LINE",
"302 560 LINE",
"302 597 LINE",
"32 597 LINE",
"32 560 LINE",
"57 562 LINE SMOOTH",
"71 562 OFFCURVE",
"81.667 555.667 OFFCURVE",
"89 543 CURVE SMOOTH",
"237 293 LINE",
"90 58 LINE SMOOTH",
"81.333 43.333 OFFCURVE",
"70 36 OFFCURVE",
"56 36 CURVE SMOOTH",
"20 38 LINE",
"20 0 LINE"
);
}
);
userData = {
assembly = "NPUSHB[ ]	/* 53 values pushed */
52 39 28 24 17 10 0 7 1 4 1 74 9 7 6 3 4 4 5 93 8 1 5 5 17 75 3 1 1 1 0 93 2 1 0 0 21 0 76 50 48 17 26 49 18 20 33 28 49 17 10 7 29 
CALL[ ]	/* CallFunction */";
};
width = 585;
},
{
layerId = "8FAB7A87-DBD6-41A5-8B85-4E9492F941D1";
paths = (
{
closed = 1;
nodes = (
"34 0 LINE",
"190 0 LINE",
"190 26 LINE",
"145 23 LINE",
"139.667 21.667 OFFCURVE",
"136 26.667 OFFCURVE",
"136 32 CURVE SMOOTH",
"136 35.333 OFFCURVE",
"137 39 OFFCURVE",
"139 43 CURVE SMOOTH",
"280 267 LINE",
"411 47 LINE",
"414.333 43.667 OFFCURVE",
"416 39 OFFCURVE",
"416 33 CURVE SMOOTH",
"416 27 OFFCURVE",
"412.667 24 OFFCURVE",
"406 24 CURVE SMOOTH",
"404 24 LINE",
"355 27 LINE",
"355 0 LINE",
"571 0 LINE",
"571 27 LINE",
"529 24 LINE SMOOTH",
"515.667 24 OFFCURVE",
"505.667 29.667 OFFCURVE",
"499 41 CURVE SMOOTH",
"329 327 LINE",
"470 552 LINE",
"480 565.333 OFFCURVE",
"490.333 572 OFFCURVE",
"501 572 CURVE SMOOTH",
"530 570 LINE",
"530 597 LINE",
"383 597 LINE",
"383 570 LINE",
"426 572 LINE SMOOTH",
"434.667 572.667 OFFCURVE",
"439 570 OFFCURVE",
"439 564 CURVE SMOOTH",
"439 560.667 OFFCURVE",
"437.333 556.667 OFFCURVE",
"434 552 CURVE SMOOTH",
"310 356 LINE",
"195 551 LINE SMOOTH",
"193 554.333 OFFCURVE",
"192 557.333 OFFCURVE",
"192 560 CURVE SMOOTH",
"192 566.667 OFFCURVE",
"197.667 572 OFFCURVE",
"207 572 CURVE SMOOTH",
"209 572 LINE",
"251 570 LINE",
"251 597 LINE",
"42 597 LINE",
"42 570 LINE",
"77 572 LINE SMOOTH",
"92.333 572 OFFCURVE",
"103 565.667 OFFCURVE",
"109 553 CURVE",
"262 297 LINE",
"104 46 LINE SMOOTH",
"95.333 31.333 OFFCURVE",
"84 24 OFFCURVE",
"70 24 CURVE SMOOTH",
"34 26 LINE",
"34 0 LINE"
);
}
);
userData = {
assembly = "NPUSHB[ ]	/* 56 values pushed */
52 39 24 17 10 7 0 7 1 4 1 74 9 7 6 3 4 4 5 93 8 1 5 5 17 75 10 3 2 1 1 0 93 2 1 0 0 21 0 76 55 54 50 48 17 26 49 17 36 33 28 49 17 11 7 29 
CALL[ ]	/* CallFunction */";
};
width = 558;
}
);
note = X;
unicode = 0058;
},
{
glyphname = Y;
layers = (
{
anchors = (
{
name = bottom;
position = "{267, 0}";
},
{
name = top;
position = "{266, 597}";
}
);
layerId = "3A4136D0-3900-4A7F-B896-13EBFCDD931C";
paths = (
{
closed = 1;
nodes = (
"152 0 LINE",
"381 0 LINE",
"381 29 LINE",
"333 27 LINE SMOOTH",
"319.667 27 OFFCURVE",
"313 34 OFFCURVE",
"313 48 CURVE SMOOTH",
"313 287 LINE",
"459 548 LINE SMOOTH",
"467 562 OFFCURVE",
"476.333 569 OFFCURVE",
"487 569 CURVE SMOOTH",
"517 567 LINE",
"517 597 LINE",
"365 597 LINE",
"365 567 LINE",
"417 569 LINE SMOOTH",
"423.667 569 OFFCURVE",
"427 565.667 OFFCURVE",
"427 559 CURVE SMOOTH",
"427 555.667 OFFCURVE",
"426 552.333 OFFCURVE",
"424 549 CURVE SMOOTH",
"293 317 LINE",
"156 545 LINE SMOOTH",
"152.667 550.333 OFFCURVE",
"151 555 OFFCURVE",
"151 559 CURVE SMOOTH",
"151 565.667 OFFCURVE",
"154.667 569 OFFCURVE",
"162 569 CURVE SMOOTH",
"163 569 LINE",
"216 567 LINE",
"216 597 LINE",
"-5 597 LINE",
"-5 567 LINE",
"23 569 LINE SMOOTH",
"32.333 569 OFFCURVE",
"40.333 562.667 OFFCURVE",
"47 550 CURVE SMOOTH",
"220 263 LINE",
"220 49 LINE SMOOTH",
"220 34.333 OFFCURVE",
"213.667 27 OFFCURVE",
"201 27 CURVE SMOOTH",
"152 29 LINE",
"152 0 LINE"
);
}
);
userData = {
assembly = "NPUSHB[ ]	/* 55 values pushed */
33 30 27 20 16 5 6 1 0 1 74 7 6 4 3 0 0 5 93 9 8 2 5 5 17 75 3 1 1 1 2 93 0 2 2 21 2 76 0 0 0 37 0 37 40 49 18 20 33 17 36 33 10 7 28 
CALL[ ]	/* CallFunction */";
};
width = 507;
},
{
anchors = (
{
name = bottom;
position = "{295, 0}";
},
{
name = top;
position = "{294, 597}";
}
);
layerId = "A0AC7266-FF1C-4B13-9E61-C3CFB2289D5A";
paths = (
{
closed = 1;
nodes = (
"156 0 LINE",
"430 0 LINE",
"430 37 LINE",
"382 35 LINE SMOOTH",
"368.667 35 OFFCURVE",
"362 42 OFFCURVE",
"362 56 CURVE SMOOTH",
"362 275 LINE",
"511 541 LINE SMOOTH",
"519 555 OFFCURVE",
"528.333 562 OFFCURVE",
"539 562 CURVE SMOOTH",
"569 560 LINE",
"569 597 LINE",
"409 597 LINE",
"409 560 LINE",
"461 562 LINE SMOOTH",
"467.667 562 OFFCURVE",
"471 558.667 OFFCURVE",
"471 552 CURVE SMOOTH",
"471 548.667 OFFCURVE",
"470 545.333 OFFCURVE",
"468 542 CURVE SMOOTH",
"342 317 LINE",
"209 538 LINE SMOOTH",
"205.667 543.333 OFFCURVE",
"204 548 OFFCURVE",
"204 552 CURVE SMOOTH",
"204 558.667 OFFCURVE",
"207.667 562 OFFCURVE",
"215 562 CURVE SMOOTH",
"216 562 LINE",
"269 560 LINE",
"269 597 LINE",
"-1 597 LINE",
"-1 560 LINE",
"28 562 LINE SMOOTH",
"36 562 OFFCURVE",
"44 555.667 OFFCURVE",
"52 543 CURVE SMOOTH",
"224 256 LINE",
"224 57 LINE SMOOTH",
"224 42.333 OFFCURVE",
"217.667 35 OFFCURVE",
"205 35 CURVE SMOOTH",
"156 37 LINE",
"156 0 LINE"
);
}
);
userData = {
assembly = "NPUSHB[ ]	/* 54 values pushed */
33 30 27 16 5 5 1 0 1 74 7 6 4 3 0 0 5 93 9 8 2 5 5 17 75 3 1 1 1 2 93 0 2 2 21 2 76 0 0 0 37 0 37 40 49 17 36 33 17 36 33 10 7 28 
CALL[ ]	/* CallFunction */";
};
width = 559;
},
{
anchors = (
{
name = bottom;
position = "{255, 0}";
},
{
name = top;
position = "{254, 597}";
}
);
layerId = "8FAB7A87-DBD6-41A5-8B85-4E9492F941D1";
paths = (
{
closed = 1;
nodes = (
"150 0 LINE",
"359 0 LINE",
"359 25 LINE",
"311 23 LINE SMOOTH",
"297.667 23 OFFCURVE",
"291 30 OFFCURVE",
"291 44 CURVE SMOOTH",
"291 292 LINE",
"436 551 LINE SMOOTH",
"444 565 OFFCURVE",
"453.333 572 OFFCURVE",
"464 572 CURVE SMOOTH",
"494 570 LINE",
"494 597 LINE",
"345 597 LINE",
"345 570 LINE",
"397 572 LINE SMOOTH",
"403.667 572 OFFCURVE",
"407 568.667 OFFCURVE",
"407 562 CURVE SMOOTH",
"407 558.667 OFFCURVE",
"406 555.333 OFFCURVE",
"404 552 CURVE SMOOTH",
"271 317 LINE",
"132 548 LINE SMOOTH",
"128.667 553.333 OFFCURVE",
"127 558 OFFCURVE",
"127 562 CURVE SMOOTH",
"127 568.667 OFFCURVE",
"130.667 572 OFFCURVE",
"138 572 CURVE SMOOTH",
"139 572 LINE",
"192 570 LINE",
"192 597 LINE",
"-7 597 LINE",
"-7 570 LINE",
"21 572 LINE SMOOTH",
"31 572 OFFCURVE",
"39 565.667 OFFCURVE",
"45 553 CURVE",
"218 266 LINE",
"218 45 LINE SMOOTH",
"218 30.333 OFFCURVE",
"211.667 23 OFFCURVE",
"199 23 CURVE SMOOTH",
"150 25 LINE",
"150 0 LINE"
);
}
);
userData = {
assembly = "NPUSHB[ ]	/* 55 values pushed */
33 30 27 20 16 5 6 1 0 1 74 7 6 4 3 0 0 5 93 9 8 2 5 5 17 75 3 1 1 1 2 93 0 2 2 21 2 76 0 0 0 37 0 37 40 49 18 20 33 17 36 33 10 7 28 
CALL[ ]	/* CallFunction */";
};
width = 484;
}
);
leftKerningGroup = Y;
note = Y;
rightKerningGroup = Y;
unicode = 0059;
},
{
glyphname = Z;
layers = (
{
anchors = (
{
name = top;
position = "{247, 597}";
}
);
layerId = "3A4136D0-3900-4A7F-B896-13EBFCDD931C";
paths = (
{
closed = 1;
nodes = (
"492 167 LINE",
"465 167 LINE",
"465 80.333 OFFCURVE",
"407 27 OFFCURVE",
"315 27 CURVE SMOOTH",
"141 27 LINE",
"464 573 LINE",
"464 597 LINE",
"144 597 LINE SMOOTH",
"129.333 597 OFFCURVE",
"110 597.667 OFFCURVE",
"86 599 CURVE SMOOTH",
"35 600 LINE",
"35 443 LINE",
"62 443 LINE",
"62 529.667 OFFCURVE",
"107 569 OFFCURVE",
"203 569 CURVE SMOOTH",
"355 569 LINE",
"34 27 LINE",
"34 0 LINE",
"371 0 LINE SMOOTH",
"438.333 0 OFFCURVE",
"476 -1.333 OFFCURVE",
"484 -4 CURVE"
);
}
);
userData = {
assembly = "NPUSHB[ ]	/* 15 values pushed */
17 1 1 3 1 74 5 1 4 1 73 1 1 0 71 
MPPEM[ ]	/* MeasurePixelPerEm */
PUSHB[ ]	/* 1 value pushed */
10 
LT[ ]	/* LessThan */
IF[ ]	/* If */
NPUSHB[ ]	/* 36 values pushed */
0 2 1 5 1 2 112 6 1 5 4 1 5 4 124 0 1 1 3 93 0 3 3 17 75 0 4 4 0 94 0 0 0 21 0 76 
ELSE[ ]	/* Else */
NPUSHB[ ]	/* 37 values pushed */
0 2 1 5 1 2 5 126 6 1 5 4 1 5 4 124 0 1 1 3 93 0 3 3 17 75 0 4 4 0 94 0 0 0 21 0 76 
EIF[ ]	/* EndIf */
NPUSHB[ ]	/* 14 values pushed */
0 0 0 22 0 22 34 65 18 34 34 7 7 25 
CALL[ ]	/* CallFunction */";
};
width = 512;
},
{
anchors = (
{
name = top;
position = "{279, 597}";
}
);
layerId = "A0AC7266-FF1C-4B13-9E61-C3CFB2289D5A";
paths = (
{
closed = 1;
nodes = (
"527 167 LINE",
"492 167 LINE",
"492 84.333 OFFCURVE",
"434 35 OFFCURVE",
"342 35 CURVE SMOOTH",
"201 35 LINE",
"517 573 LINE",
"517 597 LINE",
"164 597 LINE SMOOTH",
"144.667 597 OFFCURVE",
"121 597.667 OFFCURVE",
"93 599 CURVE SMOOTH",
"55 600 LINE",
"55 443 LINE",
"89 443 LINE",
"89 524.333 OFFCURVE",
"134 562 OFFCURVE",
"230 562 CURVE SMOOTH",
"350 562 LINE",
"31 27 LINE",
"31 0 LINE",
"406 0 LINE SMOOTH",
"473.333 0 OFFCURVE",
"511 -1.333 OFFCURVE",
"519 -4 CURVE"
);
}
);
userData = {
assembly = "NPUSHB[ ]	/* 14 values pushed */
17 1 1 3 5 1 0 4 2 74 1 1 0 71 
MPPEM[ ]	/* MeasurePixelPerEm */
PUSHB[ ]	/* 1 value pushed */
10 
LT[ ]	/* LessThan */
IF[ ]	/* If */
NPUSHB[ ]	/* 35 values pushed */
0 2 1 5 1 2 112 6 1 5 4 4 5 110 0 1 1 3 93 0 3 3 17 75 0 4 4 0 94 0 0 0 21 0 76 
ELSE[ ]	/* Else */
NPUSHB[ ]	/* 37 values pushed */
0 2 1 5 1 2 5 126 6 1 5 4 1 5 4 124 0 1 1 3 93 0 3 3 17 75 0 4 4 0 94 0 0 0 21 0 76 
EIF[ ]	/* EndIf */
NPUSHB[ ]	/* 14 values pushed */
0 0 0 22 0 22 34 65 18 34 34 7 7 25 
CALL[ ]	/* CallFunction */";
};
width = 547;
},
{
anchors = (
{
name = top;
position = "{233, 597}";
}
);
layerId = "8FAB7A87-DBD6-41A5-8B85-4E9492F941D1";
paths = (
{
closed = 1;
nodes = (
"476 167 LINE",
"453 167 LINE",
"453 79 OFFCURVE",
"395 23 OFFCURVE",
"303 23 CURVE SMOOTH",
"114 23 LINE",
"440 573 LINE",
"440 597 LINE",
"135 597 LINE SMOOTH",
"122.333 597 OFFCURVE",
"105 597.667 OFFCURVE",
"83 599 CURVE SMOOTH",
"26 600 LINE",
"26 443 LINE",
"50 443 LINE",
"50 532.333 OFFCURVE",
"95 572 OFFCURVE",
"191 572 CURVE SMOOTH",
"357 572 LINE",
"35 27 LINE",
"35 0 LINE",
"355 0 LINE SMOOTH",
"422.333 0 OFFCURVE",
"460 -1.333 OFFCURVE",
"468 -4 CURVE"
);
}
);
userData = {
assembly = "NPUSHB[ ]	/* 15 values pushed */
17 1 1 3 1 74 5 1 4 1 73 1 1 0 71 
MPPEM[ ]	/* MeasurePixelPerEm */
PUSHB[ ]	/* 1 value pushed */
10 
LT[ ]	/* LessThan */
IF[ ]	/* If */
NPUSHB[ ]	/* 36 values pushed */
0 2 1 5 1 2 112 6 1 5 4 1 5 4 124 0 1 1 3 93 0 3 3 17 75 0 4 4 0 94 0 0 0 21 0 76 
ELSE[ ]	/* Else */
NPUSHB[ ]	/* 37 values pushed */
0 2 1 5 1 2 5 126 6 1 5 4 1 5 4 124 0 1 1 3 93 0 3 3 17 75 0 4 4 0 94 0 0 0 21 0 76 
EIF[ ]	/* EndIf */
NPUSHB[ ]	/* 14 values pushed */
0 0 0 22 0 22 34 65 18 34 34 7 7 25 
CALL[ ]	/* CallFunction */";
};
width = 496;
}
);
note = Z;
unicode = 005A;
},
{
glyphname = a;
layers = (
{
anchors = (
{
name = bottom;
position = "{208, 0}";
},
{
name = ogonek;
position = "{344, 0}";
},
{
name = top;
position = "{221, 420}";
}
);
background = {
paths = (
{
closed = 1;
nodes = (
"254 -10 OFFCURVE",
"294 76 QCURVE",
"292 37 LINE",
"292 20 OFFCURVE",
"288 0 QCURVE",
"430 0 LINE",
"430 26 LINE",
"393 24 LINE",
"380 24 OFFCURVE",
"380 43 QCURVE SMOOTH",
"380 289 LINE SMOOTH",
"380 430 OFFCURVE",
"213 430 QCURVE SMOOTH",
"139 430 OFFCURVE",
"51 378 OFFCURVE",
"51 336 QCURVE SMOOTH",
"51 315 OFFCURVE",
"74 289 OFFCURVE",
"95 289 QCURVE SMOOTH",
"112 289 OFFCURVE",
"134 306 OFFCURVE",
"134 323 QCURVE SMOOTH",
"134 332 OFFCURVE",
"125 353 OFFCURVE",
"125 361 QCURVE SMOOTH",
"125 403 OFFCURVE",
"201 403 QCURVE SMOOTH",
"250 403 OFFCURVE",
"294 363 OFFCURVE",
"294 316 QCURVE SMOOTH",
"294 253 LINE",
"156 253 OFFCURVE",
"27 180 OFFCURVE",
"27 103 QCURVE SMOOTH",
"27 47 OFFCURVE",
"92 -10 OFFCURVE",
"155 -10 QCURVE SMOOTH"
);
},
{
closed = 1;
nodes = (
"118 21 OFFCURVE",
"118 111 QCURVE SMOOTH",
"118 172 OFFCURVE",
"200 226 OFFCURVE",
"294 226 QCURVE",
"294 162 LINE",
"291 104 OFFCURVE",
"229 26 OFFCURVE",
"185 26 QCURVE SMOOTH"
);
}
);
};
layerId = "3A4136D0-3900-4A7F-B896-13EBFCDD931C";
paths = (
{
closed = 1;
nodes = (
"221 -10 OFFCURVE",
"267.333 18.667 OFFCURVE",
"294 76 CURVE",
"292 37 LINE SMOOTH",
"292 25.667 OFFCURVE",
"290.667 13.333 OFFCURVE",
"288 0 CURVE",
"430 0 LINE",
"430 26 LINE",
"393 24 LINE SMOOTH",
"384.333 24 OFFCURVE",
"380 30.333 OFFCURVE",
"380 43 CURVE SMOOTH",
"380 289 LINE SMOOTH",
"380 383 OFFCURVE",
"324.333 430 OFFCURVE",
"213 430 CURVE SMOOTH",
"114.333 430 OFFCURVE",
"51 392 OFFCURVE",
"51 336 CURVE SMOOTH",
"51 308 OFFCURVE",
"67 289 OFFCURVE",
"95 289 CURVE SMOOTH",
"117.667 289 OFFCURVE",
"134 300.333 OFFCURVE",
"134 323 CURVE SMOOTH",
"134 329 OFFCURVE",
"132.5 335.5 OFFCURVE",
"129.5 342.5 CURVE SMOOTH",
"126.5 349.5 OFFCURVE",
"125 355.667 OFFCURVE",
"125 361 CURVE SMOOTH",
"125 389 OFFCURVE",
"150.333 403 OFFCURVE",
"201 403 CURVE SMOOTH",
"266.333 403 OFFCURVE",
"294 378.667 OFFCURVE",
"294 316 CURVE SMOOTH",
"294 253 LINE",
"110 253 OFFCURVE",
"27 205.667 OFFCURVE",
"27 103 CURVE SMOOTH",
"27 28.333 OFFCURVE",
"71 -10 OFFCURVE",
"155 -10 CURVE SMOOTH"
);
},
{
closed = 1;
nodes = (
"140.333 22.667 OFFCURVE",
"118 51 OFFCURVE",
"118 111 CURVE SMOOTH",
"118 192.333 OFFCURVE",
"168.667 226 OFFCURVE",
"294 226 CURVE",
"294 162 LINE SMOOTH",
"290 84.667 OFFCURVE",
"243.667 26 OFFCURVE",
"185 26 CURVE"
);
}
);
userData = {
assembly = "NPUSHB[ ]	/* 82 values pushed */
21 1 4 3 6 1 8 7 2 74 0 4 3 2 3 4 2 126 0 2 0 7 8 2 7 103 0 3 3 5 95 0 5 5 28 75 9 1 6 6 0 93 0 0 0 21 75 10 1 8 8 1 95 0 1 1 18 1 76 39 39 0 0 39 48 39 47 43 42 0 38 0 37 36 38 35 20 38 17 11 7 26 
CALL[ ]	/* CallFunction */";
};
width = 450;
},
{
anchors = (
{
name = bottom;
position = "{213, 0}";
},
{
name = ogonek;
position = "{349, 0}";
},
{
name = top;
position = "{226, 425}";
}
);
background = {
paths = (
{
closed = 1;
nodes = (
"423 32 LINE",
"410 32 OFFCURVE",
"410 51 QCURVE SMOOTH",
"410 302 LINE SMOOTH",
"410 435 OFFCURVE",
"224 435 QCURVE SMOOTH",
"139 435 OFFCURVE",
"39 377 OFFCURVE",
"39 329 QCURVE SMOOTH",
"39 304 OFFCURVE",
"74 271 OFFCURVE",
"102 271 QCURVE SMOOTH",
"126 271 OFFCURVE",
"157 295 OFFCURVE",
"157 317 QCURVE SMOOTH",
"157 323 OFFCURVE",
"153 337 QCURVE",
"148 347 OFFCURVE",
"148 360 QCURVE SMOOTH",
"148 377 OFFCURVE",
"177 401 OFFCURVE",
"212 401 QCURVE SMOOTH",
"253 401 OFFCURVE",
"279 359 OFFCURVE",
"279 321 QCURVE SMOOTH",
"279 251 LINE",
"141 251 OFFCURVE",
"13 181 OFFCURVE",
"13 108 QCURVE SMOOTH",
"13 52 OFFCURVE",
"78 -5 OFFCURVE",
"141 -5 QCURVE SMOOTH",
"235 -5 OFFCURVE",
"279 64 QCURVE",
"278 37 LINE",
"278 24 OFFCURVE",
"274 0 QCURVE",
"456 0 LINE",
"456 34 LINE"
);
},
{
closed = 1;
nodes = (
"149 54 OFFCURVE",
"149 120 QCURVE SMOOTH",
"149 168 OFFCURVE",
"211 216 OFFCURVE",
"279 216 QCURVE",
"279 150 LINE",
"274 107 OFFCURVE",
"229 54 OFFCURVE",
"198 54 QCURVE SMOOTH"
);
}
);
};
layerId = "A0AC7266-FF1C-4B13-9E61-C3CFB2289D5A";
paths = (
{
closed = 1;
nodes = (
"203.667 -10 OFFCURVE",
"249.667 14 OFFCURVE",
"279 62 CURVE",
"278 37 LINE SMOOTH",
"278 28.333 OFFCURVE",
"276.667 16 OFFCURVE",
"274 0 CURVE",
"456 0 LINE",
"456 34 LINE",
"423 32 LINE SMOOTH",
"414.333 32 OFFCURVE",
"410 38.333 OFFCURVE",
"410 51 CURVE SMOOTH",
"410 302 LINE SMOOTH",
"410 390.667 OFFCURVE",
"348 435 OFFCURVE",
"224 435 CURVE SMOOTH",
"110.667 435 OFFCURVE",
"39 393 OFFCURVE",
"39 329 CURVE SMOOTH",
"39 295.667 OFFCURVE",
"64.667 271 OFFCURVE",
"102 271 CURVE SMOOTH",
"134 271 OFFCURVE",
"157 287.667 OFFCURVE",
"157 317 CURVE SMOOTH",
"157 321 OFFCURVE",
"155.5 326.833 OFFCURVE",
"152.5 334.5 CURVE SMOOTH",
"149.5 342.167 OFFCURVE",
"148 350.333 OFFCURVE",
"148 359 CURVE SMOOTH",
"148 387 OFFCURVE",
"169.333 401 OFFCURVE",
"212 401 CURVE SMOOTH",
"266.667 401 OFFCURVE",
"279 371.667 OFFCURVE",
"279 321 CURVE SMOOTH",
"279 246 LINE",
"95 246 OFFCURVE",
"13 200.333 OFFCURVE",
"13 103 CURVE SMOOTH",
"13 28.333 OFFCURVE",
"57 -10 OFFCURVE",
"141 -10 CURVE SMOOTH"
);
},
{
closed = 1;
nodes = (
"165.333 50.667 OFFCURVE",
"149 71 OFFCURVE",
"149 115 CURVE SMOOTH",
"149 179 OFFCURVE",
"188.333 211 OFFCURVE",
"279 211 CURVE",
"279 148 LINE",
"272.333 90.667 OFFCURVE",
"239.333 54 OFFCURVE",
"198 54 CURVE"
);
}
);
userData = {
assembly = "PUSHB[ ]	/* 7 values pushed */
41 5 2 8 7 1 74 
MPPEM[ ]	/* MeasurePixelPerEm */
PUSHB[ ]	/* 1 value pushed */
10 
LT[ ]	/* LessThan */
IF[ ]	/* If */
NPUSHB[ ]	/* 51 values pushed */
0 4 3 2 3 4 2 126 0 2 0 7 8 2 7 103 0 3 3 5 95 0 5 5 28 75 10 1 8 8 0 95 1 1 0 0 21 75 9 1 6 6 0 95 1 1 0 0 21 0 76 
ELSE[ ]	/* Else */
MPPEM[ ]	/* MeasurePixelPerEm */
PUSHB[ ]	/* 1 value pushed */
12 
LT[ ]	/* LessThan */
IF[ ]	/* If */
NPUSHB[ ]	/* 49 values pushed */
0 4 3 2 3 4 2 126 0 2 0 7 8 2 7 103 0 3 3 5 95 0 5 5 28 75 9 1 6 6 0 93 0 0 0 21 75 10 1 8 8 1 95 0 1 1 18 1 76 
ELSE[ ]	/* Else */
MPPEM[ ]	/* MeasurePixelPerEm */
PUSHB[ ]	/* 1 value pushed */
45 
LT[ ]	/* LessThan */
IF[ ]	/* If */
NPUSHB[ ]	/* 51 values pushed */
0 4 3 2 3 4 2 126 0 2 0 7 8 2 7 103 0 3 3 5 95 0 5 5 28 75 10 1 8 8 0 95 1 1 0 0 21 75 9 1 6 6 0 95 1 1 0 0 21 0 76 
ELSE[ ]	/* Else */
NPUSHB[ ]	/* 49 values pushed */
0 4 3 2 3 4 2 126 0 2 0 7 8 2 7 103 0 3 3 5 95 0 5 5 28 75 9 1 6 6 0 93 0 0 0 21 75 10 1 8 8 1 95 0 1 1 18 1 76 
EIF[ ]	/* EndIf */
EIF[ ]	/* EndIf */
EIF[ ]	/* EndIf */
NPUSHB[ ]	/* 23 values pushed */
39 39 0 0 39 47 39 46 43 42 0 38 0 37 36 40 35 20 36 17 11 7 26 
CALL[ ]	/* CallFunction */";
};
width = 467;
},
{
anchors = (
{
name = bottom;
position = "{206, 0}";
},
{
name = ogonek;
position = "{342, 0}";
},
{
name = top;
position = "{219, 418}";
}
);
layerId = "8FAB7A87-DBD6-41A5-8B85-4E9492F941D1";
paths = (
{
closed = 1;
nodes = (
"228.333 -10 OFFCURVE",
"275 20.667 OFFCURVE",
"301 82 CURVE",
"298 37 LINE SMOOTH",
"298 24.333 OFFCURVE",
"296.667 12 OFFCURVE",
"294 0 CURVE",
"418 0 LINE",
"418 22 LINE",
"380 20 LINE SMOOTH",
"371.333 20 OFFCURVE",
"367 26.333 OFFCURVE",
"367 39 CURVE SMOOTH",
"367 283 LINE SMOOTH",
"367 379.667 OFFCURVE",
"314 428 OFFCURVE",
"208 428 CURVE SMOOTH",
"116 428 OFFCURVE",
"56 391 OFFCURVE",
"56 339 CURVE SMOOTH",
"56 313.667 OFFCURVE",
"68 297 OFFCURVE",
"92 297 CURVE SMOOTH",
"110.667 297 OFFCURVE",
"124 306 OFFCURVE",
"124 326 CURVE SMOOTH",
"124 332.667 OFFCURVE",
"122.5 339.333 OFFCURVE",
"119.5 346 CURVE SMOOTH",
"116.5 352.667 OFFCURVE",
"115 358 OFFCURVE",
"115 362 CURVE SMOOTH",
"115 390 OFFCURVE",
"142 404 OFFCURVE",
"196 404 CURVE SMOOTH",
"266.667 404 OFFCURVE",
"301 382 OFFCURVE",
"301 314 CURVE SMOOTH",
"301 256 LINE",
"117 256 OFFCURVE",
"33 208.333 OFFCURVE",
"33 103 CURVE SMOOTH",
"33 28.333 OFFCURVE",
"77 -10 OFFCURVE",
"161 -10 CURVE SMOOTH"
);
},
{
closed = 1;
nodes = (
"129 10.667 OFFCURVE",
"104 42.333 OFFCURVE",
"104 109 CURVE SMOOTH",
"104 198.333 OFFCURVE",
"159.667 233 OFFCURVE",
"301 233 CURVE",
"301 168 LINE SMOOTH",
"298.333 82.667 OFFCURVE",
"245.667 14 OFFCURVE",
"179 14 CURVE"
);
}
);
userData = {
assembly = "NPUSHB[ ]	/* 82 values pushed */
21 1 4 3 6 1 8 7 2 74 0 4 3 2 3 4 2 126 0 2 0 7 8 2 7 103 0 3 3 5 95 0 5 5 28 75 9 1 6 6 0 93 0 0 0 21 75 10 1 8 8 1 95 0 1 1 18 1 76 39 39 0 0 39 48 39 47 43 42 0 38 0 37 36 38 35 20 38 17 11 7 26 
CALL[ ]	/* CallFunction */";
};
width = 442;
}
);
leftKerningGroup = a;
note = a;
rightKerningGroup = a;
unicode = 0061;
},
{
glyphname = ae;
layers = (
{
anchors = (
{
name = top;
position = "{353, 420}";
}
);
layerId = "3A4136D0-3900-4A7F-B896-13EBFCDD931C";
paths = (
{
closed = 1;
nodes = (
"580 -10 OFFCURVE",
"646 29.333 OFFCURVE",
"674 92 CURVE",
"650 110 LINE",
"626 60.667 OFFCURVE",
"566 23 OFFCURVE",
"514 23 CURVE SMOOTH",
"427.333 23 OFFCURVE",
"381 97 OFFCURVE",
"381 217 CURVE",
"675 217 LINE",
"675 355.667 OFFCURVE",
"616 430 OFFCURVE",
"500 430 CURVE SMOOTH",
"445.333 430 OFFCURVE",
"396 413.667 OFFCURVE",
"352 381 CURVE",
"325.333 413.667 OFFCURVE",
"279 430 OFFCURVE",
"213 430 CURVE SMOOTH",
"114.333 430 OFFCURVE",
"51 392 OFFCURVE",
"51 336 CURVE SMOOTH",
"51 308 OFFCURVE",
"67 289 OFFCURVE",
"95 289 CURVE SMOOTH",
"117.667 289 OFFCURVE",
"134 300.333 OFFCURVE",
"134 323 CURVE SMOOTH",
"134 329 OFFCURVE",
"132.5 335.5 OFFCURVE",
"129.5 342.5 CURVE SMOOTH",
"126.5 349.5 OFFCURVE",
"125 355.667 OFFCURVE",
"125 361 CURVE SMOOTH",
"125 389 OFFCURVE",
"150.333 403 OFFCURVE",
"201 403 CURVE SMOOTH",
"266.333 403 OFFCURVE",
"294 378.667 OFFCURVE",
"294 316 CURVE SMOOTH",
"294 242 LINE",
"108.667 242 OFFCURVE",
"27 204.667 OFFCURVE",
"27 98 CURVE SMOOTH",
"27 28.667 OFFCURVE",
"84 -5 OFFCURVE",
"172 -5 CURVE SMOOTH",
"238 -5 OFFCURVE",
"286.667 25.667 OFFCURVE",
"318 87 CURVE",
"348.667 24.333 OFFCURVE",
"405.333 -10 OFFCURVE",
"508 -10 CURVE SMOOTH"
);
},
{
closed = 1;
nodes = (
"147 28 OFFCURVE",
"118 49 OFFCURVE",
"118 93 CURVE SMOOTH",
"118 175.667 OFFCURVE",
"171.333 217 OFFCURVE",
"294 217 CURVE",
"294 177 LINE SMOOTH",
"294 79.667 OFFCURVE",
"253.667 28 OFFCURVE",
"191 28 CURVE SMOOTH"
);
},
{
closed = 1;
nodes = (
"381 242 LINE",
"381 351.333 OFFCURVE",
"418.333 403 OFFCURVE",
"501 403 CURVE SMOOTH",
"560.333 403 OFFCURVE",
"590 358.667 OFFCURVE",
"590 270 CURVE SMOOTH",
"590 251.333 OFFCURVE",
"586.667 242 OFFCURVE",
"580 242 CURVE SMOOTH",
"381 242 LINE"
);
}
);
userData = {
assembly = "NPUSHB[ ]	/* 100 values pushed */
45 31 2 6 5 16 10 9 3 11 0 2 74 0 6 5 4 5 6 4 126 9 1 4 15 12 2 0 11 4 0 103 14 10 2 5 5 7 95 13 8 2 7 7 28 75 0 11 11 3 95 0 3 3 18 75 0 1 1 2 95 0 2 2 26 2 76 57 57 49 49 0 0 57 67 57 67 63 61 49 56 49 55 53 51 0 48 0 47 36 38 35 20 36 37 34 18 16 7 28 
CALL[ ]	/* CallFunction */";
};
width = 710;
},
{
anchors = (
{
name = top;
position = "{361, 425}";
}
);
layerId = "A0AC7266-FF1C-4B13-9E61-C3CFB2289D5A";
paths = (
{
closed = 1;
nodes = (
"596.333 -10 OFFCURVE",
"665.333 27.667 OFFCURVE",
"696 93 CURVE",
"669 112 LINE",
"647.667 66.667 OFFCURVE",
"597 31 OFFCURVE",
"537 31 CURVE SMOOTH",
"453 31 OFFCURVE",
"410 94 OFFCURVE",
"410 210 CURVE",
"699 210 LINE",
"699 367.333 OFFCURVE",
"631 435 OFFCURVE",
"499 435 CURVE SMOOTH",
"440.333 435 OFFCURVE",
"394 424.333 OFFCURVE",
"360 403 CURVE",
"330 424.333 OFFCURVE",
"284.667 435 OFFCURVE",
"224 435 CURVE SMOOTH",
"110.667 435 OFFCURVE",
"39 393 OFFCURVE",
"39 329 CURVE SMOOTH",
"39 295.667 OFFCURVE",
"64.667 271 OFFCURVE",
"102 271 CURVE SMOOTH",
"134 271 OFFCURVE",
"157 287.667 OFFCURVE",
"157 317 CURVE SMOOTH",
"157 321 OFFCURVE",
"155.5 327 OFFCURVE",
"152.5 335 CURVE SMOOTH",
"149.5 343 OFFCURVE",
"148 351.333 OFFCURVE",
"148 360 CURVE SMOOTH",
"148.667 387.333 OFFCURVE",
"170 401 OFFCURVE",
"212 401 CURVE SMOOTH",
"266.667 401 OFFCURVE",
"279 371.667 OFFCURVE",
"279 321 CURVE SMOOTH",
"279 242 LINE",
"95 242 OFFCURVE",
"13 202 OFFCURVE",
"13 106 CURVE SMOOTH",
"13 32.667 OFFCURVE",
"61 -5 OFFCURVE",
"145 -5 CURVE SMOOTH",
"216.333 -5 OFFCURVE",
"268.333 22.333 OFFCURVE",
"301 77 CURVE",
"335.667 18.333 OFFCURVE",
"400.333 -10 OFFCURVE",
"503 -10 CURVE SMOOTH"
);
},
{
closed = 1;
nodes = (
"167 53 OFFCURVE",
"149 72.667 OFFCURVE",
"149 114 CURVE SMOOTH",
"149 175.333 OFFCURVE",
"188.333 208 OFFCURVE",
"279 208 CURVE",
"279 156 LINE",
"273.667 96 OFFCURVE",
"239 53 OFFCURVE",
"199 53 CURVE SMOOTH"
);
},
{
closed = 1;
nodes = (
"410 242 LINE",
"410 339.333 OFFCURVE",
"437.333 401 OFFCURVE",
"496 401 CURVE SMOOTH",
"542 401 OFFCURVE",
"565 358.667 OFFCURVE",
"565 274 CURVE SMOOTH",
"565 252.667 OFFCURVE",
"559.333 242 OFFCURVE",
"548 242 CURVE SMOOTH",
"410 242 LINE"
);
}
);
userData = {
assembly = "NPUSHB[ ]	/* 13 values pushed */
46 1 5 7 66 16 10 9 4 11 0 2 74 
MPPEM[ ]	/* MeasurePixelPerEm */
PUSHB[ ]	/* 1 value pushed */
10 
LT[ ]	/* LessThan */
IF[ ]	/* If */
NPUSHB[ ]	/* 56 values pushed */
0 6 5 4 5 6 4 126 9 1 4 15 12 2 0 11 4 0 103 14 10 2 5 5 7 95 13 8 2 7 7 28 75 0 11 11 2 95 3 1 2 2 26 75 0 1 1 2 95 3 1 2 2 26 2 76 
ELSE[ ]	/* Else */
MPPEM[ ]	/* MeasurePixelPerEm */
PUSHB[ ]	/* 1 value pushed */
12 
LT[ ]	/* LessThan */
IF[ ]	/* If */
NPUSHB[ ]	/* 54 values pushed */
0 6 5 4 5 6 4 126 9 1 4 15 12 2 0 11 4 0 103 14 10 2 5 5 7 95 13 8 2 7 7 28 75 0 11 11 3 95 0 3 3 18 75 0 1 1 2 95 0 2 2 26 2 76 
ELSE[ ]	/* Else */
MPPEM[ ]	/* MeasurePixelPerEm */
PUSHB[ ]	/* 1 value pushed */
45 
LT[ ]	/* LessThan */
IF[ ]	/* If */
NPUSHB[ ]	/* 56 values pushed */
0 6 5 4 5 6 4 126 9 1 4 15 12 2 0 11 4 0 103 14 10 2 5 5 7 95 13 8 2 7 7 28 75 0 11 11 2 95 3 1 2 2 26 75 0 1 1 2 95 3 1 2 2 26 2 76 
ELSE[ ]	/* Else */
NPUSHB[ ]	/* 54 values pushed */
0 6 5 4 5 6 4 126 9 1 4 15 12 2 0 11 4 0 103 14 10 2 5 5 7 95 13 8 2 7 7 28 75 0 11 11 3 95 0 3 3 18 75 0 1 1 2 95 0 2 2 26 2 76 
EIF[ ]	/* EndIf */
EIF[ ]	/* EndIf */
EIF[ ]	/* EndIf */
NPUSHB[ ]	/* 33 values pushed */
58 58 49 49 0 0 58 67 58 67 64 62 49 57 49 56 53 51 0 48 0 47 36 40 35 20 35 37 34 18 16 7 28 
CALL[ ]	/* CallFunction */";
};
width = 719;
},
{
anchors = (
{
name = top;
position = "{349, 418}";
}
);
layerId = "8FAB7A87-DBD6-41A5-8B85-4E9492F941D1";
paths = (
{
closed = 1;
nodes = (
"572.667 -10 OFFCURVE",
"637.333 30.667 OFFCURVE",
"664 92 CURVE",
"642 109 LINE",
"616.667 58.333 OFFCURVE",
"552 19 OFFCURVE",
"504 19 CURVE SMOOTH",
"416 19 OFFCURVE",
"368 98.667 OFFCURVE",
"368 220 CURVE",
"664 220 LINE",
"664 350.667 OFFCURVE",
"609.333 428 OFFCURVE",
"500 428 CURVE SMOOTH",
"447.333 428 OFFCURVE",
"396.667 409 OFFCURVE",
"348 371 CURVE",
"322.667 409 OFFCURVE",
"276 428 OFFCURVE",
"208 428 CURVE SMOOTH",
"116 428 OFFCURVE",
"56 391 OFFCURVE",
"56 339 CURVE SMOOTH",
"56 313.667 OFFCURVE",
"68 297 OFFCURVE",
"92 297 CURVE SMOOTH",
"110.667 297 OFFCURVE",
"124 306 OFFCURVE",
"124 326 CURVE SMOOTH",
"124 332.667 OFFCURVE",
"122.5 339.333 OFFCURVE",
"119.5 346 CURVE SMOOTH",
"116.5 352.667 OFFCURVE",
"115 357.667 OFFCURVE",
"115 361 CURVE SMOOTH",
"114.333 390.333 OFFCURVE",
"141.333 404.667 OFFCURVE",
"196 404 CURVE SMOOTH",
"266.667 404 OFFCURVE",
"301 382 OFFCURVE",
"301 314 CURVE SMOOTH",
"301 242 LINE",
"114.333 242 OFFCURVE",
"33 206 OFFCURVE",
"33 94 CURVE SMOOTH",
"33 27.333 OFFCURVE",
"94.667 -5 OFFCURVE",
"184 -5 CURVE SMOOTH",
"247.333 -5 OFFCURVE",
"294.667 27 OFFCURVE",
"326 91 CURVE",
"355.333 25.667 OFFCURVE",
"407.333 -10 OFFCURVE",
"510 -10 CURVE SMOOTH"
);
},
{
closed = 1;
nodes = (
"137.667 17 OFFCURVE",
"104 38.667 OFFCURVE",
"104 84 CURVE SMOOTH",
"104 176 OFFCURVE",
"163.667 221 OFFCURVE",
"301 221 CURVE",
"301 186 LINE SMOOTH",
"302.333 74 OFFCURVE",
"260.333 17 OFFCURVE",
"187 17 CURVE SMOOTH"
);
},
{
closed = 1;
nodes = (
"368 242 LINE",
"368 356.667 OFFCURVE",
"409.667 404 OFFCURVE",
"503 404 CURVE SMOOTH",
"568.333 404 OFFCURVE",
"601 358.667 OFFCURVE",
"601 268 CURVE SMOOTH",
"601 250.667 OFFCURVE",
"598.667 242 OFFCURVE",
"594 242 CURVE SMOOTH",
"368 242 LINE"
);
}
);
userData = {
assembly = "NPUSHB[ ]	/* 100 values pushed */
45 31 2 6 5 16 10 9 3 11 0 2 74 0 6 5 4 5 6 4 126 9 1 4 15 12 2 0 11 4 0 103 14 10 2 5 5 7 95 13 8 2 7 7 28 75 0 11 11 3 95 0 3 3 18 75 0 1 1 2 95 0 2 2 26 2 76 57 57 49 49 0 0 57 67 57 67 63 61 49 56 49 55 53 51 0 48 0 47 36 38 35 20 36 37 34 18 16 7 28 
CALL[ ]	/* CallFunction */";
};
width = 706;
}
);
leftKerningGroup = a;
note = ae;
rightKerningGroup = ae;
unicode = 00E6;
},
{
glyphname = b;
layers = (
{
background = {
paths = (
{
closed = 1;
nodes = (
"21 705 LINE",
"57 707 LINE",
"70 707 OFFCURVE",
"70 687 QCURVE SMOOTH",
"70 -5 LINE",
"103 -5 LINE",
"103 25 OFFCURVE",
"117 61 OFFCURVE",
"131 61 QCURVE SMOOTH",
"145 61 OFFCURVE",
"149 52 QCURVE",
"172 22 OFFCURVE",
"222 -10 OFFCURVE",
"271 -10 QCURVE SMOOTH",
"367 -10 OFFCURVE",
"461 100 OFFCURVE",
"461 209 QCURVE SMOOTH",
"461 430 OFFCURVE",
"288 430 QCURVE SMOOTH",
"194 430 OFFCURVE",
"157 342 QCURVE",
"157 730 LINE",
"21 730 LINE"
);
},
{
closed = 1;
nodes = (
"159 226 LINE SMOOTH",
"159 308 OFFCURVE",
"221 403 OFFCURVE",
"277 403 QCURVE SMOOTH",
"315 403 OFFCURVE",
"355 368 OFFCURVE",
"370 287 OFFCURVE",
"370 209 QCURVE SMOOTH",
"370 134 OFFCURVE",
"352 52 OFFCURVE",
"310 17 OFFCURVE",
"271 17 QCURVE SMOOTH",
"211 17 OFFCURVE",
"159 105 OFFCURVE",
"159 184 QCURVE SMOOTH"
);
}
);
};
layerId = "3A4136D0-3900-4A7F-B896-13EBFCDD931C";
paths = (
{
closed = 1;
nodes = (
"399 -10 OFFCURVE",
"461 63.667 OFFCURVE",
"461 209 CURVE SMOOTH",
"461 356.333 OFFCURVE",
"403.333 430 OFFCURVE",
"288 430 CURVE SMOOTH",
"225.333 430 OFFCURVE",
"181.667 400.667 OFFCURVE",
"157 342 CURVE",
"157 730 LINE",
"21 730 LINE",
"21 705 LINE",
"57 707 LINE SMOOTH",
"65.667 707 OFFCURVE",
"70 700.333 OFFCURVE",
"70 687 CURVE SMOOTH",
"70 -5 LINE",
"103 -5 LINE",
"103 15 OFFCURVE",
"105.333 31 OFFCURVE",
"110 43 CURVE SMOOTH",
"114.667 55 OFFCURVE",
"121.667 61 OFFCURVE",
"131 61 CURVE SMOOTH",
"140.333 61 OFFCURVE",
"146.333 58 OFFCURVE",
"149 52 CURVE",
"179.667 12 OFFCURVE",
"205.667 -10 OFFCURVE",
"271 -10 CURVE SMOOTH"
);
},
{
closed = 1;
nodes = (
"196.333 17 OFFCURVE",
"159 72.667 OFFCURVE",
"159 184 CURVE SMOOTH",
"159 226 LINE SMOOTH",
"159 335.333 OFFCURVE",
"202.333 403 OFFCURVE",
"277 403 CURVE SMOOTH",
"315.667 403 OFFCURVE",
"340.833 389 OFFCURVE",
"352.5 361 CURVE SMOOTH",
"364.167 333 OFFCURVE",
"370 282.333 OFFCURVE",
"370 209 CURVE SMOOTH",
"370 75.355 OFFCURVE",
"353.736 17 OFFCURVE",
"271 17 CURVE SMOOTH"
);
}
);
userData = {
assembly = "NPUSHB[ ]	/* 59 values pushed */
2 1 3 7 1 74 0 3 7 6 7 3 6 126 0 0 0 5 1 0 5 103 0 7 7 1 95 0 1 1 28 75 0 4 4 18 75 0 6 6 2 95 0 2 2 26 2 76 38 34 34 18 35 35 34 16 8 7 28 
CALL[ ]	/* CallFunction */";
};
width = 481;
},
{
background = {
paths = (
{
closed = 1;
nodes = (
"17 698 LINE",
"50 700 LINE",
"57 700 OFFCURVE",
"63 688 OFFCURVE",
"63 680 QCURVE SMOOTH",
"63 -5 LINE",
"132 -5 LINE",
"132 25 OFFCURVE",
"150 61 OFFCURVE",
"168 61 QCURVE SMOOTH",
"179 61 OFFCURVE",
"186 52 QCURVE SMOOTH",
"209 22 OFFCURVE",
"263 -10 OFFCURVE",
"315 -10 QCURVE SMOOTH",
"404 -10 OFFCURVE",
"498 102 OFFCURVE",
"498 211 QCURVE SMOOTH",
"498 322 OFFCURVE",
"409 435 OFFCURVE",
"322 435 QCURVE SMOOTH",
"276 435 OFFCURVE",
"208 392 OFFCURVE",
"194 356 QCURVE",
"194 730 LINE",
"17 730 LINE"
);
},
{
closed = 1;
nodes = (
"196 229 LINE SMOOTH",
"196 303 OFFCURVE",
"243 390 OFFCURVE",
"286 390 QCURVE SMOOTH",
"328 390 OFFCURVE",
"358 303 OFFCURVE",
"358 211 QCURVE SMOOTH",
"358 144 OFFCURVE",
"344 69 OFFCURVE",
"312 36 OFFCURVE",
"284 36 QCURVE SMOOTH",
"196 36 OFFCURVE",
"196 186 QCURVE SMOOTH"
);
}
);
};
layerId = "A0AC7266-FF1C-4B13-9E61-C3CFB2289D5A";
paths = (
{
closed = 1;
nodes = (
"433.667 -10 OFFCURVE",
"498 65.667 OFFCURVE",
"498 211 CURVE SMOOTH",
"498 360.333 OFFCURVE",
"439.333 435 OFFCURVE",
"322 435 CURVE SMOOTH",
"260.667 435 OFFCURVE",
"218 408.667 OFFCURVE",
"194 356 CURVE",
"194 730 LINE",
"17 730 LINE",
"17 698 LINE",
"50 700 LINE SMOOTH",
"58.667 700 OFFCURVE",
"63 693.333 OFFCURVE",
"63 680 CURVE SMOOTH",
"63 -5 LINE",
"132 -5 LINE",
"132 35 OFFCURVE",
"144 61 OFFCURVE",
"168 61 CURVE SMOOTH",
"175.333 61 OFFCURVE",
"181.333 58 OFFCURVE",
"186 52 CURVE SMOOTH",
"216.667 12 OFFCURVE",
"245.667 -10 OFFCURVE",
"315 -10 CURVE SMOOTH"
);
},
{
closed = 1;
nodes = (
"225.333 36 OFFCURVE",
"196 86 OFFCURVE",
"196 186 CURVE SMOOTH",
"196 229 LINE SMOOTH",
"196 327.667 OFFCURVE",
"228.667 390 OFFCURVE",
"286 390 CURVE SMOOTH",
"314 390 OFFCURVE",
"333 375.5 OFFCURVE",
"343 346.5 CURVE SMOOTH",
"353 317.5 OFFCURVE",
"358 272.333 OFFCURVE",
"358 211 CURVE SMOOTH",
"358 91.895 OFFCURVE",
"344.253 36 OFFCURVE",
"284 36 CURVE SMOOTH"
);
}
);
userData = {
assembly = "NPUSHB[ ]	/* 10 values pushed */
21 1 1 5 2 1 3 7 2 74 
MPPEM[ ]	/* MeasurePixelPerEm */
PUSHB[ ]	/* 1 value pushed */
10 
LT[ ]	/* LessThan */
IF[ ]	/* If */
NPUSHB[ ]	/* 38 values pushed */
0 3 7 6 7 3 6 126 0 0 0 5 1 0 5 103 0 7 7 1 95 0 1 1 28 75 0 6 6 2 95 4 1 2 2 26 2 76 
ELSE[ ]	/* Else */
MPPEM[ ]	/* MeasurePixelPerEm */
PUSHB[ ]	/* 1 value pushed */
12 
LT[ ]	/* LessThan */
IF[ ]	/* If */
NPUSHB[ ]	/* 42 values pushed */
0 3 7 6 7 3 6 126 0 0 0 5 1 0 5 103 0 7 7 1 95 0 1 1 28 75 0 4 4 18 75 0 6 6 2 95 0 2 2 26 2 76 
ELSE[ ]	/* Else */
MPPEM[ ]	/* MeasurePixelPerEm */
PUSHB[ ]	/* 1 value pushed */
45 
LT[ ]	/* LessThan */
IF[ ]	/* If */
NPUSHB[ ]	/* 38 values pushed */
0 3 7 6 7 3 6 126 0 0 0 5 1 0 5 103 0 7 7 1 95 0 1 1 28 75 0 6 6 2 95 4 1 2 2 26 2 76 
ELSE[ ]	/* Else */
NPUSHB[ ]	/* 42 values pushed */
0 3 7 6 7 3 6 126 0 0 0 5 1 0 5 103 0 7 7 1 95 0 1 1 28 75 0 4 4 18 75 0 6 6 2 95 0 2 2 26 2 76 
EIF[ ]	/* EndIf */
EIF[ ]	/* EndIf */
EIF[ ]	/* EndIf */
NPUSHB[ ]	/* 11 values pushed */
37 33 35 18 35 36 35 16 8 7 28 
CALL[ ]	/* CallFunction */";
};
width = 514;
},
{
layerId = "8FAB7A87-DBD6-41A5-8B85-4E9492F941D1";
paths = (
{
closed = 1;
nodes = (
"384.333 -10 OFFCURVE",
"445 62.667 OFFCURVE",
"445 208 CURVE SMOOTH",
"445 354.667 OFFCURVE",
"387.667 428 OFFCURVE",
"273 428 CURVE SMOOTH",
"209.667 428 OFFCURVE",
"165.667 397.333 OFFCURVE",
"141 336 CURVE",
"141 730 LINE",
"23 730 LINE",
"23 708 LINE",
"60 710 LINE SMOOTH",
"68.667 710 OFFCURVE",
"73 703.333 OFFCURVE",
"73 690 CURVE SMOOTH",
"73 -5 LINE",
"90 -5 LINE",
"90 15 OFFCURVE",
"92 31 OFFCURVE",
"96 43 CURVE SMOOTH",
"100 55 OFFCURVE",
"106.333 61 OFFCURVE",
"115 61 CURVE SMOOTH",
"125 61 OFFCURVE",
"131 58 OFFCURVE",
"133 52 CURVE",
"163.667 12 OFFCURVE",
"188.333 -10 OFFCURVE",
"251 -10 CURVE SMOOTH"
);
},
{
closed = 1;
nodes = (
"183.667 9 OFFCURVE",
"143 67 OFFCURVE",
"143 183 CURVE SMOOTH",
"143 225 LINE SMOOTH",
"143 338.333 OFFCURVE",
"190.333 409 OFFCURVE",
"273 409 CURVE SMOOTH",
"359.667 409 OFFCURVE",
"375 365.333 OFFCURVE",
"375 208 CURVE SMOOTH",
"375 113.973 OFFCURVE",
"365.594 52.086 OFFCURVE",
"332.278 26.722 CURVE SMOOTH",
"316.759 14.907 OFFCURVE",
"294.333 9 OFFCURVE",
"265 9 CURVE SMOOTH"
);
}
);
userData = {
assembly = "NPUSHB[ ]	/* 59 values pushed */
2 1 3 7 1 74 0 3 7 6 7 3 6 126 0 0 0 5 1 0 5 103 0 7 7 1 95 0 1 1 28 75 0 4 4 18 75 0 6 6 2 95 0 2 2 26 2 76 38 34 34 18 35 35 34 16 8 7 28 
CALL[ ]	/* CallFunction */";
};
width = 466;
}
);
note = b;
rightKerningGroup = b;
unicode = 0062;
},
{
glyphname = c;
layers = (
{
anchors = (
{
name = bottom;
position = "{233, 0}";
},
{
name = top;
position = "{235, 420}";
}
);
background = {
paths = (
{
closed = 1;
nodes = (
"174 430 OFFCURVE",
"85 375 OFFCURVE",
"36 274 OFFCURVE",
"36 206 QCURVE SMOOTH",
"36 105 OFFCURVE",
"143 -10 OFFCURVE",
"237 -10 QCURVE SMOOTH",
"302 -10 OFFCURVE",
"389 52 OFFCURVE",
"407 106 QCURVE",
"383 124 LINE",
"371 73 OFFCURVE",
"292 17 OFFCURVE",
"242 17 QCURVE SMOOTH",
"185 17 OFFCURVE",
"129 116 OFFCURVE",
"129 217 QCURVE SMOOTH",
"129 319 OFFCURVE",
"183 403 OFFCURVE",
"235 403 QCURVE SMOOTH",
"267 403 OFFCURVE",
"313 376 OFFCURVE",
"313 351 QCURVE SMOOTH",
"313 340 OFFCURVE",
"308 328 QCURVE",
"304 316 OFFCURVE",
"304 308 QCURVE SMOOTH",
"304 278 OFFCURVE",
"339 278 QCURVE SMOOTH",
"364 278 OFFCURVE",
"387 307 OFFCURVE",
"387 328 QCURVE SMOOTH",
"387 356 OFFCURVE",
"344 403 OFFCURVE",
"273 430 OFFCURVE",
"232 430 QCURVE SMOOTH"
);
}
);
};
layerId = "3A4136D0-3900-4A7F-B896-13EBFCDD931C";
paths = (
{
closed = 1;
nodes = (
"322.333 -10 OFFCURVE",
"379 28.667 OFFCURVE",
"407 106 CURVE",
"382 118 LINE",
"360.667 52.667 OFFCURVE",
"308.667 17 OFFCURVE",
"242 17 CURVE SMOOTH",
"166 17 OFFCURVE",
"129 82.333 OFFCURVE",
"129 217 CURVE SMOOTH",
"129 353 OFFCURVE",
"165.667 403 OFFCURVE",
"235 403 CURVE SMOOTH",
"277.667 403 OFFCURVE",
"313 384.333 OFFCURVE",
"313 351 CURVE SMOOTH",
"313 343.667 OFFCURVE",
"311.333 336 OFFCURVE",
"308 328 CURVE SMOOTH",
"305.333 320 OFFCURVE",
"304 313.333 OFFCURVE",
"304 308 CURVE SMOOTH",
"304 288 OFFCURVE",
"315.667 278 OFFCURVE",
"339 278 CURVE SMOOTH",
"372.333 278 OFFCURVE",
"387 300 OFFCURVE",
"387 328 CURVE SMOOTH",
"387 381.885 OFFCURVE",
"319.564 430 OFFCURVE",
"232 430 CURVE SMOOTH",
"112 430 OFFCURVE",
"36 339.333 OFFCURVE",
"36 206 CURVE SMOOTH",
"36 71.333 OFFCURVE",
"111.667 -10 OFFCURVE",
"237 -10 CURVE SMOOTH"
);
}
);
userData = {
assembly = "NPUSHB[ ]	/* 54 values pushed */
8 1 0 1 25 24 2 2 0 2 74 0 0 1 2 1 0 2 126 0 1 1 4 95 5 1 4 4 28 75 0 2 2 3 95 0 3 3 26 3 76 0 0 0 35 0 34 37 36 39 37 6 7 24 
CALL[ ]	/* CallFunction */";
};
width = 425;
},
{
anchors = (
{
name = bottom;
position = "{242, 0}";
},
{
name = top;
position = "{244, 425}";
}
);
background = {
paths = (
{
closed = 1;
nodes = (
"144 435 OFFCURVE",
"20 320 OFFCURVE",
"20 209 QCURVE SMOOTH",
"20 98 OFFCURVE",
"147 -10 OFFCURVE",
"245 -10 QCURVE SMOOTH",
"383 -10 OFFCURVE",
"426 108 QCURVE",
"395 123 LINE",
"377 72 OFFCURVE",
"310 27 OFFCURVE",
"269 27 QCURVE SMOOTH",
"217 27 OFFCURVE",
"158 115 OFFCURVE",
"158 223 QCURVE SMOOTH",
"158 320 OFFCURVE",
"206 401 OFFCURVE",
"249 401 QCURVE SMOOTH",
"275 401 OFFCURVE",
"310 378 OFFCURVE",
"310 356 QCURVE SMOOTH",
"310 344 OFFCURVE",
"305 334 QCURVE",
"301 322 OFFCURVE",
"301 313 QCURVE SMOOTH",
"301 291 OFFCURVE",
"332 268 OFFCURVE",
"356 268 QCURVE SMOOTH",
"386 268 OFFCURVE",
"419 304 OFFCURVE",
"419 330 QCURVE SMOOTH",
"419 359 OFFCURVE",
"374 407 OFFCURVE",
"294 435 OFFCURVE",
"244 435 QCURVE SMOOTH"
);
}
);
};
layerId = "A0AC7266-FF1C-4B13-9E61-C3CFB2289D5A";
paths = (
{
closed = 1;
nodes = (
"337 -10 OFFCURVE",
"397.333 29.333 OFFCURVE",
"426 108 CURVE",
"395 123 LINE",
"371 55 OFFCURVE",
"323.667 27 OFFCURVE",
"269 27 CURVE SMOOTH",
"199.667 27 OFFCURVE",
"158 79 OFFCURVE",
"158 223 CURVE SMOOTH",
"158 287.667 OFFCURVE",
"166 333.5 OFFCURVE",
"182 360.5 CURVE SMOOTH",
"198 387.5 OFFCURVE",
"220.333 401 OFFCURVE",
"249 401 CURVE SMOOTH",
"283.667 401 OFFCURVE",
"310 385.333 OFFCURVE",
"310 356 CURVE SMOOTH",
"310 348 OFFCURVE",
"308.333 340.667 OFFCURVE",
"305 334 CURVE SMOOTH",
"302.333 326 OFFCURVE",
"301 319 OFFCURVE",
"301 313 CURVE SMOOTH",
"301 283 OFFCURVE",
"319.333 268 OFFCURVE",
"356 268 CURVE SMOOTH",
"396 268 OFFCURVE",
"419 295.333 OFFCURVE",
"419 330 CURVE SMOOTH",
"419 386.581 OFFCURVE",
"348.572 435 OFFCURVE",
"244 435 CURVE SMOOTH",
"110.667 435 OFFCURVE",
"20 357 OFFCURVE",
"20 209 CURVE SMOOTH",
"20 61 OFFCURVE",
"114.333 -10 OFFCURVE",
"245 -10 CURVE SMOOTH"
);
}
);
userData = {
assembly = "NPUSHB[ ]	/* 50 values pushed */
26 25 2 2 0 1 74 0 0 1 2 1 0 2 126 0 1 1 4 95 5 1 4 4 28 75 0 2 2 3 95 0 3 3 26 3 76 0 0 0 34 0 33 36 36 40 37 6 7 24 
CALL[ ]	/* CallFunction */";
};
width = 439;
},
{
anchors = (
{
name = bottom;
position = "{229, 0}";
},
{
name = top;
position = "{231, 418}";
}
);
layerId = "8FAB7A87-DBD6-41A5-8B85-4E9492F941D1";
paths = (
{
closed = 1;
nodes = (
"315.667 -10 OFFCURVE",
"371 28.333 OFFCURVE",
"399 105 CURVE",
"376 116 LINE",
"356 52 OFFCURVE",
"302 13 OFFCURVE",
"230 13 CURVE SMOOTH",
"151.333 13 OFFCURVE",
"116 83.333 OFFCURVE",
"116 214 CURVE SMOOTH",
"116 354 OFFCURVE",
"154.333 404 OFFCURVE",
"229 404 CURVE SMOOTH",
"274.333 404 OFFCURVE",
"314 383.667 OFFCURVE",
"314 349 CURVE SMOOTH",
"314 341.667 OFFCURVE",
"312.333 333.667 OFFCURVE",
"309 325 CURVE SMOOTH",
"306.333 317 OFFCURVE",
"305 310.667 OFFCURVE",
"305 306 CURVE SMOOTH",
"305 290 OFFCURVE",
"313.667 282 OFFCURVE",
"331 282 CURVE SMOOTH",
"361.667 282 OFFCURVE",
"373 301.667 OFFCURVE",
"373 327 CURVE SMOOTH",
"373 380.467 OFFCURVE",
"306.29 428 OFFCURVE",
"227 428 CURVE SMOOTH",
"112.333 428 OFFCURVE",
"43 331.667 OFFCURVE",
"43 205 CURVE SMOOTH",
"43 75.667 OFFCURVE",
"110.333 -10 OFFCURVE",
"233 -10 CURVE SMOOTH"
);
}
);
userData = {
assembly = "NPUSHB[ ]	/* 54 values pushed */
8 1 0 1 25 24 2 2 0 2 74 0 0 1 2 1 0 2 126 0 1 1 4 95 5 1 4 4 28 75 0 2 2 3 95 0 3 3 26 3 76 0 0 0 35 0 34 37 36 39 37 6 7 24 
CALL[ ]	/* CallFunction */";
};
width = 419;
}
);
leftKerningGroup = c;
note = c;
rightKerningGroup = c;
unicode = 0063;
},
